<svg width="381" height="351" viewBox="0 0 381 351" fill="none" xmlns="http://www.w3.org/2000/svg">
<g filter="url(#filter0_d)">
<path d="M292.762 259.257L126.104 162.385C121.666 159.828 114.506 159.798 110.098 162.385L3.2915 224.647C-1.11684 227.204 -1.08725 231.397 3.32108 233.954L89.2097 283.877L89.476 284.026L100.334 290.329L170.01 330.826C174.447 333.413 181.578 333.413 185.986 330.826L292.792 268.564C297.2 266.007 297.171 261.844 292.762 259.257Z" fill="#DBDBDB"/>
<path d="M269.182 262.29L245.04 248.256L149.536 192.743L120.926 176.092C119.831 175.468 118.086 175.468 117.021 176.092L55.5702 211.921C54.5051 212.546 54.5051 213.557 55.5702 214.181L76.6059 226.431L180.779 286.999L203.826 300.379C204.892 301.003 206.637 301.003 207.702 300.379L269.153 264.55C270.277 263.926 270.277 262.915 269.182 262.29Z" fill="#C6C6C6"/>
<path d="M149.151 273.738L101.754 246.204L101.547 246.085C100.334 245.372 98.3519 245.372 97.1684 246.056L68.7361 262.617C68.1444 262.974 67.8189 263.42 67.8485 263.896C67.8485 264.372 68.174 264.818 68.9728 265.293L116.37 292.856C117.583 293.54 119.536 293.54 120.719 292.856L149.151 276.265C149.743 275.938 150.068 275.462 150.039 274.986C150.068 274.511 149.743 274.065 149.151 273.738Z" fill="#C6C6C6"/>
<path d="M133.53 194.17L139.358 190.781L130.098 185.429L124.299 188.818L133.53 194.17Z" fill="#7F7F7F"/>
<path d="M113.885 194.943L123.145 200.325L131.962 195.181L122.731 189.799L113.885 194.943Z" fill="#7F7F7F"/>
<path d="M124.033 212.516L132.405 217.392L140.749 212.546L132.376 207.669L124.033 212.516Z" fill="#7F7F7F"/>
<path d="M195.602 230.237L201.4 226.848L192.17 221.496L186.341 224.885L195.602 230.237Z" fill="#7F7F7F"/>
<path d="M171.43 240.079L179.803 244.955L188.146 240.079L179.743 235.233L171.43 240.079Z" fill="#7F7F7F"/>
<path d="M226.637 248.286L232.436 244.896L223.205 239.544L217.377 242.934L226.637 248.286Z" fill="#7F7F7F"/>
<path d="M237.022 254.322L242.821 250.932L233.59 245.55L227.762 248.94L237.022 254.322Z" fill="#7F7F7F"/>
<path d="M210.128 264.699L201.726 259.822L193.412 264.669L201.785 269.545L210.128 264.699Z" fill="#7F7F7F"/>
<path d="M152.406 229.018L160.779 233.895L169.122 229.018L160.72 224.142L152.406 229.018Z" fill="#7F7F7F"/>
<path d="M115.364 233.776L105.926 239.276L163.648 272.846L173.086 267.345L115.364 233.776Z" fill="#7F7F7F"/>
<path d="M143.885 200.177L149.684 196.787L140.453 191.435L134.624 194.824L143.885 200.177Z" fill="#7F7F7F"/>
<path d="M174.921 218.225L180.749 214.835L171.489 209.483L165.69 212.873L174.921 218.225Z" fill="#7F7F7F"/>
<path d="M70.8959 207.937L61.4579 213.438L71.1326 219.057L80.541 213.557L70.8959 207.937Z" fill="#7F7F7F"/>
<path d="M106.163 216.203L81.3694 201.782L73.0261 206.658L97.8193 221.05L106.163 216.203Z" fill="#7F7F7F"/>
<path d="M133.53 218.046L141.903 222.923L150.246 218.046L141.873 213.2L133.53 218.046Z" fill="#7F7F7F"/>
<path d="M124.18 224.439L132.524 219.593L124.151 214.716L115.808 219.563L124.18 224.439Z" fill="#7F7F7F"/>
<path d="M143.027 223.577L151.4 228.424L159.713 223.577L151.341 218.701L143.027 223.577Z" fill="#7F7F7F"/>
<path d="M142.198 225.212L133.796 220.336L125.482 225.183L133.855 230.059L142.198 225.212Z" fill="#7F7F7F"/>
<path d="M165.601 225.004L174.862 230.386L183.678 225.242L174.447 219.86L165.601 225.004Z" fill="#7F7F7F"/>
<path d="M126.222 227.859L117.464 222.774L109.151 227.65L117.879 232.735L126.222 227.859Z" fill="#7F7F7F"/>
<path d="M135.808 233.449L127.08 228.364L118.737 233.211L127.494 238.295L135.808 233.449Z" fill="#7F7F7F"/>
<path d="M161.548 236.452L153.145 231.575L144.832 236.422L153.205 241.298L161.548 236.452Z" fill="#7F7F7F"/>
<path d="M186.371 237.106L195.631 242.488L204.477 237.314L195.217 231.932L186.371 237.106Z" fill="#7F7F7F"/>
<path d="M207.347 251.259L198.974 246.383L190.631 251.259L199.034 256.135L207.347 251.259Z" fill="#7F7F7F"/>
<path d="M200.128 256.76L208.501 261.636L216.844 256.76L208.471 251.913L200.128 256.76Z" fill="#7F7F7F"/>
<path d="M200.335 258.99L191.962 254.113L183.619 258.99L191.992 263.866L200.335 258.99Z" fill="#7F7F7F"/>
<path d="M235.868 267.821L227.495 262.974L219.152 267.821L227.525 272.697L235.868 267.821Z" fill="#7F7F7F"/>
<path d="M203.294 272.667L194.536 267.583L186.223 272.429L194.951 277.514L203.294 272.667Z" fill="#7F7F7F"/>
<path d="M174.388 268.088L164.95 273.589L174.595 279.209L184.033 273.708L174.388 268.088Z" fill="#7F7F7F"/>
<path d="M213.205 276.176L227.022 284.204L235.365 279.357L221.519 271.329L213.205 276.176Z" fill="#7F7F7F"/>
<path d="M185.365 274.451L175.927 279.982L185.572 285.572L195.01 280.071L185.365 274.451Z" fill="#7F7F7F"/>
<path d="M208.264 287.802L202.525 284.442L198.028 287.058L203.797 290.418L208.264 287.802Z" fill="#7F7F7F"/>
<path d="M197.584 287.326L193.087 289.942L198.856 293.302L203.323 290.686L197.584 287.326Z" fill="#7F7F7F"/>
<path d="M129.033 184.774L119.772 179.422L113.973 182.812L123.204 188.164L129.033 184.774Z" fill="#7F7F7F"/>
<path d="M121.577 189.116L112.316 183.764L103.47 188.907L112.731 194.289L121.577 189.116Z" fill="#7F7F7F"/>
<path d="M120.66 200.86L101.784 189.889L93.4406 194.735L112.316 205.707L120.66 200.86Z" fill="#7F7F7F"/>
<path d="M154.21 206.183L160.039 202.793L150.778 197.441L144.979 200.831L154.21 206.183Z" fill="#7F7F7F"/>
<path d="M124.181 200.95L133.441 206.331L142.287 201.188L133.027 195.806L124.181 200.95Z" fill="#7F7F7F"/>
<path d="M122.938 211.892L131.252 207.015L122.879 202.169L114.565 207.015L122.938 211.892Z" fill="#7F7F7F"/>
<path d="M164.595 212.219L170.424 208.829L161.163 203.477L155.364 206.867L164.595 212.219Z" fill="#7F7F7F"/>
<path d="M134.595 206.986L143.855 212.367L152.702 207.223L143.441 201.842L134.595 206.986Z" fill="#7F7F7F"/>
<path d="M112.731 208.086L91.6358 195.806L83.2925 200.682L104.387 212.932L112.731 208.086Z" fill="#7F7F7F"/>
<path d="M144.802 212.932L154.063 218.314L162.909 213.17L153.648 207.788L144.802 212.932Z" fill="#7F7F7F"/>
<path d="M106.133 213.943L114.506 218.82L122.849 213.973L114.476 209.097L106.133 213.943Z" fill="#7F7F7F"/>
<path d="M185.246 224.231L191.075 220.841L181.844 215.489L176.016 218.879L185.246 224.231Z" fill="#7F7F7F"/>
<path d="M155.216 218.998L164.477 224.38L173.323 219.206L164.063 213.824L155.216 218.998Z" fill="#7F7F7F"/>
<path d="M81.961 214.359L72.5231 219.86L82.1681 225.48L91.6357 219.979L81.961 214.359Z" fill="#7F7F7F"/>
<path d="M108.234 227.115L116.577 222.269L107.819 217.154L99.4761 222.031L108.234 227.115Z" fill="#7F7F7F"/>
<path d="M93.0855 220.841L83.6475 226.342L93.3221 231.962L102.76 226.461L93.0855 220.841Z" fill="#7F7F7F"/>
<path d="M151.844 230.802L143.471 225.956L135.127 230.802L143.53 235.679L151.844 230.802Z" fill="#7F7F7F"/>
<path d="M205.927 236.273L211.756 232.854L202.495 227.502L196.696 230.891L205.927 236.273Z" fill="#7F7F7F"/>
<path d="M176.016 231.07L185.276 236.452L194.093 231.308L184.862 225.926L176.016 231.07Z" fill="#7F7F7F"/>
<path d="M104.151 227.264L94.7126 232.765L104.387 238.384L113.825 232.884L104.151 227.264Z" fill="#7F7F7F"/>
<path d="M161.873 234.519L170.246 239.395L178.589 234.549L170.217 229.672L161.873 234.519Z" fill="#7F7F7F"/>
<path d="M216.282 242.279L222.111 238.89L212.85 233.508L207.051 236.898L216.282 242.279Z" fill="#7F7F7F"/>
<path d="M145.542 239.098L136.814 234.013L128.471 238.86L137.228 243.945L145.542 239.098Z" fill="#7F7F7F"/>
<path d="M171.193 242.071L162.82 237.195L154.477 242.042L162.85 246.918L171.193 242.071Z" fill="#7F7F7F"/>
<path d="M196.785 243.142L206.045 248.524L214.892 243.38L205.631 237.998L196.785 243.142Z" fill="#7F7F7F"/>
<path d="M155.128 244.658L146.4 239.574L138.056 244.45L146.814 249.534L155.128 244.658Z" fill="#7F7F7F"/>
<path d="M180.897 245.58L189.3 250.456L197.613 245.61L189.241 240.733L180.897 245.58Z" fill="#7F7F7F"/>
<path d="M180.986 247.75L172.613 242.874L164.27 247.75L172.643 252.597L180.986 247.75Z" fill="#7F7F7F"/>
<path d="M215.838 243.915L206.992 249.088L216.253 254.47L225.099 249.297L215.838 243.915Z" fill="#7F7F7F"/>
<path d="M164.802 250.278L156.045 245.193L147.702 250.07L156.459 255.154L164.802 250.278Z" fill="#7F7F7F"/>
<path d="M190.661 253.37L182.288 248.494L173.944 253.37L182.347 258.246L190.661 253.37Z" fill="#7F7F7F"/>
<path d="M247.348 260.328L253.176 256.938L243.916 251.586L238.117 254.976L247.348 260.328Z" fill="#7F7F7F"/>
<path d="M226.253 249.98L217.406 255.124L226.667 260.506L235.513 255.362L226.253 249.98Z" fill="#7F7F7F"/>
<path d="M174.388 255.868L165.631 250.783L157.287 255.63L166.045 260.714L174.388 255.868Z" fill="#7F7F7F"/>
<path d="M254.271 257.592L248.442 260.982L257.673 266.334L263.502 262.944L254.271 257.592Z" fill="#7F7F7F"/>
<path d="M184.033 261.487L175.305 256.403L166.962 261.25L175.72 266.334L184.033 261.487Z" fill="#7F7F7F"/>
<path d="M226.371 262.32L217.998 257.444L209.655 262.32L218.057 267.167L226.371 262.32Z" fill="#7F7F7F"/>
<path d="M193.619 267.048L184.891 261.963L176.548 266.81L185.306 271.894L193.619 267.048Z" fill="#7F7F7F"/>
<path d="M227.939 261.25L247.2 272.459L256.046 267.285L236.785 256.106L227.939 261.25Z" fill="#7F7F7F"/>
<path d="M219.773 270.288L211.401 265.412L203.057 270.288L211.43 275.165L219.773 270.288Z" fill="#7F7F7F"/>
<path d="M228.797 273.44L237.17 278.287L245.513 273.44L237.14 268.564L228.797 273.44Z" fill="#7F7F7F"/>
<path d="M191.252 283.669L186.755 286.285L192.525 289.615L197.022 286.999L191.252 283.669Z" fill="#7F7F7F"/>
<path d="M197.17 278.822L216.756 290.21L225.099 285.334L205.513 273.946L197.17 278.822Z" fill="#7F7F7F"/>
<path d="M199.389 293.63L205.158 296.96L209.655 294.343L203.886 291.013L199.389 293.63Z" fill="#7F7F7F"/>
<path d="M301.638 128.459C301.668 123.345 298.088 117.101 293.65 114.544L126.843 17.582C122.405 14.9951 118.796 17.0765 118.796 22.1907L118.352 146.15C118.352 146.299 118.352 146.448 118.352 146.596V148.975C118.352 154.089 121.902 160.333 126.34 162.891L293.147 259.852C297.585 262.409 301.195 260.358 301.195 255.243L301.638 131.284C301.638 131.135 301.638 130.957 301.638 130.808V128.459Z" fill="#C1C1C1"/>
<path d="M289.064 125.01L133.914 35.0059C132.11 33.9652 129.832 35.2735 129.802 37.3846L129.477 148.797V151.086C129.477 152.067 130.009 152.989 130.838 153.465L285.987 243.499C287.792 244.539 290.07 243.231 290.1 241.12L290.425 129.708V127.418C290.455 126.407 289.922 125.515 289.064 125.01Z" fill="url(#paint0_linear)"/>
<path d="M212.761 72.9164L208.057 70.1809C207.318 69.7348 206.696 70.0917 206.696 70.9539C206.696 71.8162 207.288 72.8569 208.057 73.3029L212.761 76.0384C213.501 76.4844 214.122 76.1276 214.122 75.2653C214.122 74.403 213.501 73.3326 212.761 72.9164Z" fill="#474A52"/>
<path d="M304.035 127.061C304.064 121.947 300.485 115.703 296.047 113.146L129.24 16.1845C127.021 14.8762 124.979 14.7573 123.53 15.6195C122.849 16.0061 122.169 16.4224 121.488 16.8089V16.8386C122.908 16.1845 124.802 16.3926 126.843 17.582L293.65 114.544C298.088 117.101 301.668 123.345 301.638 128.459V130.838C301.638 130.986 301.638 131.165 301.638 131.313L301.195 255.273C301.195 257.949 300.189 259.793 298.591 260.566H298.621C299.508 260.06 300.366 259.555 301.254 259.02C302.703 258.187 303.591 256.403 303.591 253.876L304.035 129.916C304.035 129.767 304.035 129.589 304.035 129.44V127.061Z" fill="#848484"/>
<path d="M76.0439 274.511L100.334 288.634C101.133 289.11 101.163 289.853 100.334 290.329L89.476 284.026L73.1149 274.511C73.9137 274.035 75.2155 274.035 76.0439 274.511Z" fill="#B5B5B5"/>
<path d="M296.076 264.282C296.047 264.758 295.899 265.234 295.691 265.68C295.691 265.71 295.662 265.71 295.662 265.739C295.632 265.799 295.603 265.888 295.544 265.947C295.514 265.977 295.514 266.007 295.484 266.037C295.455 266.096 295.396 266.156 295.366 266.215C295.336 266.245 295.336 266.274 295.307 266.304C295.277 266.364 295.218 266.423 295.189 266.483C295.159 266.512 295.129 266.572 295.1 266.602C295.07 266.661 295.011 266.72 294.981 266.75C294.952 266.78 294.922 266.839 294.863 266.869C294.833 266.929 294.774 266.958 294.715 267.018C294.686 267.048 294.626 267.107 294.597 267.137C294.538 267.196 294.508 267.226 294.449 267.285C294.39 267.345 294.36 267.375 294.301 267.404C294.242 267.434 294.212 267.494 294.153 267.523C294.094 267.583 294.035 267.612 293.975 267.672C293.916 267.702 293.887 267.761 293.828 267.791C293.768 267.85 293.709 267.88 293.65 267.94C293.591 267.969 293.561 267.999 293.502 268.059C293.413 268.118 293.354 268.177 293.265 268.207C293.236 268.237 293.177 268.267 293.147 268.296C293.029 268.386 292.91 268.445 292.762 268.534L185.956 330.797C183.619 332.164 180.513 332.789 177.436 332.7H177.406C177.051 332.7 176.726 332.67 176.4 332.64C176.193 332.61 175.986 332.61 175.779 332.581C175.453 332.551 175.098 332.491 174.773 332.432C174.388 332.372 174.004 332.283 173.619 332.194C172.82 331.986 172.051 331.748 171.311 331.421C170.867 331.213 170.424 331.005 170.009 330.767L100.334 290.27L89.4759 283.966L89.2097 283.817L3.35064 233.954C3.17312 233.865 2.9956 233.746 2.84767 233.627C2.81809 233.597 2.75891 233.567 2.72933 233.538C2.61098 233.448 2.46305 233.359 2.34471 233.27C2.31512 233.24 2.28554 233.24 2.25595 233.211C2.10802 233.092 1.98967 232.973 1.84174 232.854C1.81216 232.824 1.78257 232.794 1.75298 232.765C1.63464 232.675 1.54588 232.556 1.45712 232.467C1.42754 232.438 1.39795 232.408 1.36836 232.378C1.25002 232.259 1.16126 232.14 1.04291 232.021C1.04291 231.992 1.01333 231.992 1.01333 231.962C0.924571 231.843 0.835814 231.724 0.776641 231.635C0.747055 231.605 0.747054 231.575 0.717468 231.546C0.539951 231.278 0.421606 231.01 0.303261 230.743C0.303261 230.713 0.273675 230.683 0.273675 230.654C0.214503 230.535 0.184916 230.416 0.15533 230.267V230.237C0.125744 230.089 0.0961592 229.97 0.066573 229.821C0.066573 229.791 0.066573 229.791 0.066573 229.762C0.0369869 229.643 0.0369873 229.494 0.0369873 229.375C0.0369873 229.345 0.0369873 229.345 0.0369873 229.316C0.0369873 229.286 0.0369873 229.256 0.0369873 229.226V232.824C0.184918 234.4 1.27961 235.916 3.35064 237.106L89.4464 287.237L100.304 293.54L169.98 334.038C170.246 334.186 170.512 334.335 170.808 334.484C170.927 334.543 171.015 334.573 171.134 334.632C171.311 334.692 171.459 334.781 171.637 334.84C171.666 334.84 171.666 334.84 171.696 334.87C172.08 335.019 172.495 335.167 172.909 335.286C172.938 335.286 172.968 335.316 173.027 335.316C173.116 335.346 173.234 335.376 173.323 335.376C173.56 335.435 173.767 335.494 174.004 335.554C174.063 335.554 174.122 335.584 174.211 335.613C174.299 335.643 174.388 335.643 174.477 335.673C174.684 335.703 174.862 335.732 175.069 335.792C175.157 335.792 175.246 335.822 175.305 335.822C175.394 335.822 175.483 335.851 175.572 335.851C175.749 335.881 175.956 335.911 176.134 335.911C176.223 335.911 176.311 335.94 176.4 335.94C176.489 335.94 176.548 335.94 176.637 335.94C176.844 335.94 177.021 335.97 177.228 335.97C177.317 335.97 177.406 335.97 177.524 336C177.584 336 177.672 336 177.731 336C177.939 336 178.175 336 178.382 336C178.471 336 178.589 336 178.678 336C178.737 336 178.797 336 178.826 336C179.092 336 179.388 335.97 179.655 335.94C179.743 335.94 179.832 335.94 179.921 335.911C179.95 335.911 179.98 335.911 180.01 335.911C180.453 335.851 180.868 335.822 181.311 335.732C181.341 335.732 181.371 335.732 181.371 335.732C181.489 335.703 181.607 335.673 181.755 335.643C181.962 335.613 182.169 335.554 182.376 335.524C182.524 335.494 182.672 335.435 182.82 335.405C183.027 335.346 183.234 335.286 183.412 335.227C183.442 335.227 183.501 335.197 183.53 335.197C183.59 335.167 183.649 335.138 183.708 335.138C184.004 335.019 184.3 334.93 184.595 334.811C184.714 334.751 184.803 334.721 184.921 334.662C185.276 334.484 185.661 334.335 185.986 334.127L292.792 271.864C292.851 271.835 292.881 271.805 292.94 271.775C293.029 271.716 293.117 271.656 293.236 271.597C293.384 271.508 293.532 271.418 293.65 271.329C293.768 271.24 293.857 271.181 293.946 271.091C294.064 271.002 294.183 270.883 294.301 270.794C294.331 270.764 294.36 270.764 294.36 270.735C294.39 270.705 294.419 270.645 294.478 270.616C294.656 270.437 294.804 270.259 294.952 270.08C294.981 270.051 295.011 270.021 295.041 269.961C295.07 269.932 295.1 269.872 295.1 269.843C295.188 269.724 295.277 269.575 295.366 269.456C295.396 269.397 295.455 269.337 295.484 269.278C295.514 269.248 295.514 269.218 295.514 269.188C295.573 269.069 295.632 268.951 295.662 268.832C295.691 268.772 295.721 268.683 295.751 268.623C295.751 268.594 295.751 268.564 295.78 268.564C295.81 268.445 295.839 268.356 295.869 268.237C295.899 268.148 295.928 268.088 295.928 267.999C295.928 267.969 295.928 267.969 295.928 267.94C295.958 267.821 295.958 267.702 295.958 267.612C295.958 267.523 295.987 267.434 295.987 267.375C295.987 267.345 295.987 267.315 295.987 267.285C296.046 266.215 296.076 265.264 296.076 264.282Z" fill="#A8A8A8"/>
<path d="M239.803 143.058C241.253 143.92 242.584 145.675 243.146 147.578L243.857 149.897C244.419 151.8 245.75 153.554 247.2 154.416L264.922 164.704C266.934 165.864 268.561 168.718 268.561 171.038L268.472 200.385C268.472 202.704 266.815 203.655 264.804 202.466L219.063 175.914C217.051 174.754 215.424 171.9 215.424 169.581L215.513 136.428C215.513 135.863 215.602 135.357 215.809 134.971L217.022 132.384C217.584 131.165 218.915 130.897 220.395 131.759L239.803 143.058Z" fill="#46B3E1"/>
<path d="M164.684 103.156C172.08 107.437 178.086 103.988 178.116 95.4545C178.146 86.9209 172.169 76.5141 164.773 72.2325C157.376 67.9508 151.37 71.3999 151.341 79.9335C151.341 88.4671 157.287 98.8739 164.684 103.156Z" fill="#57D8F9"/>
<path d="M148.116 121.352C147.554 121.025 147.08 121.293 147.08 121.947C147.08 122.601 147.554 123.404 148.116 123.731C148.678 124.058 149.151 123.791 149.151 123.137C149.151 122.482 148.708 121.68 148.116 121.352Z" fill="#57D8F9"/>
<path d="M152.258 123.761C151.696 123.434 151.222 123.701 151.222 124.356C151.222 125.01 151.696 125.813 152.258 126.14C152.82 126.467 153.293 126.199 153.293 125.545C153.293 124.891 152.85 124.088 152.258 123.761Z" fill="#57D8F9"/>
<path d="M183.501 120.223L145.838 98.3684C144.95 97.8332 144.21 98.2792 144.21 99.3199L144.181 105.623C144.181 106.664 144.92 107.943 145.808 108.448L183.471 130.302C184.359 130.838 185.098 130.392 185.098 129.351L185.128 123.047C185.128 122.007 184.418 120.728 183.501 120.223ZM184.743 129.143C184.743 129.946 184.181 130.273 183.471 129.886L145.808 108.032C145.098 107.616 144.536 106.634 144.536 105.832L144.565 99.528C144.565 98.7252 145.128 98.3981 145.838 98.8144L183.501 120.669C184.211 121.085 184.773 122.066 184.773 122.869L184.743 129.143Z" fill="#57D8F9"/>
<path d="M170.868 148.44L158.293 141.155C157.672 140.798 157.169 141.096 157.169 141.809V145.288C157.169 146.002 157.672 146.894 158.293 147.251L170.868 154.535C171.489 154.892 171.992 154.595 171.992 153.881V150.402C171.992 149.689 171.489 148.797 170.868 148.44Z" fill="#57D8F9"/>
<path d="M164.714 130.986C164.151 130.659 163.678 130.927 163.678 131.581C163.678 132.235 164.151 133.038 164.714 133.365C165.276 133.692 165.749 133.424 165.749 132.77C165.749 132.116 165.276 131.313 164.714 130.986Z" fill="#57D8F9"/>
<path d="M183.442 138.003L145.779 116.149C144.891 115.614 144.151 116.06 144.151 117.101L144.122 123.404C144.122 124.445 144.861 125.723 145.749 126.229L183.412 148.083C184.3 148.618 185.039 148.172 185.039 147.132L185.069 140.828C185.069 139.817 184.359 138.539 183.442 138.003ZM184.684 146.923C184.684 147.726 184.122 148.053 183.412 147.637L145.749 125.783C145.039 125.367 144.477 124.385 144.477 123.583L144.506 117.279C144.506 116.476 145.068 116.149 145.779 116.536L183.442 138.39C184.152 138.806 184.714 139.787 184.714 140.59L184.684 146.923Z" fill="#57D8F9"/>
<path d="M186.548 77.9413L143.027 52.6974C141.37 51.746 140.009 52.519 140.009 54.422L139.772 140.769C139.772 142.672 141.104 145.021 142.761 146.002L186.282 171.246C187.939 172.197 189.3 171.424 189.3 169.521L189.536 83.1745C189.566 81.2418 188.205 78.9226 186.548 77.9413ZM188.945 169.313C188.945 171.008 187.761 171.662 186.282 170.829L142.761 145.585C141.311 144.753 140.127 142.672 140.127 141.007L140.364 54.6599C140.364 52.965 141.548 52.2812 143.027 53.1434L186.548 78.3873C187.998 79.2199 189.181 81.3012 189.181 82.9663L188.945 169.313Z" fill="#57D8F9"/>
<path d="M156.4 126.169C155.838 125.842 155.364 126.11 155.364 126.764C155.364 127.418 155.838 128.221 156.4 128.548C156.962 128.875 157.435 128.608 157.435 127.953C157.435 127.299 156.992 126.496 156.4 126.169Z" fill="#57D8F9"/>
<path d="M160.542 128.578C159.98 128.251 159.506 128.518 159.506 129.172C159.506 129.827 159.98 130.629 160.542 130.956C161.104 131.284 161.577 131.016 161.577 130.362C161.577 129.708 161.134 128.905 160.542 128.578Z" fill="#57D8F9"/>
<path d="M108.056 197.649C100.955 201.812 89.3873 201.812 82.2274 197.649L33.2327 169.224C29.6232 167.142 27.8481 164.407 27.8481 161.642L27.6705 228.245C27.6705 230.981 29.4753 233.716 33.0552 235.827L82.0499 264.253C89.2097 268.415 100.748 268.415 107.879 264.253C111.399 262.201 113.175 259.495 113.175 256.789L113.352 190.186C113.352 192.892 111.577 195.598 108.056 197.649Z" fill="#236DE0"/>
<path d="M107.967 182.634C115.127 186.796 115.157 193.516 108.056 197.649C100.955 201.812 89.3873 201.812 82.2274 197.649L33.2327 169.224C26.0729 165.061 26.0433 158.341 33.144 154.208C40.2447 150.046 51.8128 150.046 58.9727 154.208L107.967 182.634Z" fill="#4498F3"/>
<path d="M100.068 163.218C100.127 146.745 88.5588 126.615 74.2983 118.349C67.1088 114.187 60.5999 113.8 55.8957 116.565L48.7358 120.758C48.7654 120.758 48.7654 120.728 48.795 120.728C44.1204 123.434 41.221 129.202 41.1914 137.409L41.1322 162.623C41.1322 162.623 41.1322 162.623 41.1322 162.653V162.772C41.1914 163.723 41.8423 164.645 43.0849 165.358C45.6589 166.845 49.8601 166.845 52.4341 165.358C53.6767 164.645 54.298 163.723 54.3572 162.772V162.682C54.3572 162.653 54.3572 162.623 54.3572 162.623L54.4164 136.755C54.4164 136.725 54.4164 136.665 54.4164 136.636C54.4756 130.243 61.3691 126.288 66.9017 129.41C66.9905 129.47 67.0497 129.5 67.1384 129.559C78.0557 135.892 86.9316 151.324 86.8724 163.931L86.8132 189.294C86.8428 190.275 87.4937 191.227 88.7659 191.97C91.3399 193.457 95.5411 193.457 98.1151 191.97C99.4169 191.227 100.038 190.216 100.038 189.235L100.068 163.218Z" fill="#002593"/>
<path d="M60.7183 199.374C64.6533 201.663 67.819 207.194 67.819 211.743C67.819 214.27 66.8131 215.965 65.245 216.56L66.6947 240.674L54.5052 233.597L56.1029 211.267C54.5348 208.859 53.5585 206.004 53.5585 203.477C53.5585 198.898 56.7834 197.084 60.7183 199.374Z" fill="#002593"/>
<path d="M221.134 190.959C221.134 190.959 233.886 216.054 270.839 237.492L270.78 258.246L270.75 272.459C270.662 303.947 257.703 326.247 235.602 331.926C230.898 333.146 225.927 333.621 220.72 332.967C215.543 327.615 210.572 321.371 205.898 314.711C183.885 283.431 171.104 246.204 171.193 214.716L171.223 200.504L171.282 179.75C208.294 201.188 221.134 190.959 221.134 190.959Z" fill="#1650B9"/>
<path d="M229.27 186.231L228.146 186.886C224.299 188.759 210.216 192.862 179.476 174.992L171.37 179.72C204.181 198.779 217.998 192.832 220.69 191.256L221.193 190.959C221.637 191.821 234.595 216.411 270.898 237.463L279.004 232.735C242.022 211.297 229.27 186.231 229.27 186.231Z" fill="#4499F3"/>
<path d="M270.869 237.492L270.809 258.246L270.78 272.459C270.721 298.654 261.727 318.487 245.987 327.675L254.093 322.947C269.833 313.759 278.827 293.897 278.887 267.731L278.916 253.519L278.975 232.765L270.869 237.492Z" fill="#2037AF"/>
<path d="M221.134 205.648C221.134 205.648 231.43 225.896 261.253 243.201L261.194 259.941L261.164 271.418C261.105 296.811 250.632 314.83 232.791 319.409C229.004 320.39 224.981 320.776 220.779 320.241C216.608 315.93 212.584 310.875 208.826 305.523C191.075 280.279 180.749 250.218 180.808 224.826L180.838 213.349L180.897 196.608C210.75 213.884 221.134 205.648 221.134 205.648Z" fill="#0A30A4"/>
<path d="M232.791 319.409C250.632 314.83 261.076 296.811 261.164 271.418L261.194 259.941L261.253 243.201C231.43 225.896 221.134 205.648 221.134 205.648C221.134 205.648 221.016 205.737 220.809 205.856V320.241C224.98 320.776 229.004 320.39 232.791 319.409Z" fill="url(#paint1_linear)"/>
<path d="M164.063 49.1591L83.2924 2.29885C81.103 1.0203 79.3278 2.06098 79.3278 4.58834L79.2687 24.8667C79.2687 27.3941 81.0438 30.4864 83.2332 31.7352L164.003 78.5955C166.193 79.874 167.968 78.8334 167.998 76.306L168.057 56.0276C168.027 53.53 166.252 50.4377 164.063 49.1591Z" fill="#6586CC"/>
<path d="M165.364 48.4158L84.5942 1.55551C83.4995 0.90137 82.4935 0.8419 81.7835 1.28791L80.4817 2.06098C81.1918 1.64471 82.1977 1.70418 83.2924 2.32858L164.063 49.1889C166.252 50.4674 168.027 53.53 168.027 56.0574L167.968 76.3357C167.968 77.5846 167.524 78.4766 166.814 78.8928L168.116 78.1198C168.826 77.7035 169.27 76.8115 169.27 75.5627L169.329 55.2843C169.329 52.7569 167.554 49.6646 165.364 48.4158Z" fill="#B1D5EC"/>
<path d="M100.837 17.3738C102.198 18.1469 103.293 20.0796 103.293 21.6257L103.263 35.66C103.263 37.2359 102.168 37.8603 100.807 37.0575L86.8723 28.97C85.5113 28.1969 84.4166 26.2642 84.4166 24.718L84.4462 10.6837C84.4462 9.10786 85.5409 8.48346 86.9019 9.28626L100.837 17.3738Z" fill="#4C74C2"/>
<path d="M161.222 68.3374C162.139 68.8726 162.85 70.1511 162.85 71.1918C162.85 72.2325 162.11 72.6487 161.193 72.1433L108.204 41.3689C107.287 40.8337 106.577 39.5552 106.577 38.5145C106.577 37.4738 107.316 37.0575 108.233 37.563L161.222 68.3374Z" fill="#B1D5EC"/>
<path d="M161.252 60.3687C162.169 60.904 162.879 62.1825 162.879 63.2232C162.879 64.2639 162.14 64.6801 161.222 64.1747L108.234 33.43C107.316 32.8948 106.606 31.6163 106.606 30.5756C106.606 29.5349 107.346 29.1186 108.263 29.6241L161.252 60.3687Z" fill="#B1D5EC"/>
<path d="M161.252 52.4299C162.169 52.9651 162.879 54.2436 162.879 55.2843C162.879 56.325 162.14 56.7412 161.222 56.2358L108.234 25.4614C107.316 24.9262 106.606 23.6476 106.606 22.607C106.606 21.5663 107.346 21.15 108.263 21.6555L161.252 52.4299Z" fill="#B1D5EC"/>
<path d="M101.251 36.671L87.3161 28.5834C85.9551 27.8103 84.8604 25.8777 84.8604 24.3315L84.89 10.2972C84.89 9.76199 85.0083 9.34572 85.245 9.04839C84.7421 9.28626 84.4462 9.8512 84.4462 10.6837L84.4166 24.718C84.4166 26.2939 85.5113 28.1969 86.8723 28.97L100.807 37.0575C101.695 37.5927 102.494 37.4738 102.938 36.8791C102.464 37.0873 101.872 37.0575 101.251 36.671Z" fill="#B1D5EC"/>
<path d="M355.988 91.6783L234.951 21.4474C231.904 19.6931 229.448 21.0906 229.419 24.5991L229.182 111.243C229.182 114.752 231.638 119.033 234.655 120.788L355.692 191.019C358.74 192.773 361.195 191.375 361.225 187.867L361.462 101.223C361.491 97.7143 359.035 93.4624 355.988 91.6783Z" fill="#6586CC"/>
<path d="M363 100.361C363 96.852 360.544 92.5704 357.527 90.8161L236.46 20.5851C234.922 19.6931 233.531 19.6039 232.555 20.1985L231.046 21.0906C232.052 20.4959 233.442 20.5851 234.951 21.4771L355.988 91.7081C359.035 93.4624 361.491 97.744 361.462 101.253L361.225 187.897L361.728 187.599L361.225 187.897C361.225 189.651 360.604 190.87 359.627 191.435L361.136 190.543C362.112 189.978 362.734 188.729 362.734 187.005L363 100.361Z" fill="#B1D5EC"/>
<path d="M243.442 96.7628C243.206 96.6141 243.087 96.7033 243.087 96.9709V101.52C243.087 101.907 242.91 101.847 242.614 101.669L242.229 101.461C241.815 101.223 241.726 101.044 241.756 100.598V99.5578C241.756 99.2902 241.667 99.1118 241.401 98.9631C241.164 98.8144 241.046 98.9036 241.046 99.1712V100.331C241.046 100.658 241.075 100.896 241.253 101.253C241.49 101.788 241.815 102.055 242.2 102.264L242.584 102.501C242.999 102.739 243.354 102.799 243.59 102.501C243.709 102.293 243.709 102.115 243.709 101.818V97.3872C243.797 97.0899 243.679 96.9115 243.442 96.7628Z" fill="#B1D5EC"/>
<path d="M248.206 100.182C248.028 99.7064 247.762 99.2604 247.377 99.0523C246.993 98.8144 246.697 98.9334 246.549 99.2307L245.868 100.42C245.75 100.658 245.691 100.866 245.691 101.193C245.691 101.58 245.78 101.877 245.928 102.264L246.549 104.077C246.726 104.553 246.993 104.999 247.377 105.237C247.762 105.475 248.058 105.356 248.206 105.058L248.857 103.958C249.005 103.72 249.093 103.512 249.093 103.156C249.093 102.828 249.034 102.561 248.916 102.174L248.206 100.182ZM248.265 103.185L247.614 104.315C247.555 104.404 247.525 104.494 247.377 104.404C247.229 104.315 247.2 104.166 247.141 104.018L246.49 102.115C246.401 101.907 246.371 101.728 246.371 101.52C246.371 101.253 246.431 101.134 246.519 100.955L247.141 99.8848C247.2 99.7956 247.229 99.7064 247.377 99.7956C247.525 99.8848 247.555 100.004 247.614 100.182L248.235 101.966C248.324 102.264 248.383 102.442 248.383 102.71C248.383 102.947 248.354 103.066 248.265 103.185Z" fill="#B1D5EC"/>
<path d="M245.011 91.0242C244.685 90.8161 244.567 90.9945 244.567 91.2918V93.4029L243.679 92.8974L243.709 85.8208L241.46 84.5125C241.224 84.3638 241.016 84.3936 241.016 84.7801C241.016 85.1667 241.224 85.4343 241.46 85.5532L242.792 86.3263L242.762 92.3622L241.431 91.5891C241.194 91.4405 240.987 91.4702 240.987 91.8567C240.987 92.2433 241.194 92.5109 241.431 92.6298L244.981 94.7112C245.218 94.8598 245.425 94.8301 245.425 94.4436V91.7973C245.484 91.5297 245.366 91.2323 245.011 91.0242Z" fill="#B1D5EC"/>
<path d="M253.679 102.71C253.443 102.561 253.324 102.65 253.324 102.918V105.207L251.312 104.048V101.758C251.312 101.49 251.224 101.312 250.957 101.163C250.721 101.015 250.602 101.104 250.602 101.371L250.573 106.753C250.573 107.021 250.662 107.199 250.928 107.348C251.164 107.497 251.283 107.407 251.283 107.14V104.85L253.295 106.01V108.299C253.295 108.567 253.383 108.745 253.65 108.894C253.886 109.043 254.005 108.954 254.005 108.686L254.034 103.304C254.034 103.037 253.946 102.858 253.679 102.71Z" fill="#B1D5EC"/>
<path d="M258.65 105.594C258.413 105.445 258.295 105.534 258.295 105.802L258.265 110.202L256.49 104.345L255.573 103.81L255.543 109.578C255.543 109.846 255.632 110.024 255.898 110.173C256.135 110.321 256.253 110.232 256.253 109.965L256.283 105.623L258.058 111.422L258.975 111.957L259.005 106.188C258.975 105.921 258.886 105.742 258.65 105.594Z" fill="#B1D5EC"/>
<path d="M268.058 111.838C267.821 111.154 267.555 110.767 267.023 110.44L265.869 109.786C265.662 109.667 265.455 109.667 265.455 109.965C265.455 110.262 265.632 110.47 265.869 110.619L266.135 110.767V115.346L265.81 115.168C265.632 115.079 265.455 115.079 265.455 115.376C265.455 115.673 265.632 115.882 265.81 115.971L266.963 116.625C267.496 116.922 267.821 116.922 268.058 116.506L268.679 115.436C268.798 115.227 268.887 114.99 268.887 114.692C268.887 114.335 268.827 114.068 268.679 113.652L268.058 111.838ZM268.058 114.692L267.437 115.763C267.319 115.971 267.23 115.971 266.963 115.822L266.845 115.733V111.154L266.934 111.213L266.963 111.243C267.259 111.392 267.319 111.451 267.437 111.867L267.999 113.533C268.088 113.83 268.177 114.008 268.177 114.276C268.177 114.425 268.117 114.544 268.058 114.692Z" fill="#B1D5EC"/>
<path d="M258.502 101.49V99.4983C258.502 99.082 258.443 98.7252 258.147 98.2792C258.443 98.1603 258.502 97.8927 258.502 97.4764V95.4843C258.502 94.8896 258.117 94.2057 257.614 93.9084L254.508 92.0946C254.271 91.946 254.064 91.9757 254.064 92.3622C254.064 92.7488 254.271 93.0164 254.508 93.1353L257.614 94.9491V96.6736C257.614 97.2683 257.407 97.3277 257.17 97.1791L255.395 96.1384C255.159 95.9897 254.951 96.0195 254.951 96.406C254.951 96.7925 255.159 97.0601 255.395 97.1791L257.17 98.2197C257.437 98.3684 257.614 98.6658 257.614 99.2307V100.955L254.508 99.1415C254.271 98.9928 254.064 99.0226 254.064 99.4091C254.064 99.7956 254.271 100.063 254.508 100.182L257.614 101.996C258.088 102.323 258.502 102.085 258.502 101.49Z" fill="#B1D5EC"/>
<path d="M272.97 114.544C272.792 114.068 272.526 113.622 272.141 113.414C271.756 113.206 271.461 113.295 271.313 113.592L270.632 114.781C270.514 115.019 270.455 115.227 270.455 115.554C270.455 115.941 270.543 116.238 270.691 116.625L271.313 118.439C271.49 118.914 271.756 119.36 272.141 119.598C272.555 119.836 272.822 119.717 272.97 119.42L273.62 118.32C273.768 118.082 273.857 117.874 273.857 117.517C273.857 117.19 273.798 116.922 273.68 116.536L272.97 114.544ZM273.029 117.547L272.378 118.677C272.319 118.766 272.289 118.855 272.141 118.766C271.993 118.677 271.964 118.528 271.904 118.379L271.253 116.476C271.165 116.268 271.135 116.09 271.135 115.882C271.135 115.614 271.194 115.495 271.283 115.317L271.904 114.246C271.964 114.157 271.993 114.068 272.141 114.157C272.289 114.246 272.319 114.365 272.378 114.544L272.999 116.328C273.088 116.625 273.147 116.803 273.147 117.071C273.117 117.309 273.088 117.428 273.029 117.547Z" fill="#B1D5EC"/>
<path d="M278.443 117.844C278.62 117.963 278.798 117.933 278.798 117.636C278.798 117.339 278.62 117.13 278.443 117.041L275.396 115.257L275.366 121.442L278.413 123.226C278.591 123.315 278.768 123.315 278.768 123.018C278.768 122.72 278.591 122.512 278.413 122.423L276.046 121.055V119.152L277.052 119.747C277.23 119.866 277.407 119.836 277.407 119.539C277.407 119.241 277.23 119.033 277.052 118.944L276.046 118.349V116.446L278.443 117.844Z" fill="#B1D5EC"/>
<path d="M271.076 109.31V107.17C271.313 107.318 271.52 107.289 271.52 106.902C271.52 106.515 271.313 106.248 271.076 106.129V103.096C271.076 102.828 270.958 102.501 270.632 102.323C270.277 102.115 270.188 102.323 270.188 102.591V105.623L268.443 104.613V100.717C268.443 100.45 268.324 100.123 267.999 99.9443C267.644 99.7362 267.555 99.9443 267.555 100.212V105.177L270.218 106.724V108.864C270.218 109.191 270.336 109.459 270.662 109.637C270.928 109.756 271.076 109.637 271.076 109.31Z" fill="#B1D5EC"/>
<path d="M277.822 113.384C277.999 113.235 278.029 113.027 278.029 112.7V110.47C278.029 110.113 277.999 109.846 277.763 109.429C277.555 109.073 277.319 108.894 277.052 108.716L275.396 107.764V105.267L277.615 106.545C277.851 106.694 278.058 106.664 278.058 106.278C278.058 105.891 277.851 105.623 277.615 105.505L274.478 103.691V108.27L277.141 109.816V112.314L275.041 111.094C274.893 111.005 274.686 110.738 274.567 110.619L274.301 110.321C274.212 110.202 274.123 110.143 274.005 110.084C273.768 109.935 273.561 110.083 273.561 110.351C273.561 110.708 273.828 110.976 274.064 111.243L274.419 111.63C274.656 111.868 274.774 112.016 275.011 112.165L277.023 113.324C277.348 113.473 277.585 113.592 277.822 113.384Z" fill="#B1D5EC"/>
<path d="M284.005 113.652L280.987 111.897V108.508C281.254 108.656 281.431 108.567 281.431 108.24C281.431 107.972 281.254 107.616 281.017 107.467L280.484 107.14C280.159 106.961 280.1 107.199 280.1 107.437L280.07 114.395C280.07 114.871 280.218 115.138 280.662 115.406L283.946 117.309C284.36 117.547 284.538 117.487 284.538 116.982V114.633C284.567 114.187 284.479 113.919 284.005 113.652ZM283.65 116.09L280.987 114.544V112.938L283.65 114.484V116.09Z" fill="#B1D5EC"/>
<path d="M293.118 115.019V115.554C293.118 115.792 293.266 116.179 293.561 116.328C293.857 116.506 294.005 116.298 294.005 116.06L296.668 117.606V119.033C296.668 119.479 296.698 119.479 296.372 119.628L295.13 120.133C294.893 120.223 294.893 120.252 294.893 120.609V123.137C294.893 123.464 295.011 123.731 295.337 123.91C295.662 124.088 295.78 123.969 295.78 123.642V121.62C295.78 121.263 295.81 121.234 296.047 121.144L297.319 120.609C297.585 120.49 297.556 120.461 297.556 120.104V117.071L293.532 114.752C293.295 114.603 293.118 114.781 293.118 115.019Z" fill="#B1D5EC"/>
<path d="M303.207 123.88V120.847C303.207 120.579 303.059 120.252 302.763 120.074L301.017 119.063C300.721 118.885 300.573 119.063 300.573 119.331V122.363C300.307 122.215 300.07 122.185 299.922 122.274C299.745 122.363 299.686 122.572 299.686 122.899V125.396C299.686 126.021 300.041 126.645 300.573 126.972L303.236 128.518C303.798 128.845 304.153 128.637 304.153 127.983V125.486C304.153 125.158 304.065 124.861 303.917 124.594C303.71 124.296 303.473 124.058 303.207 123.88ZM301.461 120.371L302.319 120.877V123.374L301.461 122.869V120.371ZM303.177 127.418L300.514 125.872V123.374L303.177 124.921V127.418Z" fill="#B1D5EC"/>
<path d="M310.189 124.385L306.639 122.304C306.372 122.155 306.195 122.304 306.195 122.572V125.248C306.195 125.515 306.402 125.872 306.639 126.021L309.745 127.834V131.194C309.479 131.046 309.301 131.135 309.301 131.462C309.301 131.73 309.479 132.086 309.745 132.235L310.189 132.503C310.455 132.651 310.633 132.532 310.633 132.235L310.662 125.158C310.633 124.891 310.426 124.534 310.189 124.385ZM309.716 126.794L307.053 125.248V123.612L309.716 125.158V126.794Z" fill="#B1D5EC"/>
<path d="M316.225 127.894L313.562 126.348C313.059 126.05 312.645 126.288 312.645 126.853L312.615 132.889C312.615 133.484 313 134.168 313.503 134.465L316.165 136.011C316.668 136.309 317.083 136.071 317.083 135.506L317.112 129.47C317.142 128.905 316.728 128.191 316.225 127.894ZM316.225 134.971L313.562 133.424L313.591 127.388L316.254 128.935L316.225 134.971Z" fill="#B1D5EC"/>
<path d="M251.963 98.2495C251.963 97.8629 251.756 97.5953 251.519 97.4764L248.413 95.6626V93.165L250.957 94.6517C251.253 94.8301 251.46 94.8896 251.697 94.7706C251.963 94.6517 251.993 94.3841 251.993 93.9976V91.8567C251.993 91.4702 251.963 91.1729 251.727 90.7566C251.49 90.3998 251.283 90.2214 250.987 90.043L247.969 88.2887C247.732 88.14 247.525 88.1698 247.525 88.5563C247.525 88.9428 247.732 89.2104 247.969 89.3294L251.076 91.1431V93.6408L248.531 92.1541C247.851 91.7675 247.496 91.9459 247.496 92.7487V96.1681L251.519 98.4874C251.756 98.636 251.963 98.6063 251.963 98.2495Z" fill="#B1D5EC"/>
<path d="M330.514 145.794C332.674 147.042 334.686 149.094 336.224 151.443C334.272 152.157 333.029 154.208 333 157.301C333 160.393 334.213 163.901 336.165 166.875C334.627 167.44 332.615 167.172 330.455 165.894C325.544 163.039 321.579 156.23 321.579 150.67C321.609 145.11 325.603 142.939 330.514 145.794Z" fill="#B1D5EC"/>
<path d="M341.935 152.395C346.846 155.249 350.811 162.058 350.811 167.618C350.781 173.178 346.787 175.349 341.876 172.494C339.716 171.246 337.704 169.194 336.166 166.845C334.213 163.872 332.97 160.363 333 157.271C333 154.179 334.272 152.127 336.225 151.413C337.763 150.878 339.775 151.146 341.935 152.395Z" fill="#4C74C2"/>
<path d="M262.437 64.8586C264.685 66.1669 266.49 69.2889 266.46 71.8757L266.431 86.5344C266.431 89.1213 264.597 90.162 262.378 88.8537L243.62 77.9711C241.371 76.6629 239.567 73.5408 239.596 70.954L239.626 56.2953C239.626 53.7084 241.46 52.6677 243.679 53.976L262.437 64.8586Z" fill="#B1D5EC"/>
<path d="M324.538 92.3325L328.414 94.5922L328.739 93.1056L326.609 91.8567L326.846 90.6079L328.828 91.7378L329.154 90.3106L327.171 89.151L327.408 88.0805L329.538 89.3294L329.834 87.8427L325.958 85.6126L324.538 92.3325Z" fill="#4C74C2"/>
<path d="M332.734 95.5437C332.408 95.3653 332.172 95.0977 332.024 94.7707C331.846 94.4436 331.787 94.057 331.787 93.5813C331.787 93.0164 331.876 92.5704 332.024 92.1838C332.172 91.7973 332.379 91.5594 332.645 91.4405C332.911 91.3215 333.207 91.3513 333.503 91.5297C333.74 91.6784 334.006 91.8568 334.213 92.0946C334.45 92.3325 334.686 92.6001 334.982 92.9569L335.663 91.7676C335.012 90.935 334.302 90.3106 333.503 89.8349C332.822 89.4483 332.231 89.2997 331.728 89.3889C331.195 89.4781 330.781 89.8051 330.485 90.3998C330.189 90.9945 330.041 91.7378 330.012 92.6596C330.012 93.5813 330.219 94.4436 330.633 95.1869C331.047 95.9303 331.639 96.5547 332.408 97.0007C333.118 97.4169 333.769 97.6251 334.361 97.6845V96.0195C334.006 95.9897 333.71 95.9303 333.473 95.8708C333.237 95.7816 333 95.6627 332.734 95.5437Z" fill="#4C74C2"/>
<path d="M338.089 92.6595L334.745 98.2792L336.55 99.3199L337.112 98.2198L339.124 99.3794L339.154 100.807L340.87 101.788L340.337 93.9381L338.089 92.6595ZM337.763 97.0007L338.739 95.0977C338.858 94.8896 338.947 94.6517 339.006 94.4138C339.006 94.5922 338.976 94.8301 338.976 95.068V95.514L339.035 97.744L337.763 97.0007Z" fill="#4C74C2"/>
<path d="M347.083 99.9443C347.083 99.2604 346.876 98.6063 346.491 98.0414C346.106 97.4764 345.515 96.9709 344.775 96.5249L343.059 95.514L341.668 102.264L343.414 103.274L343.917 100.836L344.242 101.015L345.1 104.256L346.994 105.356L346.816 104.761L345.81 101.52C346.225 101.55 346.55 101.431 346.757 101.163C346.964 100.866 347.083 100.48 347.083 99.9443ZM345.071 99.6767C344.893 99.7659 344.686 99.7362 344.39 99.5578L344.154 99.4388L344.479 97.8927L344.716 98.0414C344.923 98.1603 345.071 98.309 345.16 98.4576C345.248 98.636 345.308 98.8144 345.308 99.0226C345.337 99.3794 345.248 99.5875 345.071 99.6767Z" fill="#4C74C2"/>
<path d="M352.734 101.907C352.29 101.134 351.639 100.539 350.84 100.063L348.976 98.9928L347.586 105.742L349.686 106.961C350.456 107.407 351.106 107.616 351.669 107.556C352.231 107.497 352.675 107.229 352.97 106.694C353.266 106.159 353.414 105.415 353.414 104.434C353.414 103.483 353.178 102.65 352.734 101.907ZM351.432 104.88C351.284 105.237 351.077 105.475 350.84 105.564C350.574 105.653 350.278 105.594 349.953 105.415L349.657 105.237L350.426 101.461L350.751 101.639C351.047 101.818 351.254 102.055 351.432 102.353C351.58 102.68 351.669 103.037 351.669 103.483C351.639 104.048 351.58 104.523 351.432 104.88Z" fill="#4C74C2"/>
</g>
<defs>
<filter id="filter0_d" x="0" y="0" width="381" height="351" filterUnits="userSpaceOnUse" color-interpolation-filters="sRGB">
<feFlood flood-opacity="0" result="BackgroundImageFix"/>
<feColorMatrix in="SourceAlpha" type="matrix" values="0 0 0 0 0 0 0 0 0 0 0 0 0 0 0 0 0 0 127 0"/>
<feOffset dx="10" dy="7"/>
<feGaussianBlur stdDeviation="4"/>
<feColorMatrix type="matrix" values="0 0 0 0 0 0 0 0 0 0 0 0 0 0 0 0 0 0 0.1 0"/>
<feBlend mode="normal" in2="BackgroundImageFix" result="effect1_dropShadow"/>
<feBlend mode="normal" in="SourceGraphic" in2="effect1_dropShadow" result="shape"/>
</filter>
<linearGradient id="paint0_linear" x1="285.044" y1="115.142" x2="100.527" y2="173.787" gradientUnits="userSpaceOnUse">
<stop stop-color="#062CA0"/>
<stop offset="1" stop-color="#2674D2"/>
</linearGradient>
<linearGradient id="paint1_linear" x1="214.736" y1="367.337" x2="242.65" y2="236.269" gradientUnits="userSpaceOnUse">
<stop stop-color="#061D61"/>
<stop offset="0.9949" stop-color="#0A30A4"/>
</linearGradient>
</defs>
</svg>
