<svg xmlns="http://www.w3.org/2000/svg" viewBox="0 0 30.57 30.58"><defs><style>.a{fill:#fff;}.b{fill:#4c52a3;}</style></defs><title>icon6</title><path class="a" d="M31.13,1c.21,0,.25,0,.25.26V31.31c0,.22,0,.26-.25.26q-15,0-30.06,0c-.22,0-.26,0-.26-.26Q.83,18.67.82,6c.19.05.14.21.14.33a11.75,11.75,0,0,0,.22,2.37,20,20,0,0,0,.71,3.21,11.62,11.62,0,0,0,1.73,3.49,6.08,6.08,0,0,0,1.17,1.26,2.16,2.16,0,0,1,.63,1,27.58,27.58,0,0,0,2.35,4.55A11.69,11.69,0,0,0,9,23.82a5.3,5.3,0,0,0,2.3,1.57,3.29,3.29,0,0,0,1.43.06c.39,0,.43,0,.59.35.55,1.21,1,2.45,1.57,3.65.25.57.46,1.15.73,1.7.16.3.25.32.43,0,.3-.44.57-.9.87-1.34a24.58,24.58,0,0,0,1.85-4.2.31.31,0,0,1,.41-.22,6.11,6.11,0,0,0,1,.06,3.51,3.51,0,0,0,2.21-1,11,11,0,0,0,2.44-3,34.36,34.36,0,0,0,2-4.13,2.4,2.4,0,0,1,.53-.73,9.14,9.14,0,0,0,2.51-3.73c.23-.64.43-1.29.65-1.94A9.75,9.75,0,0,0,30.89,9c.07-.54.21-1.08.24-1.64,0-1,.11-2,.1-3a26.15,26.15,0,0,0-.17-3.06A.4.4,0,0,1,31.13,1Z" transform="translate(-0.81 -0.99)"/><path class="b" d="M31.13,1a3.56,3.56,0,0,0,.11.92,4.42,4.42,0,0,1,0,.63,23.7,23.7,0,0,1,.06,3.37,17.36,17.36,0,0,1-.17,2.28,24,24,0,0,1-.46,2.56,15.09,15.09,0,0,1-1.44,3.73,9.34,9.34,0,0,1-1.87,2.28,2.52,2.52,0,0,0-.62,1,25.51,25.51,0,0,1-1.16,2.55c-.36.67-.77,1.31-1.19,1.95a11.58,11.58,0,0,1-1.17,1.52,7.93,7.93,0,0,1-1.62,1.32,3.17,3.17,0,0,1-2.44.35c-.14,0-.23,0-.29.18a14.62,14.62,0,0,1-.58,1.56c-.23.57-.48,1.14-.71,1.71a3,3,0,0,1-.36.65,14.28,14.28,0,0,0-.82,1.3,3,3,0,0,1-.39.55c-.08.09-.22.15-.33-.05-.4-.78-.68-1.6-1-2.38-.44-.94-.76-1.94-1.24-2.86,0,0,0,0,0-.06-.26-.67-.31-.68-1-.52a2.21,2.21,0,0,1-1.21-.17,5.83,5.83,0,0,1-1-.48c-.24-.15-.45-.35-.68-.52a11.8,11.8,0,0,1-1.24-1.31A7.9,7.9,0,0,1,7.54,22a14.66,14.66,0,0,1-1.08-1.89,31.83,31.83,0,0,1-1.32-2.92c-.13-.32-.46-.49-.7-.72a9.15,9.15,0,0,1-1.55-2,14.59,14.59,0,0,1-1.49-4c-.11-.43-.1-.88-.22-1.3C1,8.49,1.07,7.81.9,7.15a3.91,3.91,0,0,1,0-1c0-.06,0-.13-.06-.16V2.82a14.91,14.91,0,0,0,.09-1.5A.62.62,0,0,1,1,1h.26a.91.91,0,0,1,.32.38c.38.68.88,1.27,1.31,1.91C3.67,4.46,4.5,5.61,5.3,6.76c.21.3.23.31.52.12a7.31,7.31,0,0,1,1.33-.62l1.08-.39c.24-.09.51,0,.74-.12a1.74,1.74,0,0,1,.68-.12,5.26,5.26,0,0,1,2.83.74,6.86,6.86,0,0,1,2.31,2.36A11.16,11.16,0,0,1,16,11.44c.19-.49.39-.92.59-1.34A11,11,0,0,1,18.3,7.44,5.12,5.12,0,0,1,20.44,6a10.14,10.14,0,0,0,1-.3,1.77,1.77,0,0,1,.65,0,4.45,4.45,0,0,1,1.66.22,11.32,11.32,0,0,1,1.86.63,7.67,7.67,0,0,1,.8.43c.14.07.21.09.3-.06s.38-.5.52-.79a3,3,0,0,1,.53-.69c.69-.74,1.14-1.65,1.75-2.44.43-.56.82-1.14,1.23-1.71A.77.77,0,0,1,30.94,1Z" transform="translate(-0.81 -0.99)"/><path class="a" d="M30.94,1c-.42.7-.93,1.32-1.39,2s-.91,1.34-1.38,2a8.32,8.32,0,0,0-.89,1.09,7.1,7.1,0,0,1-.66,1s0,.08-.09,0a10,10,0,0,0-1.79-.82,10,10,0,0,1-1.38-.38A3.46,3.46,0,0,0,22,5.72,4.36,4.36,0,0,0,20.59,6c-.45.11-.78.42-1.21.54a.31.31,0,0,0-.2.11c-.28.4-.69.68-1,1.06a12.88,12.88,0,0,0-1.63,2.68A8.77,8.77,0,0,1,16,11.64c-.12-.43-.28-.82-.42-1.21a9.93,9.93,0,0,0-.5-1A8,8,0,0,0,14.19,8a6,6,0,0,1-.58-.66c-.19-.31-.55-.42-.77-.71s-.44-.24-.67-.36a6.27,6.27,0,0,0-1.44-.49A3.55,3.55,0,0,0,9.4,5.74,9.73,9.73,0,0,0,8.12,6c-.52.14-1,.39-1.5.53a2.38,2.38,0,0,0-.89.5c-.23.21-.35,0-.42-.08C5,6.42,4.6,5.9,4.23,5.39s-.68-.95-1-1.44c-.47-.72-1-1.4-1.47-2.12A5.71,5.71,0,0,1,1.26,1Z" transform="translate(-0.81 -0.99)"/><path class="a" d="M1,1C.91,1.58,1,2.16.88,2.73c0,0,0,.08-.06.09,0-.55,0-1.11,0-1.66C.8,1,.9,1,1,1Z" transform="translate(-0.81 -0.99)"/><path class="a" d="M2.26,5.69c.56.31.69.93,1.05,1.37S4,8.12,4.43,8.63a5.75,5.75,0,0,1,.52.8.31.31,0,0,0,.46.15c.35-.3.81-.41,1.12-.75a.13.13,0,0,1,.14,0,1.82,1.82,0,0,0,.85-.34A5.59,5.59,0,0,1,8.89,8a2.9,2.9,0,0,1,1.17-.11c.12,0,.25,0,.33.1s.08,0,.11,0c.32-.13.55.09.81.17s.47.08.62.28.46.23.65.43c.38.39.71.82,1.05,1.24a7.84,7.84,0,0,1,.76,1.43,6.51,6.51,0,0,1,.49,1.47c.12.51.27,1,.38,1.54a4.76,4.76,0,0,0,.21.6.44.44,0,0,0,.36.24.76.76,0,0,0,.83-.43,7.53,7.53,0,0,0,.24-.81c.22-.71.32-1.44.6-2.14a12,12,0,0,1,1-1.85,5.06,5.06,0,0,1,1.18-1.34c.24-.19.53-.33.77-.53s.69-.22,1-.31a3.51,3.51,0,0,1,.9-.18.77.77,0,0,1,.5.16.34.34,0,0,0,.18,0,4,4,0,0,1,.74.15c.56.07,1,.44,1.5.55a.86.86,0,0,1,.39.18,2.69,2.69,0,0,0,.85.5.51.51,0,0,1,.16.13.25.25,0,0,0,.38,0c.41-.46.68-1,1-1.51.57-.77,1.11-1.56,1.7-2.38a6.08,6.08,0,0,1-.07,1.87c-.21.9-.29,1.83-.54,2.72a14.54,14.54,0,0,1-1.19,3,22.36,22.36,0,0,1-1.53,1.93c-.51.16-.49.66-.7,1s-.45.89-.65,1.34c-.41.87-.85,1.72-1.32,2.56a9.77,9.77,0,0,1-1.56,2.11,4.19,4.19,0,0,1-1.19,1c-.25.11-.45.34-.76.38a1.28,1.28,0,0,1-.86-.12.63.63,0,0,0-.29-.08c-.37,0-.56-.28-.81-.48s-.48-.79-.8-1.11-.34-.69-.6-1a4.26,4.26,0,0,1-.59-1c-.16-.31-.4-.32-.59,0-.48.72-1,1.42-1.42,2.17a5.65,5.65,0,0,1-1.15,1.33c-.07.06-.13,0-.19.05a2.12,2.12,0,0,0-.69.17.48.48,0,0,1-.45,0c-.26-.21-.6-.13-.87-.33s-.56-.38-.82-.59a4.73,4.73,0,0,1-.86-.93c-.3-.42-.63-.8-.91-1.23a11.31,11.31,0,0,0-.88-1.5,2.69,2.69,0,0,1-.23-.51c-.22-.51-.44-1-.69-1.51a14.55,14.55,0,0,0-.6-1.41,3.43,3.43,0,0,0-.78-.74c-.16-.13-.37-.24-.42-.43a.66.66,0,0,0-.37-.42.37.37,0,0,1-.26-.33,3.21,3.21,0,0,0-.5-.93,4.29,4.29,0,0,0-.19-.5A5.8,5.8,0,0,1,2.82,10a14.41,14.41,0,0,1-.39-2.29c0-.6-.15-1.19-.17-1.78Z" transform="translate(-0.81 -0.99)"/><path class="a" d="M17.53,24.67a2.1,2.1,0,0,1-.34.93,4.69,4.69,0,0,0-.43,1c-.2.49-.38,1-.57,1.47,0,.09-.08.15-.18.13s-.11-.07-.13-.15c-.16-.54-.41-1-.62-1.56s-.39-.93-.62-1.37.09-.59.26-.76a7.43,7.43,0,0,0,.81-1.2c.11-.16.14-.45.45-.41.05,0,.13,0,.14,0a5.46,5.46,0,0,0,.65,1c.15.25.34.47.51.71A.27.27,0,0,1,17.53,24.67Z" transform="translate(-0.81 -0.99)"/><path class="b" d="M25.1,10.93a11.23,11.23,0,0,1-.36,3,8.41,8.41,0,0,1-1.34,3A4.51,4.51,0,0,1,22.29,18c-.32.21-.65.41-1,.66a.3.3,0,0,1-.23.06.76.76,0,0,0-.5.13c-.19.14-.45,0-.68.05a2.14,2.14,0,0,1-.61,0,5,5,0,0,0-.77,0,1.71,1.71,0,0,1-.65-.15c-.26-.11-.21-.28-.18-.43.16-.83.19-1.68.34-2.52a13,13,0,0,1,1.52-4,3.61,3.61,0,0,1,.87-1.15,2.49,2.49,0,0,1,.34-.2c.4-.17.73-.44,1.14-.61a5.75,5.75,0,0,1,2.54-.13,3.14,3.14,0,0,1,.55.17c.14,0,.09.13.09.2C25.11,10.34,25.1,10.63,25.1,10.93Z" transform="translate(-0.81 -0.99)"/><path class="b" d="M7.66,11.06c0-.36,0-.61,0-.86s.11-.34.38-.43a8.91,8.91,0,0,1,1.34-.22,2.22,2.22,0,0,1,.66,0,4,4,0,0,1,1.34.43,5.37,5.37,0,0,1,1.34,1.13A7.49,7.49,0,0,1,13.89,13a13.16,13.16,0,0,1,.75,2.3A18.16,18.16,0,0,1,15,18.07c0,.1.05.19.06.3,0,.38,0,.44-.4.45a7.19,7.19,0,0,1-1.91,0c-.37-.09-.8,0-1.14-.3-.17-.14-.42-.13-.63-.25a5,5,0,0,1-1.24-1,7.14,7.14,0,0,1-1.59-3,10.6,10.6,0,0,1-.37-1.67A7.51,7.51,0,0,1,7.66,11.06Z" transform="translate(-0.81 -0.99)"/><path class="a" d="M20,16.69c-.64,0-.65,0-.48-.6A14.18,14.18,0,0,1,20,14.42a4.64,4.64,0,0,1,1.61-2.15c.31-.21.66-.33,1-.54.07-.05.06,0,.08,0a.56.56,0,0,0,.5,0c.25-.18.51,0,.48.29s-.12.75-.18,1.12a8,8,0,0,1-.83,2,2.81,2.81,0,0,1-1.23,1.18A2.72,2.72,0,0,1,20,16.69Z" transform="translate(-0.81 -0.99)"/><path class="a" d="M12.84,16.69c-.37.11-.67-.21-1-.3a2.42,2.42,0,0,1-1.13-.76,6.58,6.58,0,0,1-.66-.82,4.61,4.61,0,0,1-.56-1.19c-.16-.51-.25-1.06-.36-1.59,0-.22.16-.37.4-.38s.41.14.62.15a3.22,3.22,0,0,1,1.26.54,1,1,0,0,1,.4.41.85.85,0,0,0,.4.44.31.31,0,0,1,.16.21c.09.42.44.73.54,1.12A11,11,0,0,1,13.3,16c0,.05,0,.11,0,.16C13.42,16.69,13.42,16.69,12.84,16.69Z" transform="translate(-0.81 -0.99)"/></svg>