<svg version="1.0" id="Layer_1" xmlns="http://www.w3.org/2000/svg" x="0" y="0" viewBox="0 0 120 45" style="enable-background:new 0 0 120 45" xml:space="preserve"><style>.st0{fill:#0acaf7}.st4{fill:#24cff7}.st13{fill:#2b3a6b}.st43{fill:#1c3fa6}.st46{fill:#245ae4}.st47{fill:#1c3ca6}.st48{fill:#2359e4}.st49{fill:#2458e4}.st55{fill:#1b49a6}.st68{fill:#283ce4}.st72{fill:#273ae4}.st73{fill:#263de4}.st77{fill:#2f406e}.st98{fill:#2842e2}.st109{fill:#e7ebf8}.st136{fill:#3d26e4}.st142{fill:#342ae4}.st144{fill:#2e35e4}.st147{fill:#2e37e4}.st156{fill:#362de4}.st175{fill:#3526e4}</style><path class="st0" d="M14.2 30.74c-4.02-5.13-8.04-10.26-12.05-15.4-.38-.48-.65-1.05-.97-1.57v-1.65c.25-1.01.93-1.58 1.9-1.87 4.11-1.23 8.19-2.6 12.33-3.75.68-.19 1.42-.55 2.14-.04.22.4.07.76-.12 1.11-2.25 4.21-3 8.79-3.42 13.46-.2 2.24.08 4.45.3 6.67.02.23.01.47-.08.67-.42.87-.06 1.44.67 1.89.01.5-.3.56-.7.48zM24.28 4.5c2.37-.77 4.74-1.54 7.11-2.3h1.65c1.65.71 1.69 2.13 1.42 3.55-.36 1.92-.88 3.81-1.35 5.7-.81 3.26-1.63 6.52-2.46 9.78-.07.29-.11.63-.42.8-.91-.21-.72-1-.8-1.6-.3-2.21-.26-4.46-.9-6.62-.88-2.98-1.73-5.96-4-8.26-.27-.27-.5-.61-.25-1.05z"/><path d="M23.6 42.32c-.9-.68-1.73-1.42-2.36-2.37-.09-.56.34-.66.71-.72 1.56-.22 2.63-1.05 3.33-2.44.21-.41.48-.81.98-.95 1 .43 1.04.59.4 1.52-.23.86-.44 1.72-.68 2.57-.3 1.06-.89 1.9-1.91 2.38-.16.01-.31.01-.47.01z" style="fill:#13ccf7"/><path d="M50.71 5.97c4.52 0 9.04.01 13.57-.01.92-.01 1.7.1 2.23.96.32.53.78.68 1.18.04.27-.42.66-.33 1.05-.31 4.57.26 9.11-.19 13.65-.55 3.1-.24 6.21-.08 9.31-.19.32-.01.61.09.85.34.15.15.34.47.56.22.8-.91 1.84-.49 2.77-.5 6.96-.03 13.92-.01 20.88 0 1.66 0 2.39.66 2.39 2.32.02 8.96.02 17.93 0 26.89 0 1.74-.95 2.64-2.66 2.65-2.63.02-5.27.04-7.9.02-.93-.01-1.85.03-2.75-.38-.79-.36-1.55.36-2.38.35-2.16-.03-4.32-.01-6.48 0-1.26 0-2.59-.22-3.75.11-.82.24-1.16-1.91-2.15-.22-.24.41-1.71.1-2.61.11-.94.01-1.89 0-2.83 0H71.85c-.94 0-1.89-.04-2.83.02-.63.04-1.03-.11-1.28-.71-.28-.68-.66-.81-1.2-.19-.62.71-1.4.92-2.38.92-8.89-.04-17.77-.03-26.66-.04-1.96 0-2.79-.83-2.79-2.84-.01-3.18 0-6.37 0-9.55V8.8c0-2.36.48-2.84 2.81-2.84 4.38.01 8.79.01 13.19.01z" style="fill:#344a73"/><path d="M26.67 37.37c.1-.56.47-1.21-.46-1.44-.63-.27-.51-.81-.45-1.31.05-.42.21-.84 0-1.26-.24-.59-.99-.76-1.15-1.41-.04-.31.06-.56.27-.78.26-.31.74-.23 1.01-.55-.21-.45-.7-.01-.92-.34.1-.87.11-1.72-.45-2.46-.47-.44-.82-.95-.7-1.69-.74 1.51-1 3.19-2.1 4.48-.57.8-.99 1.72-1.72 2.41-.5.49-.76 1.18-1.3 1.63-.46.21-.96.36-1.05.96-.1.2-.22.38-.45.44-.25-.69-1.08-1.16-.79-2.06.67-.14.57-.84.89-1.23.13-.15.3-.21.5-.27.34-.09.29.41.58.35-.11-.42.37-.97-.29-1.29-.17-.08-.22-.31-.19-.52.07-.09.16-.14.27-.17.33-.04.76.05.62-.54-.11-.43.11-.74.38-1.04.22-.23.4-.48.55-.76.56-.26.31-.72.29-1.13.61-.41.95-.86.4-1.6-.52-.71.53-1.03.47-1.64.18-.39.33-.78.38-1.21.21-.73-.19-1.55.3-2.24-.33.45-.61.92-.96 1.36a.42.42 0 0 1-.33.01c-.6-.8-.8-1.62-.1-2.47.11-.36.14-.73.25-1.09.12-.4-.24-.26-.41-.32-.39-.07-.73-.25-1.01-.53-.75-1.51-.44-2.32 1.05-3.06.6-.3 1.37-.59.6-1.53-.52-.65.52-.46.56-.85-.06-.81.62-1.45.48-2.28.12-.17.25-.33.34-.52.2-.46.5-.96-.41-.94-.83-.45-.72-1.17-.54-1.9.97-1.16 2.24-.72 3.38-.54 1.08.17 1.14 1.15 1.2 2.04.01.2.04.39.05.59 0 .95-.25 1.75-1.27 2.06-.37.46-.12.9.08 1.32.84 1.76 1.31 3.59 1.24 5.55-.04 1.22 1.04 1.07 1.69 1.44 1.35.87 1.46 1.37.5 2.38-.34.12-.58.01-.74-.3-.13-.52-.52-.56-.96-.51-.91-.12-.95.43-.83 1.08.25 1.41.48 2.83 1.08 4.16.4 1.26.77 2.52.92 3.83.27 1.1.38 2.2.23 3.33-.04.7-.09 1.41.09 2.09.23.89.68 1.59 1.67 1.72.45.06.69.21.67.73-.02.6-.41.6-.8.54-.91-.17-2.02.47-2.61-.72z" style="fill:#024654"/><path class="st4" d="M25.48 8.81c-.23-.29-.35-.62-.26-.99.27-1.13-.4-1.52-1.33-1.59-.91-.07-1.89-.35-2.66.45-.75.39-1.48.85-2.34.99a.516.516 0 0 1-.18-.29c-.1-.87.64-1.18 1.11-1.67 1.44-.57 2.98-.81 4.47-1.21.12.87.95 1.2 1.39 1.83 1.99 2.8 2.96 6 3.56 9.32.3 1.64.34 3.32.5 4.99.05.51.12 1 .5 1.4-.2 2.18-.95 4.24-1.46 6.35-.77-.3-.5-.95-.47-1.49.34-4.99.5-9.96-1.32-14.77-.43-1.15-1.03-2.21-1.51-3.32z"/><path d="M25.48 8.81c1.05.6 1.25 1.75 1.64 2.72 1.23 3.09 1.83 6.31 1.68 9.65-.1 2.07.2 4.16-.22 6.22-.07.32-.12.71.2.99-.18 1.59-.52 3.13-1.16 4.6l-.57-3.37c.51-2.75 1.3-5.48.77-8.32.79-.98.74-1.19-.47-2.08-.32-2.18-.74-4.32-1.63-6.36-.4-.91-.84-1.77-1.63-2.4 1.04-.06 1.21-.86 1.39-1.65z" style="fill:#2ad1f8"/><path d="M17.49 35.42c-.08-.85.57-.84 1.12-.95.56.24.82.81 1.31 1.13 1.28.83 2.16.84 3.48.06 1.07-.64 1.66-1.73 2.55-2.53.5.47.28 1.01.09 1.49-.2.5-.1.9.16 1.31-.92 1.32-1.51 2.92-3.29 3.45-.56.17-1.32-.19-1.67.57-.57-.63-1.14-1.26-1.71-1.88-.95-.67-1.21-1.88-2.04-2.65z" style="fill:#2dd1f8"/><path d="m17.42 32.87-.15.89c-.13.73-.44.72-.88.22-1.12-.82-1.28-2.29-2.2-3.24.22-.14.45-.27.67-.41.22-.59.37-1.2.71-1.74.43.01.45.37.54.65.38 1.24.76 2.46 1.31 3.63z" style="fill:#26cff6"/><path d="M17.49 35.42c.23.01.59-.32.59-.19-.04 1.23 1.32 1.73 1.45 2.84-.7.07-1.32.07-1.42-.89-.05-.54-.76-.64-.92-1.14.1-.21.2-.41.3-.62z" style="fill:#125969"/><path d="M19.81 5.71c.02.74-1.02.88-.93 1.66-.26.3-.69.41-.83.83-.59.85-.96 1.82-1.43 2.74-.45.29-.45.65-.17 1.07.08.96-.38 1.8-.6 2.69-.2.83-.44 1.65-.21 2.51-1.09.65-.21 1.34-.03 2.01-.14 2.07-.14 4.13.03 6.2-.28.72.17 1.24.48 1.81-.08.48-.4.77-.78 1.02-.4.05-.79 0-1.11-.28-.53-.69-.46-1.56-.51-2.33-.37-5.78.47-11.38 2.64-16.77.34-.86 1.15-1.51 1.09-2.54.79-.21 1.58-.41 2.36-.62z" style="fill:#24d0f7"/><path d="M14.23 27.97c.4-.11.76.02 1.11.18.22.09.35.24.27.49 0 .67.03 1.36-.75 1.69-1.29-.36-1.5-1.11-.63-2.36z" style="fill:#085464"/><path d="M7.85 11.77c.71-.04 1.1-1.41 1.95-.48.35.38.33 1.08-.16 1.36-.92.53-1.11-.68-1.79-.88z" style="fill:#0e6071"/><path d="M41.79 34.53c-.13 1.56-.56 1.96-2.1 1.69-1.02-.18-1.98.26-3.03.04-1.02-.22-1.28-.68-1.27-1.6.02-4.92.03-9.83-.01-14.75-.02-2.43.09-4.86-.15-7.29-.14-1.38.21-2.8.18-4.22-.01-.59.35-.93.94-1.01 1.36-.19 2.72.07 4.09-.16.74-.13 1.35.48 1.34 1.44-.03 2.08-.01 4.17.01 6.25 0 .33-.12.71.4 1.11.03-.49.05-.87.07-1.26.1-2-.18-4 .19-5.99.27-1.46.44-1.65 2-1.62 4.42.08 8.84.22 13.26.19 1.88-.02 3.76-.2 5.64-.19 1.84.01 2.77.66 3.49 2.39.13.31.22.83.61.78.47-.06.25-.58.28-.9.1-1.39.51-1.81 1.88-1.81 2.75 0 5.53.2 8.25-.1 1-.11 1.48 1.6 2.5.42.75-.87 1.85-.8 2.83-.75 2.35.11 4.7.41 7.02-.06 1.23-.24 2.07 1.31 2.98.76 1.04-.63 2.02-.75 3.11-.73 2.47.06 4.93.32 7.41.21 1.84-.08 3.68-.18 5.52-.21 1.75-.02 2.17.42 2.17 2.14 0 1.69-.01 3.38.01 5.07 0 .45-.12.95.47 1.37v-5.59c0-.31-.02-.63.01-.94.09-1.07.27-1.85 1.74-1.93 1.3-.07 2.56-.04 3.85.09.59.06.82.44.94.9.09.33.07.7.07 1.05v24.65c0 1.71-.21 1.94-1.81 2.29-1.26.27-2.51.15-3.73-.13-.97-.22-1.02-1.12-1.04-1.89-.05-1.96-.01-3.93-.03-5.9 0-.39.18-.87-.3-1.19-.29.36-.14.76-.15 1.12-.02 1.77-.03 3.54 0 5.31.04 2.96-.28 2.51-2.71 2.77-1.24.13-2.7.45-3.64-.93-.17-.24-.44-.15-.61.05-.82.96-1.95.9-3.03.91-2.32.03-4.64.02-6.96 0-.81-.01-1.65 0-2.19-.82-.25-.38-.58-.36-.88-.02-.73.85-1.75.82-2.71.83-6.09.03-12.19.02-18.28.01-1.9 0-2.21-.24-2.86-2.05-1.63 1.91-3.66 2.27-6.04 1.89-1.89-.3-3.83.11-5.75.15-3.3.06-6.61.01-9.91.02-.75 0-1.48-.09-2.22-.2-.76-.11-1.14-.45-1.15-1.21-.22-2.09-.03-4.19-.1-6.29-.01-.42.12-.86-.12-1.26-.08.07-.16.15-.24.22-.24 1.7-.04 3.41-.12 5.12-.05.61.09 1.19-.12 1.76z" style="fill:#171358"/><path class="st13" d="M42.24 27.46c.36.31.23.72.23 1.1.01 2.15 0 4.3-.01 6.45-.44-.56-.2-1.21-.21-1.81-.03-1.92-.01-3.83-.01-5.74zM41.79 34.53c0-1.96-.01-3.91-.01-5.87 0-.34-.09-.71.22-.99 0 1.96.01 3.91.01 5.87-.01.34.09.72-.22.99z"/><path d="M21.93 9.93c-.21.18-.3.5-.07.57.28.09.69.11.18.34-.76.35-.57.93-.61 1.49-.43-.25-.76-.31-1.18.14-.7.74-1.42 1.45-1.74 2.46-.42.3-.46.76-.52 1.22-.35 1.47-.94 2.91-.46 4.46.03.11.06.25 0 .34-.99 1.66-.21 3.34-.04 5.01.04.44.07.87.18 1.3.12.85.26 1.69.56 2.5.15.4.27.83-.08 1.2-.06.03-.13.05-.2.05-.89.06-1.13-.65-1.29-1.26-.37-1.43-.73-2.87-.76-4.37-.03-2.14-.23-4.29-.09-6.43.03-.56.13-1.11.01-1.67.16-2.41 1.11-4.56 2.26-6.63.61-1.09 1.13-1.29 2-.9.5.71.93.26 1.37-.09.26-.03.49-.07.48.27z" style="fill:#4ad7f7"/><path d="M17.26 26.1c-.31-1.25-.74-2.56-.46-3.81.4-1.81.06-3.69.66-5.47.11-.34.18-.68.46-.92.23-.29.41-.62.49-.99.04-1.62 1.41-2.35 2.38-3.28.55-.52.25.61.65.71.14.17.42.37.22.59-.39.43-.58-.44-.98-.22.11.47.47.68.96.83-.62.67-1 1.37-2.02 1.49-.82.09-1 1.28-.49 2.51-.53 1.03-.94 2.07-.42 3.24 0 .59-.31 1.15-.19 1.75-.25.64-.2 1.29-.11 1.95.06.46.1.93-.17 1.36-.28.24-.6.35-.98.26z" style="fill:#59daf7"/><path d="M25.96 33.13c-.55 1.48-1.67 2.44-3.01 3.11-1.58.8-3.4 0-4.34-1.77.39-.56.78-1.11 1.18-1.67.27.05.51.16.76.28 1.21.63 1.66.54 2.7-.37.43-.37.71-1.08 1.5-.79.27.54 1 .61 1.21 1.21z" style="fill:#42d6f8"/><path d="M21.93 9.93c-.14-.06-.29-.12-.43-.18-.75-.81-.75-.81-1.52.24-.79-.82-1.18.11-1.4.48-1.07 1.81-2 3.71-2.3 5.83-.05.35-.08.69-.25 1.01-.18.13-.35.12-.47-.08-.44-.25-.52-.59-.38-1.08.39-1.42.73-2.86 1.08-4.29.06-.37.33-.65.37-1.02.45-.94.88-1.89 1.45-2.77.22-.29.51-.43.87-.44.65-.56 1.34-1 2.25-.95.17.55-.39 1.45.74 1.54.53.35.34.84.25 1.31-.03.16-.01.37-.26.4z" style="fill:#33d2f7"/><path d="M16.02 18.64c.21.39.37.82.26 1.25-.5 1.95.17 3.89.02 5.84-.11 1.43.48 2.76.76 4.13.1.5.42.93.93 1.16.05.36.4.45.62.66.22.22.98.5-.03.68.25.7-.33.85-.73 1.15.12-.67.05-.77-.41-.64-1.23-.94-1.09-2.47-1.61-3.71-.07-.17-.13-.35-.2-.52-.09-.16-.18-.33-.27-.49.12-.39.43-.65.7-.93-.24-.46-.58-.86-.7-1.38-.14-2.3-.35-4.61 0-6.91.13-.28.34-.42.66-.29z" style="fill:#3fd5f7"/><path d="M24.09 10.46c.53-.04.91.21 1.13.66 1.25 2.47 2.15 5.05 2.33 7.84.01.08-.14.18-.21.27-1.9-.42-1.84-.42-1.91-2.29-.06-1.72-.52-3.37-1.27-4.93-.22-.47-.75-1.01-.07-1.55z" style="fill:#49d7f7"/><path d="M24.74 31.93c-.53.04-.78.48-1.1.8-1.52 1.5-2.22 1.51-3.85.07.68-.67 1.17-1.49 1.69-2.28 1.14.23 2.12-.4 2.65-1.69.17-.41.12-.96.66-1.16.5.82.9 1.66.25 2.59.25.33.17.65.01.98-.1.24-.21.47-.31.69z" style="fill:#5adaf7"/><path d="M27.81 21.3c.36.16.48.45.51.84.22 2.4-.49 4.69-.79 7.02-.03.24-.28.36-.49.46-.28-1.27-.57-2.54-.85-3.81.23-1.52-.02-3.07.28-4.58.2-.34.47-.48.86-.34.01.31.16.46.48.41z" style="fill:#3ed3f4"/><path d="M18.18 25.76c-.04-.68-.03-1.37-.15-2.03-.1-.51.01-.89.37-1.22.3-.19.53-.01.75.16.06.09.1.2.12.31.21.73.46 1.37 1.44.87.18-.09.37.05.33.31-.06.37.64 1.02-.43 1.03-.3 0-.07.38.05.54.68.91.64 1.54-.63 1.73-.16.39.07.84-.18 1.22.02.34-.15.56-.43.71-1.06-.4-.85-1.41-1.07-2.22.01-.48-.16-.94-.17-1.41z" style="fill:#75ddf4"/><path d="M24.79 27.67c-.3 1.04-.51 2.17-1.52 2.77-.5.3-1.15 1.41-1.79.08 1.13-1.53 1.41-3.48 2.48-5.32.23 1.04-.18 2.02.83 2.47z" style="fill:#6ddcf6"/><path d="M19.11 22.91c0-.04.01-.08.01-.12.06-.68.33-1.42-.43-1.91-.89-.73-.64-2.6.44-3.34.31.16.61.32.92.49.65.39.13 1.14.5 1.62-1.03.7-.39 1.56-.22 2.38.09.96-.45 1.08-1.22.88z" style="fill:#76dcf3"/><path d="M26.68 21.07c-.01 1.19.02 2.39-.03 3.58-.02.4-.13.83-.45 1.15-.76-1.36-.89-2.89-1.17-4.37-.24-1.3.07-1.49 1.38-1.03.23.17.41.36.27.67z" style="fill:#60daf6"/><path d="M18.62 26.95c.04.88.27 1.7.79 2.43-.29.35-.89.61-.25 1.18.2.18.16.46-.05.6-.35.24-.65.01-.93-.19-.04-1.28-.92-2.39-.71-3.72.31-.37.71-.43 1.15-.3z" style="fill:#54d7f6"/><path d="M19.11 22.91c.54-.11 1.11-.18 1.21-.89h.22c.31-.04.47.22.41.4-.21.6.38.34.52.54 0 .45.08.93-.44 1.18-.09-.06-.21-.19-.28-.17-.34.1-.36 1.05-.85.5-.35-.39-1.26-.69-.79-1.56z" style="fill:#176273"/><path d="M21.48 22.97c-1.18.54-.53-.72-.93-.95-.02-.81.65-1.16 1.12-1.69-.2.89.2 1.79-.19 2.64z" style="fill:#91dced"/><path d="M20.54 16.37c.02.43-.11.83-.57.86-.49.03-.61-.38-.62-.81-.01-.44.14-.82.6-.85.51-.03.61.37.59.8z" style="fill:#63d1ea"/><path d="M25.05 31.25c0-.33-.01-.65-.01-.98.21.03.38-.04.53-.19.3-.29.49-.05.66.17.28.35-.01.57-.22.8-.27.3-.7-.15-.96.2z" style="fill:#248ca4"/><path d="M22.8 13.98c-.16-.43-.64.23-.75-.23-.04-.19.15-.4.35-.38.4.04.8.21.85.66.04.34-.26.55-.57.65-.2.07-.46.03-.5-.17-.1-.53.54-.1.62-.53z" style="fill:#42abc3"/><path d="M20.54 19.64c-.38-.48-.28-1.09-.5-1.62.27-.1.56-.41.83-.08.25.29-.08.47-.23.68-.2.31-.08.68-.1 1.02z" style="fill:#1b697a"/><path d="M19.84 28.67c.01-.41-.17-.86.18-1.22.31.25.26.78-.11 1.13-.03.02-.05.06-.07.09z" style="fill:#67d4ed"/><path d="m26.68 21.07-.27-.66c.6-.39.97-.35.93.48-.23.06-.44.12-.66.18z" style="fill:#1f8aa3"/><path d="M22.21 9.53c-.08-.43-.17-.87-.25-1.31.5-.31.72-.08.65.41-.04.32-.26.61-.4.9z" style="fill:#1f8ca5"/><path d="M18.97 7.63c-.18.31-.45.46-.8.47-.08.08-.14.07-.17-.04-.24-.92.49-.59.88-.69.03.09.06.17.09.26z" style="fill:#126c7f"/><path class="st4" d="M18 8.06c.06 0 .12.01.17.05-.29 1.04-.85 1.95-1.43 2.85-.11.05-.18.02-.22-.09.26-1.07.61-2.08 1.48-2.81z"/><path d="M16.02 18.64c-.22.1-.45.19-.67.29-.37-.29-.75-.59-.66-1.13.08-.5.5-.53.89-.57.16.03.31.06.47.08.28.45.35.89-.03 1.33z" style="fill:#106477"/><path d="M16.52 10.87c.07.03.15.06.22.09.06.41.18.85-.47.9-.4-.01-.51-.25-.46-.6.07-.43.44-.33.71-.39z" style="fill:#198199"/><path d="M15.35 25.84c.35.4.79.76.7 1.38-.53-.31-.91-.7-.7-1.38z" style="fill:#106577"/><path d="M15.24 29.09c-.05.33-.18.63-.56.63-.32 0-.48-.25-.5-.56-.02-.34.06-.67.46-.69.38-.02.52.29.6.62z" style="fill:#1ab8dc"/><path d="M9.28 11.46c.19.07.34.18.34.4 0 .26-.14.45-.41.43-.27-.01-.22-.26-.22-.44-.01-.19.03-.38.29-.39z" style="fill:#0eb8df"/><path d="M65.44 10.25c.23.84 1.39 1.08 1.35 2.1.3.66-.05.91-.64 1-.46.07-.91 0-1.33-.19-.26-.12-.46-.49-.79-.3s-.27.58-.28.91c0 .01.07.03.1.03.04 0 .07-.02.11-.03.68-.2 1.34-.52 2.06-.22.54.22.97.66.52 1.16-.64.72-.53 1.77-1.25 2.41-.05.04.01.15.1.28.25-.77.91-1.25 1.19-1.97.09-.22.28-.39.56-.29.23.09.26.33.2.5-.45 1.34.28 2.7-.1 4.03-.1 1.49.5 2.98.01 4.48-.3.29-.66.31-1.04.22-.85-.28-1.47-1.09-2.45-1.08-.7-.9-.23-1.96-.38-2.93-.01-.08-.01-.16-.04-.23-.01.02-.02.03-.03.06.01 1.53.02 3.05 0 4.56-.01.48.12 1.04-.46 1.34-.57-.37-.42-.97-.43-1.49-.03-1.88.01-3.75-.02-5.63-.02-1.32-.32-1.59-1.58-1.61-.71-.01-.98.29-.99.98-.01.74-.05 1.48-.06 2.23-.01.59-.09 1.17-.54 1.62-.67.44-1.1-.37-1.69-.32-.25-.03-.49-.07-.72-.18a.967.967 0 0 1-.38-.42c-.07-.8-.49-1.46-.82-2.17-.15-2.55-.05-5.1-.06-7.64 0-.7.26-1.29 1.05-1.3 2.96-.06 5.9-.25 8.83.09z" style="fill:#1b42a6"/><path class="st43" d="M73.42 23.94c-.01.15-.02.3-.04.45-1.03.57-2.11.39-3.18.16-.55-.12-.85-.53-.89-1.1-.03-.39-.04-.78-.03-1.17.12-3.39-.03-6.78-.01-10.17-.05-.87.24-1.49 1.21-1.51 2.67-.06 5.33-.07 8 0 .12 0 .22.08.33.13 0 1.64-.02 3.29.02 4.93.02.7-.21.99-.94.96-1.21-.04-2.43.02-3.64-.01-.66-.02-.85.22-.87.88-.07 2.42-.1 2.42 2.37 2.43.31 0 .63.02.94.03.2.22.47.43.2.77-.52.32-1.12.14-1.7.25.97.21 1.99-.24 2.9.34.01.43.05.86.01 1.28-.1 1.23-.51 1.43-1.61.97-.7-.3-1.41.37-2.16.14-.57-.92-.69-.16-.91.24zM104.52 10.39c.01.73.01 1.47.02 2.2-.29.46.17 1.21-.64 1.5-.34.12-.07.37.11.52.74.65.49 1.21-.16 1.74-1.72.56-3.48.07-5.22.25-.95.1-1.46.77-1.34 1.83.13 1.14.64 1.39 1.62 1.53 1.35.19 2.77-.41 4.05.39-.49.58-1.16.49-1.81.51-.81.03-1.61.06-2.42.13-.67.55-1.41.86-2.3.73-1.1-.74-1.16-.73-1.64.5-.34.39.11.87-.14 1.28-.92.53-.6-.53-.95-.74-.11-2.98-.14-5.95-.13-8.93 0-.63.05-1.26.17-1.87.19-.97.76-1.71 1.78-1.78 2.89-.19 5.79-.13 8.69.04.12.01.21.11.31.17z"/><path d="M96.29 21.54c.74-.21 1.68.07 2.09-.91.57.47 1.35.23 1.95.6.42.71-.06 1.78 1.03 2.36-.82-.77-1.16-1.52-.52-2.42.4-.19.81-.19 1.22-.03.67.56.11 1.26.24 1.84.38-.5.11-1.32.69-1.81.32-.13.6-.07.87.12.76.62.71 1.48.7 2.33-.01.81-.05 1.62-.07 2.43-.45.33-.69.08-.9-.39.01.34.29.6.08.88-.28.25-.58.49-.98.51l-.09-.06c-.03-.02-.05-.06-.08-.08-.11.51-.26 1.02-.18 1.6.56-.04.49-.58.75-.82.36-.13.48.15.63.37.06.1.12.3.16.29.17-.03.06-.17.03-.25-.05-.15-.13-.28-.16-.44.01-.12.05-.21.13-.29.23-.11.44-.1.62.1.02 1.98.36 3.98-.4 5.9-.69.13-.91-.28-.92-.85-.01-.51-.04-1.01-.13-1.51-.05-.28-.14-.55-.49-.56-.39-.01-.42.29-.41.57.02.4-.09.76-.3 1.1-.31.51-.31.93.3 1.25.49.26.65.65.26 1.14h-1.63c-.39-.97-.77-1.94-.18-2.97-.41.52-.49 1.06-.24 1.69.13.32.31.75-.09 1.07-.31.07-.58.3-.92.19-.56-.67-.11-1.45-.26-2.17.11.79-.13 1.34-1.03 1.24-.76-.08-.96.5-1.31.94-.95-.01-1.9-.01-2.85-.02-.41-.38-.49-.89-.43-1.4.13-1.08.06-2.17.07-3.25 0-.89.57-1.61 1.45-1.67.92-.07 1.87-.15 2.77.22.36.15.59.47.9.69.19.14.15.57.55.44.37-.12.19-.44.26-.68.03-.11.08-.21.15-.3.64-.37.87-.97.92-1.67.07-.14-.2-.08-.04-.05.04.01.03.04.01.11-.21.71-.79.82-1.4.83-1.25.04-2.51.01-3.77.02-1.6.01-1.93.35-1.86 1.95.06 1.17.06 2.34-.04 3.51-.02.24-.04.47-.27.61-.45-2.06-.09-4.13-.15-6.2-.02-.57.41-.52.83-.51 1.57.03 3.14-.02 4.7.04 1.05.04 1.49-.31 1.47-1.41-.03-1.67-.35-2.02-2.14-2.08-1.09-.04-2.19.21-3.25-.2.05-.42-.98-.83-.01-1.25.28-.9.89-.99 1.67-.69z" style="fill:#235ae4"/><path d="M56.64 21.3c.08.08.16.17.25.25.22.45.46.46.71.02.65-.13.94.43 1.38.7.91.91.59 2.1.7 3.18.05.55-.34 1.27.4 1.54.78.29 1.62.3 2.22-.48.14-.18.28-.37.52-.46.44-1.13.1-2.31.21-3.47.1-1.04-.17-2.1.15-3.13.32.13.31.43.3.7-.05 2.03.18 4.07 0 6.1-.09 1.01-.55 1.53-1.59 1.73-.3.06-.62.03-.91.23 1.12.73 1.94.47 2.3-.7.2-.65.17-1.32.25-1.97.19-.38.48-.3.58-.01.31.91.84 1.4 1.85 1.35.22-.01.46.25.74.27.22.05.44.1.59.29 0 .87 0 1.73.01 2.6-.09.56-.56 1.06-.22 1.68-.4.98-.75 2.01-1.92 2.37-.56-.68-.29-1.56-.6-2.34-.2.59-.26 1.19-.17 1.8.05.35.1.7-.19.98-.86 0-1.72 0-2.59-.01-.65-.65-1.84-.94-1.35-2.32-.8.44-.81.45-.44.96.3.41.93.67.58 1.36-1.4-.11-2.82.23-4.2-.17-.75-.6-.62-1.38-.47-2.17.85-.58.88-1.18.1-2.13a.818.818 0 0 1-.04-.65c.53-.72.33-1.41-.11-2.08-.1-1.87-.22-3.74.06-5.61.19-.37.49-.52.9-.41z" style="fill:#235ce4"/><path class="st46" d="M84.71 34.32c-.31.07-.58.31-.92.19-.57-.7-.09-1.52-.26-2.24-.04 1.25-.12 1.38-1.32 1.28-.47-.04-.99.29-1.43-.15-.13-1.33 0-2.67-.07-4-.05-1.02.41-1.36 1.36-1.18.39.05.52.44.79.63.28.2.29.73.69.69.57-.05.17-.69.46-.94.56-.44 1.23-.48 1.9-.52 1.56-.08 1.56-.08 1.65-1.71.01-.16.03-.31.09-.46.23-.3.4-.12.57.07.52.47.23 1.33 1 1.81-.78-.77-.45-1.42 0-2.06.07-.13-.05-.07-.06-.05-.11.47-.38.67-.85.4-.23-.1-.31-1.18-.74-.12-.07 1.59-.29 1.82-1.88 1.85-1.29.03-2.59 0-3.88.01-.78.01-1.13.35-1.11 1.15.03 1.49 0 2.98.01 4.47 0 .39.08.79-.31 1.07-.51-2.27-.49-4.55-.17-6.83.07-.5.46-.45.81-.46 1.61-.06 3.21-.2 4.82-.16 1 .03 1.35-.3 1.23-1.25-.05-.39-.03-.78-.03-1.18-.24-.59.24-.73.59-.96.38-.19.79-.27 1.21-.23.61.04 1.18.3 1.79.34.63.04.94.43 1.03 1.02.18.97-.2 1.93-.11 2.9-.81.49-1.01 1.56-1.9 1.99-.24.12-.12.49.21.61.61-.5.32-1.9 1.67-1.65 0 .23.01.46.01.69-.36.48-.28.95 0 1.43v.93c-1.12.46-.66 1.55-.94 2.35-.87.9-1.84.57-2.82.26-.41-.39-.25-.87-.18-1.32.09-.56-.05-1.09-.12-1.63-.05-.37-.02-.89-.57-.86-.52.04-.3.54-.35.85-.04.24-.1.46-.23.66-.38.59-.41 1.06.31 1.44.45.24.53.65.17 1.08H85.2c-.4-.97-.77-1.94-.18-2.97-.41.52-.49 1.06-.24 1.69.14.32.33.74-.07 1.07z"/><path class="st47" d="M91.55 10.4c0 1.84.02 3.67 0 5.51-.01.65-.49.69-1 .69-1.86 0-3.72.01-5.58.02-.93-.09-.96-.72-.81-1.47-.78.22-1.54.23-1.91 1.17-.25.68-.73.15-.95-.16-.62-.91-.58-1.97-.28-2.93.25-.79.4-1.57.48-2.38.32-.54.87-.68 1.41-.7 2.62-.1 5.24.01 7.86-.02.3 0 .56.09.78.27z"/><path class="st48" d="m40.88 25.6-.06 1.86c-1.35.62-.45 1.24 0 1.86 0 .24 0 .48-.01.72-1.41.5-1.01 1.96-1.52 2.93-.15.29.19.53.51.66.42.17.65.43.3.88h-1.63c-.16-.18-.33-.56-.5 0-.29.01-.57.02-.86.02-.27-.43-.18-.91-.19-1.38-.05-2.93-.09-5.87-.11-8.8-.02-2.14.04-4.3.11-6.46.03-.89-.44-1.78-.02-2.66.13-.33.35-.59.53-.89.14-.23.31-.5.63-.41.31.09.45.45.32.65-.98 1.57.4 1.4 1.2 1.66.09.06.17.14.22.24.31.77-.07 1.49-.17 2.22.15-.67.56-.9 1.21-.75.35.34.16 1.08.85 1.17.15.1.24.24.29.41.11.65.13 1.29-.15 1.91-.28.5-.29.83.43.76.42.33.97.15 1.42.4.45.26.71.58.63 1.11-.09.58-.51.59-.96.55-.27-.02-.65-.22-.61.34-.37.8-1.42.3-1.86 1z"/><path class="st49" d="M111.39 25.33c-.97.2-1.12.82-1.07 1.73.12 2.28.11 4.56.15 6.84.01.53-.28.67-.74.64-.47-.03-.94-.03-1.4-.05-.71-.59-1.63-1.01-1.69-2.12-.27-.6-.29-1.24-.3-1.89-.02-.2 0-.4 0-.61.28-3.28-.16-6.56-.02-9.84-.01-2-.02-4 0-6 .02-.74 0-1.48.02-2.22.01-.42-.03-.87.39-1.16.6.21.47.75.49 1.18.04 1.17 0 2.34.02 3.51.03 1.22.18 1.3 1.31.93.53-.18 1.05-.6 1.65-.16.09.54.19 1.08.28 1.62-.03.27.03.54-.06.8-.06.18-.11.41-.34.41-.31 0-.47-.18-.46-.27.07.26.08.75-.15 1.21-.19.39-.14.8-.1 1.22-.31 1.22-.31 1.22.92 1.06.38.11.56.34.49.74-.05.11-.11.2-.2.28-.21.2-.37.43-.18.71.23.34.47-.18.72-.03.51.44.67.91.27 1.47z"/><path class="st46" d="M69.57 12.04c.02 3.63.08 7.25.04 10.88-.02 1.11.45 1.46 1.43 1.47.78 0 1.57.01 2.35.01-.15 3.06-.15 3.04 2.9 3.1.75.01 1.55-.3 2.27.18-.48.48-1.09.28-1.65.33-.64.05-1.31-.09-1.94.25.77.24 1.55.34 2.34.38.42.02.88-.02 1.08.49-.04.4.34.74.17 1.16-.25.24-.56.47 0 .71.14.81-.01 1.61.23 2.45.3 1-.24 1.31-1.61 1.08-.64-.65-1.84-.94-1.34-2.32-.81.44-.81.46-.44.96.3.41.93.67.58 1.36-1.24-.34-2.55.54-3.76-.23-.44-.43-.22-.95-.17-1.44.06-.6-.11-1.16-.17-1.74-.03-.32-.11-.66-.54-.63-.39.03-.28.38-.36.63-.34 1.19-.64 2.4-1.37 3.44h-.24c-.19-.22-.23-.49-.23-.77-.01-6.8-.02-13.59 0-20.39.02-.48-.21-1.07.43-1.36z"/><path d="M110.21 22.26c-.3.67-1.15.41-1.26.28-.43-.5-.01-.99.32-1.44.16-.4.16-.81 0-1.21.05-.45.09-.9.17-1.35.05-.27-.67-.5-.09-.69.44-.15.32.39.43.64.04.1.13.18.24.34.35-.31.01-.91.47-1.1 1.57.63 2.02.42 2.54-1.21.54 1.21.41 1.56-.72 2.05-.33.14-.67.24-.66.7.39.72 1.32.87 1.66 1.69.42-.43-.08-1.18.63-1.37.35-.06.29.82.81.36.43.04.84.29 1.22-.27.27-.39.79-.7 1.26-.1.16 1.03.2 2.07.17 3.11-.6.55-.8 1.1-.04 1.69.05.16.05.32-.02.48-.42.41-.87.07-1.41.1.71.66 1.44 1.31 1.47 2.35-.11 2.06.14 4.13-.11 6.19-.04.35 0 .71-.26.99-.49.09-.96.04-1.41-.2-1.01-.27-1.03-.31-.93-1.94.04-.15-.18-.05-.02-.05-.06.62-.19 1.17-1.03.98-.4-.81-.11-1.58.1-2.36.04-.11.06-.26.15-.31 1.15-.74 1-1.81.76-2.91-.38 1.18-.38 1.18-1.03 1.3-.46-.75.16-1.77-.59-2.45-.17-.25-.09-.53-.1-.8-.02-.48.17-.67.64-.43.24.13.47.57.74.06.15-.28.24-.63-.11-.83-.33-.19-.67-.16-.97.12-.23.21-.16.75-.68.66-.15-.01-.29-.02-.44-.02-.32-.31-.35-.73-.24-1.1.27-.95-.4-1.72-.44-2.62-.02-.44-.52-.58-.84-.09-.16.26-.15.57-.38.76z" style="fill:#2363e4"/><path class="st48" d="M47.66 34.52h-1.64c-.31-.36-.67-.65-1.13-.79a.611.611 0 0 1-.21-.24c-.11-.7.03-1.49-.74-1.94-.28-1.16-.07-2.33-.14-3.5-.02-.41.1-.89-.45-1.08-.09-.4-.03-.8-.05-1.2.36-.13.72-.3 1.13-.19.29.38.16.8.09 1.23.15-.08.05-.21.09-.31.22-.57.65-1.05.79-1.67.69-.9.28-1.89.23-2.84-.08-.24-.23-.42-.43-.58-.12-.09-.23-.19-.34-.28-.41-.25-.57-.02-.66.35-.06.27-.06.55-.25.77-.72-.02-.72-.76-1.12-1.11-.15-.33-.26-.66-.2-1.03.12-.29.34-.49.58-.69.56-.43.57-1.05.61-1.68.03-.57-.12-1.17.28-1.68 1.19-.26 1.95.62 2.85 1.11 1.14.61.81 1.75.84 2.73-.01.44-.52.21-.72.6.29-.01.78-.43.72.23v4.7c0 .11.02.27-.05.33-.91.67-.57 1.31.05 1.93-.08.84.16 1.7-.15 2.53-.76.29-.82.96-.85 1.63-.23.28-.33.6-.3.87 0-.24.05-.55.26-.82.31-.23-.01-1.13.83-.77.04 1.13.3 2.25.08 3.39z"/><path d="M53.54 21.32c.17 3.23.24 6.45.05 9.68.36.78-.45 1.57.03 2.35-.07.6-.05 1.28-.98 1.16-.58-.69-.09-1.49-.26-2.13-.05 1-1.21 1.73-2.53 1.51-.31-1.43-.16-2.87-.1-4.31.04-.19.12-.37.25-.51.6-.31.8-.93 1.14-1.44.35-.77.69-1.55.96-2.35.1-.28.13-.7-.33-.7-.4 0-.32.37-.29.63.06.67.03 1.32-.08 1.98-.27.36-.55.96-.88.06-.14-.37-.73-.1-.73-.6-.14-2.51-.12-5.03-.01-7.54.12-.31.29-.61.64-.24.38.4.89.39 1.37.52 1.08.17 1.65.83 1.75 1.93z" style="fill:#2362e4"/><path d="M51.69 19.65c-.56-.24-1.52.22-1.57-.9-.67-.52-.32-1.27-.43-1.91-.02-1.5-.02-2.99 0-4.49.06-2.25 1.69-3.01 4.09-1.9 0 2.45 0 4.89-.01 7.34-.18.18-.18.42-.21.65-.08.65.01 1.51-1.07.61-.63-.54-.45.48-.8.6z" style="fill:#1c3ea6"/><path d="M47.66 34.52c-.03-1.18-.35-2.34-.24-3.52-.21-.24-.16-.48.01-.72.46-.91.16-1.88.23-2.82-.43-.56-.38-1.11 0-1.67 0-1.81-.01-3.61-.01-5.42-.06-.05-.08-.11-.06-.16.02-.05.04-.08.06-.08.36-2.57-.68-2.68-3.49-4.03-.38-.31-.37-.76-.37-1.18-.03-1.21.05-2.42-.04-3.63-.04-.56.17-.98.7-1.06 1.15-.17 2.32-.38 3.43.18.01 7.79.03 15.58.03 23.37 0 .27.05.57-.25.74z" style="fill:#1c41a5"/><path d="M55.97 29.34v.72c.39.64.43 1.26-.05 1.88-.1.82-.05 1.63.28 2.41-1.11.68-.97-.22-.97-.81-.01-3.93.01-7.85.01-11.78.01-3.61 0-7.22.01-10.83 0-1.45.05-1.5 1.54-1.5 2.43 0 4.87.01 7.3-.01.66-.01 1.16.13 1.35.84-.34.41-.8.23-1.21.23-2.47.02-4.95.02-7.42 0-.61-.01-.93.1-.91.84.06 2.71.06 5.42.08 8.12.33.7.47 1.41 0 2.11 0 2.04-.17 4.09 0 6.13.28.54.26 1.09-.01 1.65z" style="fill:#e8ecf9"/><path class="st55" d="M81.63 11.11c.25.62.15 1.19-.16 1.78-.61 1.16-.37 2.69.57 3.6-.1-2.15 1.97-1.02 2.75-1.97-.16.75-1.01 1.54.19 2.1-.09.22-.19.44-.28.67-.58-.03-.63-.57-.83-.84-1.29.75-1.17 1.84-.65 3.02.42-.25.19-1.17.88-1.02.5.11.42.81.53 1.19.22.76.61 1.63-.13 2.46.72-.11.28-1.11.96-1.16.43 0 .85.05 1.2.35.15.58.11 1.16.04 1.74-.05.41-.15.91-.8.67-.86-.45-1.73.13-2.59-.02-.11-.11-.21-.24-.22-.4-.06-.91-.33-.05-.49-.06-.97 1.13-1.29-.12-1.85-.5-.06-3.35-.02-6.71-.03-10.06-.01-.69.09-1.34.91-1.55z"/><path d="M110.21 16.12c-.77.01-1.41.43-2.08.72-.92.39-1.23.1-1.23-.81 0-1.76-.01-3.52-.01-5.28-.07-.29.13-.47.35-.5 1.01-.16 2.05-.46 2.99.27.12 1.86.49 3.73-.02 5.6z" style="fill:#1f42aa"/><path d="M69.57 12.04c-.25.44-.16.92-.15 1.38.09 6.22-.16 12.45.14 18.67.04.81-.11 1.64-.17 2.45-.59.08-.5-.34-.5-.68 0-7.58.01-15.16-.01-22.73 0-.87.39-1.16 1.23-1.15 2.51.03 5.03 0 7.54.03.49.01 1.2-.21 1.17.72-2.22.37-4.46.08-6.68.17-.51.02-1.03.05-1.53-.01-.95-.13-1.16.34-1.04 1.15z" style="fill:#dadff3"/><path d="M37.23 14.97c-.26 1.8.11 3.59.07 5.39-.08 4.02-.02 8.04-.04 12.07 0 .7-.09 1.41-.14 2.11-.17-.01-.34-.01-.51-.02-.27-.31-.15-.68-.15-1.02-.01-7.65.01-15.3-.03-22.95 0-.98.28-1.38 1.26-1.27 1.04.12 2.11-.23 3.13.23.4.44.06.73-.22 1.02-.65.39-1.37.23-2.07.24-.8.01-1.19.29-.98 1.14-.06 1.03-.13 2.05-.32 3.06z" style="fill:#c5ccf0"/><path d="M104.52 10.39c-2.75.28-5.5.02-8.26.08-1.58.04-2.36.73-2.37 2.38-.02 2.94.01 5.88 0 8.81 0 .36.19.79-.19 1.1-.52-.88-.39-1.9-.41-2.83-.06-2.88-.15-5.77.1-8.64.03-.31.01-.63.29-.86.44-.86 1.11-1.2 2.1-1.17 2.48.06 4.95.01 7.43.03.49 0 1.06-.14 1.32.5-.01.2-.01.4-.01.6z" style="fill:#e9ecf7"/><path d="M81.63 11.11c-.52.54-.67 1.2-.66 1.93.02 2.86.02 5.73 0 8.59 0 .36.18.79-.23 1.08-.28-.37-.27-.81-.28-1.24-.08-3.26-.13-6.52-.01-9.78.05-1.35.93-2.27 2.25-2.28 2.63-.01 5.26.01 7.89-.01.74-.01 1.14.17.95.99-2.72.22-5.45.04-8.17.09-.64.02-1.33-.07-1.74.63z" style="fill:#edeff7"/><path d="M117.03 34.51c.35-2.49.17-5 .24-7.51-.25-.73-.51-1.45 0-2.18v-.41c-.34-.49-.36-.98 0-1.47.15-1.18-.16-2.34-.21-3.52-.26-.77-.04-1.56-.1-2.33 0-1.21.02-2.42-.01-3.62-.03-1.19-.38-1.37-1.43-.78-.27.15-.51.36-.78.52-.38.24-.77.42-1.14-.01-.64-3.1-.21-3.12 2.31-3.09.53.01 1.09-.08 1.56.3.02 6.46.04 12.93.05 19.39v3.64c0 .43.07.89-.49 1.07z" style="fill:#1c3ca8"/><path d="M106.65 13.99v6.16c-.22 2.52-.13 5.05-.01 7.58.04.78-.27 1.55.01 2.31v.5c-.21.62-.06 1.23.02 1.84.09.73.27 1.47-.23 2.14-.57-.04-.42-.49-.42-.8-.01-7.84-.01-15.68-.01-23.53 0-.3-.08-.67.43-.64.3.32.23.69.19 1.09-.12 1.11-.17 2.23.02 3.35z" style="fill:#c8d1ee"/><path d="M97.91 28.56c-.86-.04-1.73-.05-2.59-.12-.91-.07-1.52.51-1.46 1.43.09 1.54-.19 3.09.04 4.63-.59.18-.75-.12-.72-.64.02-1.69.06-3.38.04-5.07-.02-.98.29-1.44 1.36-1.39 1.41.07 2.83-.04 4.24.02 1 .04 1.63-.16 1.42-1.34-.02-.13.07-.28.12-.47.86 1.5.51 2.84-.79 3.2-.71.91-1.1-.21-1.66-.25z" style="fill:#dee3f8"/><path d="M117.47 10.4c-1.02.03-2.04.09-3.06.07-.66-.02-.83.27-.79.85.05.66.09 1.33.13 1.99.49.71.09 1.57.41 2.31-.04.61-.23 1.2-.17 1.84.19 2.09-.56 2.66-2.6 2.04-.42-.64-.11-1.18.49-1.15 1.59.07 1.21-.94 1.15-1.81.01-1.84 0-3.67.02-5.51.01-.57-.06-1.17.54-1.58.29-.19.44-.45.87-.16.54.37 1.28.3 1.81.1 1.2-.47 1.25.15 1.2 1.01z" style="fill:#e3e7f7"/><path d="M47.87 10.42c-1.02.03-2.03.06-3.05.07-.49 0-.81.06-.79.7.07 1.64.08 3.28.12 4.92-.02.81 0 1.62-.09 2.43-.05.48.04 1.2-.85 1.04-.51.15-1.02.31-1.42-.22-.07-.08-.14-.17-.21-.25-.32-.5-.07-.81.4-.94 1.42-.38 1.43-.36 1.44-1.78 0-.27 0-.54.01-.81.01-1.6.04-3.2.02-4.81-.01-.96.32-1.47 1.38-1.36.7.07 1.41.05 2.11.01.77-.06 1.11.21.93 1z" style="fill:#e6e8f8"/><path d="M80.41 34.51c.01-2 .05-4 .01-6-.02-.8.19-1.11 1.04-1.07 1.49.06 2.98-.04 4.47.02.95.04 1.54-.14 1.37-1.26-.04-.27.01-.55.27-.74.2.03.3.13.26.34-.01.16-.02.31-.02.47.07 2.1.07 2.07-2.05 2.16-.59.02-1.18.25-1.77.38-.75.91-1.09-.16-1.62-.33-.19.03-.41.15-.55.09-.74-.33-.88-.01-.86.66.04 1.45.03 2.9.05 4.35.25.33.19.64-.05.94-.19 0-.37-.01-.55-.01z" style="fill:#dfe4f8"/><path d="M50.01 12.34c0 1.5-.01 3-.01 4.51-.33 3.85-.3 7.71-.04 11.56.02.31 0 .62.05.93l.06 4.71c.1.26-.13.35-.25.5-.64-.02-.47-.52-.47-.87-.01-7.76-.01-15.52.01-23.27 0-.32-.24-.85.43-.88.43.45.16.94.13 1.44-.02.44-.11.92.09 1.37z" style="fill:#c0c9e9"/><path class="st47" d="M85.46 21.07c-.28.17-.3.46-.26.73.19 1.33-.72.44-1.12.53-.13.03-.25-.27-.13-.36 1.46-.97.17-2.14.25-3.21 0-.04-.1-.09-.16-.14-.07.03-.17.05-.19.1-.22.5-.09 1.43-.71 1.41-.55-.02-.18-.97-.5-1.43-.14-.2.21-.49-.16-.71-.64-.39-.05-.96.14-.97.95-.09.92-.77.97-1.67.45.8.78 1.37 1.11 1.94-.57 1.93-.06 2.55 1.93 2.66.86.05 1.86-.53 2.6.39-.13.45-.48.5-.87.48-.9-.08-1.77-.61-2.7-.19-.47-.03-.06.32-.2.44z"/><path class="st68" d="M69.63 34.54c.25-.92.3-1.91.91-2.71.22-.28.26-.54.13-.87-.21-.54-.15-.92.56-.93.55 0 .93.01 1 .77.11 1.16.11 2.31-.02 3.46-.8.57-1.72.19-2.58.28z"/><path d="M67.26 19.66c-.13-.67.4-1.54-.65-1.95-.15-.06-.16-.64.18-.82.78-.42.44-1 .26-1.58-.11 1.01-1.42 1.36-1.29 2.52.04.34-.41.35-.58.05-.32-.54-.66-1.17.23-1.52.36-.14.39-.29.29-.61-.15-.46-.08-.87.45-1.04.25-.08.43-.21.36-.5-.06-.25-.26-.35-.49-.45-.81-.35-1.51.34-2.28.22-.12-.74.4-.97.95-1.18.77.12 1.69.92 2.12-.47 1.02 2.4.78 4.86.45 7.33z" style="fill:#1f30a3"/><path d="M37.32 11.87c-.39-1.28-.31-1.39.93-1.38.78.01 1.57.03 2.35.04.25 1.07.27 2.15.21 3.24-.46.36-.9.21-1.34-.05-.45-.91-1.49-1.17-2.15-1.85z" style="fill:#1c3aa8"/><path d="M40.83 9.51c-1.14-.01-2.27 0-3.41-.03-.57-.01-.86.16-.86.8.03 8.08.04 16.16.06 24.24-.48-.24-.3-.68-.3-1.04-.01-7.73.01-15.45-.03-23.18 0-.98.3-1.35 1.27-1.27.78.06 1.57 0 2.35 0 .39-.01.82-.07.92.48z" style="fill:#49488a"/><path class="st55" d="M88.98 23.69c-.41-.03-.81 0-1.18.2-1.13-.65-.94-1.7-.82-2.73 1.36-.2 2.71-.24 4.05.13.73.48.49 1.25.55 1.92-.85.26-1.83-.21-2.6.48z"/><path class="st72" d="M102.41 34.51c-.04-.36.15-.82-.45-.92-1.2-.19-.78-.96-.44-1.53.26-.43.48-.74.26-1.26-.18-.44 0-.78.55-.75.43.02 1.08-.18 1.01.58-.06.66.39 1.26.1 1.95-.22.51.35.59.66.79-.39.64-.9 1.1-1.69 1.14zM86.84 34.51c-.04-.36.15-.82-.44-.92-1.2-.19-.78-.96-.45-1.52.25-.43.49-.73.27-1.26-.18-.43-.02-.78.53-.76.49.01 1-.14 1.07.68.1 1.19.14 2.38-.01 3.56-.28.31-.62.29-.97.22z"/><path class="st73" d="M40.11 34.51c-.02-.26.05-.55-.32-.66-.92-.28-1.15-.94-.61-1.78.16-.26.55-.46.42-.79-.57-1.41.38-1.25 1.22-1.24.01 1.25.01 2.5.03 3.76.01.53-.14.84-.74.71z"/><path d="M113.09 26.53c.63-.05.65.39.66.83l.06 1.73c.34.52.32 1.08.17 1.66-.04.87-.41 1.71-.21 2.6.33.41.28.8-.06 1.17-.79.19-.7-.37-.7-.83v-6.92c-.09-.12-.07-.2.08-.24z" style="fill:#95a2f1"/><path d="M110.21 22.26c.02-.7-.26-1.61 1.01-1.4.24.04.58.17.53.36-.24 1.01.85 1.8.42 2.86-.15.37-.06.84-.08 1.27-.24 0-.47 0-.71-.01.01-.53-.01-1.05-.47-1.42-.63-.17-.45-.55-.24-.94.01-.35-.14-.59-.46-.72z" style="fill:#2940e4"/><path d="M104.53 9.78c-.27-.28-.62-.27-.98-.27-2.66.01-5.33.09-7.99-.04-.94-.04-1.17.84-1.88.96-.04-1 .32-1.46 1.44-1.43 2.81.08 5.62.02 8.44.01.53.01 1.05-.01.97.77z" style="fill:#5a599c"/><path class="st77" d="M74.9 25.8c.51-.51.86-.39 1.26-.31 1.96.38 2.9-.39 2.9-2.34 0-1.17.01-2.35.02-3.52 0-.06.07-.12.13-.22.24 1.23-.08 2.44.26 3.64.15.55.27 1.03.71 1.4.77.65.51 1.02-.35 1.2-.19.04-.38.14-.56.14-1.4.01-2.8.01-4.37.01z"/><path d="M78.38 29.12c-.96-.49-2.02-.12-3.02-.34-.43-.09-1.03.2-1.07-.51-.05-.88.69-.54 1.11-.56 1.05-.05 2.1-.03 3.15-.04.45.54.35 1.02-.17 1.45z" style="fill:#dbe3f8"/><path d="M43.45 27.02c.11-.15.22-.41.34-.42.31-.01.3.3.31.52.03 1.53.06 3.05.08 4.58.32.43.29.93.28 1.42-.02.49.05 1-.36 1.39h-.52c-.57-1.79-.25-3.64-.22-5.45.02-.67-.29-1.38.09-2.04z" style="fill:#c3d1f5"/><path d="M106.65 13.99c-.45-1.46-.08-2.97-.21-4.45 1.09-.04 2.19-.1 3.28-.11.91-.01 1.03.4.5 1.09-1.11.07-2.26-.31-3.34.24-.36 1.05-.05 2.16-.23 3.23z" style="fill:#e9ecf8"/><path d="M80.95 34.52c.02-.31.03-.63.05-.94.36-.47.93-.44 1.35-.32.94.26.98-.22.97-.9-.01-.4-.11-.84.12-1.21.12 0 .23-.01.35-.01v3.37c-.95 0-1.9 0-2.84.01z" style="fill:#273ce4"/><path d="M91.03 21.29c-1.39.32-2.79-.03-4.18.07-.08.06-.16.06-.24-.01-.4-.03-.8-.08-1.15-.29.02-.17-.43-.31-.03-.5.94-.43 1.88-.01 2.82-.01.37.14.68-.02.97-.23.71.13 1.53.05 1.81.97z" style="fill:#ced1eb"/><path d="M50.01 12.34c-.46-.91-.1-1.88-.21-2.82 1.02-.03 2.04-.05 3.06-.11.78-.05 1.09.26.93 1.03-.63.02-1.25.04-1.88.05-1.8.02-1.8.02-1.9 1.85z" style="fill:#e4e8f6"/><path d="M96.76 34.52c-.1-1.01.28-1.5 1.35-1.22.57.15.78-.11.79-.67.01-.49-.16-1.01.3-1.72.28 1.34.1 2.49.17 3.61-.88-.01-1.75-.01-2.61 0z" style="fill:#273be4"/><path d="M49.83 34.54c.08-.17.17-.33.25-.5.26-.41.42-1.04 1.09-.81 1.04.35 1.01-.29 1-.98-.01-.37-.08-.77.29-1.45.3 1.43.11 2.57.19 3.69-.95.03-1.89.04-2.82.05z" style="fill:#2839e4"/><path d="M43.45 27.02c.05 2.5.09 5 .14 7.5-.52-.31-.36-.82-.36-1.27-.01-2.23-.04-4.46.01-6.69.02-.85-.13-1.31-1.09-1.12-.42.08-.85.11-1.27.17-.05-.41.14-.8.54-.69.54.15.85-.3 1.29-.31.64.03.94.3.72.97.01.47.01.95.02 1.44z" style="fill:#3924d8"/><path d="M100.31 21.35c-.68-.15-1.54.21-1.92-.72 1.52-.12 3.06.02 4.56-.29.36.26.91.33.92.94-.32.02-.65.05-.97.07-.23.16-.46.17-.7 0-.48 0-.96 0-1.44-.01-.15.12-.3.12-.45.01z" style="fill:#f1f5fb"/><path d="M67.29 27.44c-.25 0-.49.01-.74.01-.15-.49-1.58-.71-.32-1.52.12-.08-.11-.18-.17-.28-.3-.51-.41-1.01.04-1.5.39 0 .78-.01 1.17-.01-.06 1.1.23 2.2.02 3.3z" style="fill:#302ce0"/><path d="M113.09 26.53c-.02.08-.05.16-.07.24-.33-.41 0-1.05-.48-1.41.49-.25-.03-1.13.7-1.18.52-.04 1.2-.3 1.5.26.26.47.05 1.12-.29 1.51-.76.89-.78-.36-1.2-.53-.34.36-.17.75-.16 1.11z" style="fill:#2936e4"/><path d="M51.69 19.65c0-.16-.02-.32 0-.47.04-.28-.17-.7.24-.81.3-.08.58.16.81.39.15.16.15.47.46.47.42-.39-.3-1.24.57-1.45-.19 1.17.2 2.38-.24 3.54-.43-.76-.77-1.62-1.84-1.67z" style="fill:#2820b2"/><path d="M64.19 34.51c-.28-1.07-.13-2.13.01-3.2.03-.24.05-.5.35-.5s.35.26.34.5c-.02.93.38 1.82.27 2.76-.1.65-.56.48-.97.44z" style="fill:#322be4"/><path d="M39.42 13.51c.46.13.9.33 1.39.26v2.58c-.39.33-.78.32-1.17.01-.21-.55-.13-1.17-.67-1.66-.43-.4-.08-.93.45-1.19z" style="fill:#2467e2"/><path d="M60.4 34.51c-.06-.5-.36-.84-.74-1.12-.6-.45-.55-1.25.11-1.58.22-.11.46-.14.67-.02.24.14.25.41.16.62-.31.72-.23 1.16.66 1.3.34.05.33.48.34.8h-1.2z" style="fill:#2b30e4"/><path d="M75.98 34.51c-.05-.5-.37-.84-.74-1.12-.6-.45-.55-1.24.1-1.58.22-.11.46-.15.67-.02.24.14.25.41.16.62-.31.72-.23 1.16.67 1.3.34.05.33.48.33.8h-1.19z" style="fill:#2b31e4"/><path d="M91.55 28.64c-.81.13-1.03.75-1.15 1.42-.05.31 0 .69-.35.8-.4.12-.43-.37-.67-.54-.3-.22-.41-.65-.12-.78.84-.37 1.1-1.26 1.75-1.78.13-.1.38-.06.57-.08l-.03.96z" style="fill:#2f35e4"/><path d="m113.72 34.52.06-1.17c1.06-.42.44-1.53.97-2.46.29.89.19 1.58.17 2.24-.02.59.15.99.71 1.18-.59.45-1.29.03-1.91.21z" style="fill:#2d3de4"/><path d="M43.44 15.57c.26.67.24 1.34.06 2.03-.15.56-.49.94-1.07.78-.73-.2-.77.24-.84.72-.11.22-.13.77-.5.2-.25-.39-.32-.85-.22-1.33.31.01.62.02.93.04.97.08 1.45-.34 1.44-1.33-.01-.37-.09-.78.2-1.11z" style="fill:#3c34e3"/><path class="st98" d="M39.65 16.36c.39 0 .78 0 1.17-.01.02.54.03 1.08.05 1.62-.7.25-1.29.57-1.06 1.57-.77-1.09.1-2.16-.16-3.18z"/><path d="M86.62 21.36c.08 0 .16 0 .24.01.14.13.41.29.39.4-.13.8.24 1.45.56 2.12-.28.21-.73.25-.73.73-.19-.56-.69-.72-1.16-.92.64-.14.59-.65.52-1.1-.08-.45-.08-.86.18-1.24z" style="fill:#2521aa"/><path d="M88.98 23.69c.41-.84 1.22-.99 2.6-.48.04.53.07 1.05.11 1.58-.6-1.11-1.86-.6-2.71-1.1z" style="fill:#2928de"/><path d="M78.09 21.3c-1.09.01-2.17.03-3.26.02-.24 0-.62.09-.61-.32.01-.32.3-.4.6-.4.7 0 1.4-.02 2.09-.03.41-.33.79-.21 1.17.06.01.22.01.45.01.67z" style="fill:#bfc7e0"/><path d="M103.84 16.35c.37-.67.84-1.33-.38-1.68-.45-.13-.39-.79-.1-.78.98.01.88-.79 1.18-1.29.01 1 0 2.01.02 3.01.01.5-.14.82-.72.74z" style="fill:#251ea5"/><path class="st72" d="M100.28 34.32c0-.39.15-.85-.12-1.14-.81-.9.31-1.55.26-2.35-.01-.1.2-.26.37-.18.27.13.28.45.18.61-.7 1.06-.35 2.17-.2 3.27-.19.02-.38 0-.49-.21zM84.71 34.32c0-.39.15-.85-.12-1.14-.81-.9.31-1.55.26-2.35-.01-.1.2-.26.37-.18.27.13.28.45.18.6-.7 1.06-.35 2.17-.2 3.27-.2.03-.38.01-.49-.2z"/><path d="M90.62 34.04c-.46-1.72-.27-2.19.94-2.35.08.94.02 1.82-.94 2.35z" style="fill:#2933df"/><path d="M106.94 32.41c.28.49.17 1.27 1.08 1.32.3.02.31.47.31.78-.55.01-1.09.01-1.64.02-.13-.74-.43-1.48.25-2.12z" style="fill:#3541e5"/><path d="m104.5 27.46-.65-.03c-.3-.25-.42-.55-.25-.93-.02-.11-.01-.24-.07-.34-.21-.39-.74-.92-.2-1.17.67-.32.39.5.55.8.14.25.38.23.6.25.12.47.11.95.02 1.42z" style="fill:#292ce3"/><path d="M40.82 29.32c-.38.02-.35-.54-.92-.5-.5.04-.29-.71-.05-1.05.2-.29.6-.35.97-.31v1.86z" style="fill:#3729e4"/><path class="st77" d="M104.85 20.04c-.46-.46-.93-.85-.63-1.53.1-.23.4-.34.61-.18.61.52.39 1.08.02 1.71z"/><path d="M92.28 19.09c-.05.26.09.7-.26.68-.54-.02-.73-.54-.84-.98-.08-.3.18-.51.49-.5.53.01.59.41.61.8z" style="fill:#2f416e"/><path d="M53.61 33.34c-.54-.41-.78-.88-.23-1.46.25-.26.16-.59.2-.89.33.78.35 1.57.03 2.35z" style="fill:#2b28e0"/><path class="st109" d="M106.94 32.41c-.46.66-.1 1.42-.25 2.11-.08-.01-.16-.01-.25-.01.12-1.32-.24-2.67.21-3.98.09.63.19 1.25.29 1.88z"/><path d="M44.84 33.59c.66-.04 1.24.03 1.19.92h-1.19c-.24-.31-.28-.62 0-.92z" style="fill:#2c2ce4"/><path d="M67.08 31.71c-.85-.68-.51-1.2.22-1.68.34.62.06 1.15-.22 1.68z" style="fill:#2e33de"/><path d="M73.42 23.94c-.01-.08-.01-.15-.02-.23-.04-.51.13-1.09.62-1.07.57.02.21.68.32 1.04-.33-.01-.64.06-.92.26z" style="fill:#291fa6"/><path d="M82.59 23.22c-.02-.46.1-.83.72-1.11v1.57c-.35.01-.69.02-.72-.46z" style="fill:#1e21a3"/><path d="M44.84 33.59v.92h-.73c.02-.47.05-.93.07-1.4.42-.12.47.28.66.48z" style="fill:#2367e4"/><path d="m78.09 20.63-1.17-.06-.24-.63c.65-.12 1.16.02 1.41.69z" style="fill:#231ea1"/><path d="M78.55 30.99c-.39.23-.8.29-.85-.27-.05-.63.52-.37.85-.44v.71z" style="fill:#3b29e2"/><path d="M91.56 30.76c-.53-.47-.86-.95 0-1.43v1.43z" style="fill:#3429d8"/><path class="st73" d="M37.99 34.51c.07-.33-.48-.88.08-.95.6-.08.32.6.42.96-.17-.01-.34-.01-.5-.01z"/><path d="M92.82 24.51c.37.14.61.31.55.67-.02.16-.19.28-.34.21-.34-.15-.31-.46-.21-.88z" style="fill:#30436f"/><path d="M18.62 26.95c-.33.33-.74.32-1.16.3-.4-.32-.2-.75-.21-1.15.25-.26.57-.35.92-.34.46.28.51.71.45 1.19z" style="fill:#1a6c7e"/><path d="M19.99 9.99c.02-.54-.03-1.19.68-1.28.69-.08.69.58.83 1.04-.5.95-.82 1-1.51.24z" style="fill:#0f5e70"/><path d="M18.41 14.91c.52.67.13.89-.49.99-.3-.56-.34-1 .49-.99z" style="fill:#278398"/><path d="M18.69 20.87c1.14.42 1.24.85.43 1.91-.24-.09-.48-.19-.73-.28-.42-.64-.25-1.16.3-1.63z" style="fill:#1e6e7f"/><path d="M15.8 17.93c-.03.27-.14.44-.36.41-.21-.03-.32-.2-.31-.42.01-.23.13-.36.36-.34.24.02.3.2.31.35z" style="fill:#28b7d7"/><path d="M62.81 26.05a2.257 2.257 0 0 1-3.18 1.24c-.56-.29-.49-.82-.38-1.23.36-1.31-.09-2.53-.27-3.79.86-1.32.46-2.81.51-4.22.03-1.02.43-1.21 1.27-1.09.23.03.47.1.69.07 1.08-.13 1.35.44 1.34 1.39-.02 2.55.01 5.09.02 7.63z" style="fill:#18165c"/><path d="M66.1 24.15c.05.55-.24 1.17.36 1.6.05.04.08.11.11.17-1.46.5.35 1.02-.01 1.53-.54-.01-1.02-.92-1.66-.09-.09.12-.36-.19-.45-.42-.22-.54-.45-1.07-.67-1.61-.52-.76-.21-1.45.21-2.12 1.09-.58 1.39.65 2.11.94z" style="fill:#2749e2"/><path d="M63.98 23.21c.19.73-.44 1.38-.21 2.12-.05.78-.02 1.58-.18 2.34-.24 1.17-2.21 1.76-3.12.98-.16-.13-.31-.26-.2-.48.15-.29.39-.44.74-.48 2.2-.26 2.19-.27 2.17-2.47-.02-1.92-.01-3.84-.01-5.76.51-.36.53.04.54.37.02.73 0 1.46.02 2.2.01.4-.14.85.25 1.18z" style="fill:#e1e8f9"/><path d="M64.67 12.82c-.06.6-.91.56-.95 1.18-.39-.53-.41-1.09.09-1.51.31-.27.75-.25.86.33z" style="fill:#2625a6"/><path d="M55.97 21.55c-.07-.7-.13-1.41 0-2.11.82.41.67 1.16.66 1.86-.21.08-.44.16-.66.25z" style="fill:#1f25ae"/><path d="M57.58 14.41c-.03.23-.02.51-.37.43-.31-.07-.57-.23-.55-.62.02-.27.16-.42.43-.42.44-.02.49.27.49.61z" style="fill:#2d1da5"/><path d="M64.54 11.09c-.12.32-.19.62-.49.67-.34.05-.31-.25-.32-.46-.01-.27 0-.56.39-.56.27 0 .38.18.42.35z" style="fill:#2a20a5"/><path d="M57.6 21.57c0 .15 0 .31-.01.46-.02.25.06.61-.31.64-.47.04-.37-.38-.4-.66-.02-.15 0-.3 0-.46.24.01.48.01.72.02z" style="fill:#3229e2"/><path d="M73.15 14.38c-.01.16.04.46-.33.38-.31-.07-.76.04-.81-.46-.04-.41.22-.52.58-.53.38 0 .57.17.56.61z" style="fill:#2c1fa5"/><path d="M96.29 21.54c-.6.11-1.3.01-1.66.7-.05-.63.06-1.2.78-1.36.51-.11.83.13.88.66z" style="fill:#2820a6"/><path d="M101.6 15.42c-.35-.04-.73-.04-.7-.47.02-.31.35-.24.56-.24.26 0 .6-.07.65.3.06.42-.3.37-.51.41z" style="fill:#2d1ca4"/><path d="M96.3 32.94c-.02.44.04.85-.49.86-.49.01-.72-.3-.69-.75.05-.62.16-1.23.24-1.84.03-.21.1-.39.34-.4.23 0 .36.18.34.39-.07.64.17 1.23.26 1.74z" style="fill:#362be4"/><path class="st136" d="M103.15 27.69c-.01.24-.01.47-.02.71-.01.63-.59.41-.87.49-.3.09-.32-.37-.29-.62.09-.68.21-1.35.33-2.04.47.11.32.49.38.76.21.19.57.29.47.7z"/><path d="M100.31 21.35h.45c.07.68-.3 1.52.81 1.77.24.05.17.49.11.76-.03.13-.17.33-.27.34-.32.02-.48-.24-.58-.49-.29-.76-.69-1.51-.52-2.38z" style="fill:#3025e4"/><path d="M102.2 21.36h.7c.26.99-.56 1.74-.68 2.67-.4-.89-.14-1.78-.02-2.67z" style="fill:#332be4"/><path d="M97.91 28.56c.64-.48.99.92 1.65.25.43.7.34 1.13-.57 1.22-.15.02-.36.11-.32-.08.17-.71-.71-.81-.76-1.39z" style="fill:#313ce5"/><path d="M103.15 27.69c-.14-.25-.54-.32-.47-.71.25-.28.49-.56.93-.47.08.31.17.62.25.93 0 .09 0 .18-.01.27.14.27.15.47-.24.46-.15-.17-.31-.32-.46-.48z" style="fill:#2373e4"/><path d="M102.17 25.22c-.02.56-.33.58-.65.57-.32-.01-.5-.15-.49-.48.02-.43.32-.45.64-.45.33.01.5.16.5.36z" style="fill:#3f24e4"/><path class="st142" d="M103.61 28.16c.08-.15.16-.31.24-.46.12.1.29.17.35.29.16.33.24.82-.16.91-.5.11-.41-.41-.43-.74z"/><path d="M95.35 29.64c-.03.26.03.57-.33.54-.2-.02-.33-.2-.35-.42-.03-.3.17-.44.41-.48.3-.04.22.24.27.36z" style="fill:#2c29e4"/><path class="st144" d="M58.68 30.97c-.05-.72-1.1-.44-1.07-1.22.02-.58.46-.68.93-.64.61.05.72-.32.72-.8 0-.17.12-.32.29-.27.13.04.33.25.31.29-.4.76-.24 1.71-.78 2.42-.07.07-.2.1-.4.22z"/><path d="M57.11 26.04c.9.16.58-.71 1.06-1.33.14 1.41-.86 2.62.37 3.63-.83.2-.58-.54-1-.52-.36.21-.03.69-.43.98.01-.96.01-1.86 0-2.76z" style="fill:#2f2de4"/><path d="M55.92 31.93c-.11-.63-.07-1.25.05-1.88.5-.04.69.2.67.69-.02.49-.04.99.22 1.46-.43.09-.66-.17-.94-.27z" style="fill:#292ee4"/><path class="st147" d="M60.88 30.06c-.06.31-.08.77-.48.8-.48.03-.46-.43-.46-.77 0-.39.16-.72.6-.69.39.02.33.36.34.66z"/><path d="M55.97 29.34v-1.66c.62.32.62 1 0 1.66z" style="fill:#2d2fe4"/><path d="M57.12 26.03c-.44-.03-.73-.22-.66-.71.03-.2.21-.42.37-.36.52.21.18.71.29 1.07-.01.01 0 0 0 0z" style="fill:#312ee4"/><path d="M64.19 29.73c-.04.19.01.45-.26.45-.28.01-.41-.22-.42-.47 0-.28.21-.43.46-.43.3.01.18.29.22.45z" style="fill:#2c28e4"/><path d="M63.26 32.16c-.3-.42-.31-.72-.01-1.17.29.43.31.73.01 1.17z" style="fill:#2a2de4"/><path d="M88.26 26.04c.45.01.82-.05.62-.65-.08-.26-.09-.5.26-.48.3.02.29.31.3.55.01.29-.14.51-.27.76-.25.46-.43.93.22 1.28.41.22.38.67.09.88-.43.31-.39-.24-.58-.43-.52-.54-.73-1.17-.64-1.91z" style="fill:#302fe4"/><path d="M82.36 28.48c.6-.2.96.82 1.62.33.2.5.65.96-.44 1.13-.44.07-.49.17-.47-.25.02-.57-.8-.62-.71-1.21z" style="fill:#313be5"/><path d="M87.82 25.8c-.09-.11-.18-.23-.26-.34.03-.22-.02-.51.29-.55.3-.05.4.17.4.43.01.23.01.47.01.7-.14-.08-.29-.16-.44-.24z" style="fill:#3732e5"/><path d="M43.43 25.57c-.05-.47-.36-.74-.72-.97-.1-.29-.72-.25-.52-.65.18-.38.55 0 .83.01.36.01.77.3 1.05-.09.11-.15.1-.57-.01-.65-.35-.25-.72-.73-1.18-.48-.69.36-.61-.08-.64-.48-.26-.21-.55-.39-.7-.71.41-.69.15-1.46.26-2.19.47.07 1-.17 1.42.22-.08.27-.25.46-.51.57-.38.43-.29.74.24.94.58.19.61.81.95 1.18.8.01.45-1.12 1.18-1.18l.24.24c.14.14.21.3.22.5.01.08-.03.18.07.24.02-.12.09-.2.19-.27.12 1.04.88 2.13-.25 3.06-.36.29-.75.53-1.18.71-.31.18-.62.51-.94 0z" style="fill:#2366e4"/><path class="st98" d="M39.42 13.51c-.2.5-.83 1.04.28 1.37.2.06.28.98-.05 1.49-.56.36-1.12-.42-1.76 0-.14.09-.49-.61-.15-1.03.29-.36.7-.67.31-1.26-.41.19-.34.82-.82.89-.45-1.05.03-2.07.09-3.11.82.4 1.92.43 2.1 1.65z"/><path class="st156" d="M39.88 25.81c-.6.12-1.21-.27-2.01.23.29-.58-.25-1.3.54-1.25.56.03 1.69-.31 1.48 1.02h-.01z"/><path d="M39.87 24.37c-.31-1.04-.3-1.73-.06-2.42.06-.19.02-.53.39-.43.32.08.49.38.35.63-.34.58-.39 1.25-.68 2.22z" style="fill:#3327e4"/><path d="M38.71 31.12c.01.61-.63 1.05-.54 1.73.02.13-.2.22-.37.12-.23-.14-.34-.39-.25-.6.21-.49.51-.93.55-1.49.01-.09.23-.23.35-.23.27 0 .22.26.26.47z" style="fill:#2a35e4"/><path d="M41.54 21.54c.45.03.68.26.7.71-.25.13-.37.65-.72.38-.39-.29-.3-.73.02-1.09z" style="fill:#3034e4"/><path d="M39.42 23.61c-.05.3-.03.66-.41.59-.33-.06-.3-.41-.3-.68 0-.24.04-.51.35-.5.4.02.32.37.36.59z" style="fill:#3624e4"/><path class="st156" d="M39.89 25.79c.78.29.41.8.31 1.5-.44-.58-.26-1.06-.32-1.49 0 .01.01-.01.01-.01z"/><path class="st109" d="M106.65 30.04c-.3-.29-.2-.66-.2-1-.01-2.63-.01-5.26 0-7.89 0-.34-.1-.72.2-1 .05 3.29.27 6.59 0 9.89z"/><path d="M109.56 27.54c-.43-.59-.78-.98-.27-1.47.12-.11.47-.2.51-.14.4.51-.06.93-.24 1.61z" style="fill:#2530e4"/><path d="M110.68 22.97c.03.33-.11.7.24.94-.03.22.07.55-.22.6-.36.06-.58-.26-.66-.55-.15-.53.01-.94.64-.99z" style="fill:#3f25e4"/><path d="M109.27 19.89c.76.4.76.8 0 1.21-.35-.4-.36-.8 0-1.21z" style="fill:#3527e4"/><path d="M107.86 19.66c-.63-.32-.51-.87-.39-1.39.01-.03.21-.07.29-.03.68.34.04.8.1 1.2.01.07-.01.15 0 .22z" style="fill:#2a29e4"/><path d="M107.22 30.43c-.26-.02-.31-.19-.31-.4 0-.27-.04-.59.34-.63.23-.02.33.16.34.38.02.29-.07.53-.37.65z" style="fill:#3d2be4"/><path d="M107.38 26.36c-.29-.6-.35-.99-.06-1.37.03-.04.25-.01.3.06.37.44-.02.76-.24 1.31z" style="fill:#2d2de4"/><path class="st136" d="M107.85 19.67c.37 0 .74.01.69.54-.02.22-.15.4-.37.34-.49-.14-.26-.57-.32-.88.01-.01 0 0 0 0z"/><path class="st142" d="M107.74 22.65c-.14-.49-.19-.86.12-1.36.3.55.33.91-.12 1.36z"/><path d="M109.98 32.16c-.3-.42-.31-.72-.01-1.17.3.43.32.73.01 1.17z" style="fill:#2c27e4"/><path d="M71.32 26.38c.15.94 1 1.7.53 2.87-.16-.59-.92-.04-1.01-.64-.1-.79.17-1.52.48-2.23z" style="fill:#3928e4"/><path d="M74.36 29.11c.5.04.73.33.66.79-.06.41-.19 1.03-.65.94-.41-.08-.88-.57-.86-1.1.01-.39.41-.63.85-.63z" style="fill:#2c3ae4"/><path class="st147" d="M76.03 29.39c.42 0 .44.29.42.57-.02.38-.04.87-.51.91-.38.04-.41-.38-.42-.7 0-.38.09-.7.51-.78z"/><path d="M71.02 25.29c.02.33-.14.5-.47.51-.26 0-.59.05-.63-.32-.05-.37.19-.56.55-.6.28-.03.52.04.55.41z" style="fill:#3e26e4"/><path d="M72.69 25.46c-.04.18.01.47-.24.44-.3-.03-.39-.33-.39-.59 0-.21.16-.37.36-.36.31.02.24.31.27.51z" style="fill:#332ce4"/><path d="M77.75 32.03c.18.48.23.84-.2 1.23-.19-.47-.24-.84.2-1.23z" style="fill:#392ce4"/><path class="st49" d="M111.39 19.5c.22-.05.45-.13.67-.13 1.67-.04 1.84-.15 1.59-1.76-.12-.78.21-1.43.25-2.14.79-1.01 1.22-.99 1.79.07.36.67 1.31.76 1.58 1.54-.02.79.18 1.6-.21 2.35-.79.06-1.2.53-1.3 1.31-.48-.09-.59-.69-1.09-.61-.35-.35-.05-.79-.18-1.29-.29.25-.23.67-.52.83-.37.37-.21.78-.11 1.2.1.45-.29.85-.51.51-.51-.81-1.42-1.15-1.96-1.88z"/><path class="st68" d="M113.99 30.75c-.36-.52-.26-1.09-.17-1.65.38-.4.41-.9.41-1.42.01-.34.14-.66.54-.59.3.06.45.35.33.65-.23.59-.2 1.09.21 1.63.15.2.39.94-.53.64-.32-.12-.36.64-.79.74z"/><path d="M117.27 24.82V27c-.3-.16-.41-.43-.49-.74-.04-.18-.21-.49-.27-.47-1.81.37-.14-1.17-.83-1.44.54.22.97.68 1.59.47z" style="fill:#322ddd"/><path d="M113.98 19.67c0-.2 0-.39.01-.59.02-.42.11-.86.64-.75.47.1.3.57.26.89-.04.31-.14.61-.21.91-.54.32-.51-.25-.7-.46z" style="fill:#3330e4"/><path class="st175" d="M117.27 22.94v1.47c-.72-.13-.82-.75-1.02-1.29.32-.28.69-.09 1.02-.18z"/><path d="M115.95 21.2c.5.53.43.84.22 1.22-.49-.29-.22-.65-.22-1.22z" style="fill:#252fe4"/><path class="st144" d="M45.07 21.08c-.3.22-.21.55-.24.85-.08.74-.46.68-.94.33v-.93c0-.31-.03-.65.41-.7.37-.04.73-.06.77.45z"/><path d="M44.37 25.56c.18-.59.59-.81 1.18-.71.19.97-.73 1.39-1.18 2.14v-1.43z" style="fill:#2b32e4"/><path d="M47.66 25.79v1.67c-.76.45-.73-.27-.85-.62-.26-.75.27-.93.85-1.05z" style="fill:#2435e4"/><path d="M44.84 33.59c-.22-.16-.45-.32-.67-.48 0-.47.01-.94.01-1.42.57.02 1 .12.73.88-.1.31-.05.68-.07 1.02z" style="fill:#3131e4"/><path d="M47.43 30.28c0 .24-.01.48-.01.72-.33.24-.21.82-.7.94h.01c-.01-.66-.93-1.7.7-1.66z" style="fill:#3232e4"/><path d="M45.55 19.66c-.03-.02-.07-.03-.1-.05-.53-.35-.4-.87-.3-1.35.03-.18.24-.19.37-.08.46.39.2.83.06 1.27-.02.06-.02.14-.03.21z" style="fill:#2a2ae4"/><path d="M42.95 21.08c-.37.21-.76.32-.89-.22-.12-.47.21-.68.65-.71.18.28.29.58.24.93z" style="fill:#3d24e4"/><path class="st175" d="M47.65 20.14v.24c-.3.21-.32.71-.79.76-.22-1.26-.21-1.28.79-1z"/><path d="M45.8 21.79c-.05.33.09.71-.35 1.06-.23-.53-.09-1.04-.13-1.53.31-.01.46.17.48.47z" style="fill:#322ce4"/><path d="M45.55 19.67c.37 0 .74.01.69.54-.02.22-.15.4-.37.34-.5-.14-.26-.57-.32-.88 0-.01 0 0 0 0z" style="fill:#3e24e4"/><path d="M46.72 31.93c-.05.43.15.92-.35 1.35-.16-.59-.22-1.05.35-1.35.01.01 0 0 0 0z" style="fill:#382be4"/><path d="M50.02 29.33c-.43-.52-.44-1.14-.44-1.77 0-2.66-.02-5.33.01-7.99.01-.92.08-1.85.41-2.73l.12 1.9c-.06 2.74-.17 5.48-.04 8.22.4.68.68 1.38.19 2.14-.08.08-.17.16-.25.23z" style="fill:#d3daf2"/><path d="M51.21 27.21c-.06-.81.12-1.63-.14-2.43-.19-.6.24-.64.66-.63.44.01.88.02.78.7-.16 1.08-.68 1.98-1.3 2.84-.13-.16-.13-.32 0-.48z" style="fill:#2c34e4"/><path d="M51.96 30.15c.35-.85-.14-1.6-.05-2.35.04-.29-.11-.7.33-.76.45-.06.54.32.66.67.21.63.07 1.28.13 1.92.08.69-.78.03-1.07.52z" style="fill:#2a34e4"/><path d="M51.21 27.21v.47c-.23.53-.05 1.33-.94 1.42-.06-.71-.13-1.43-.19-2.14.24-.12.11-.62.45-.56.35.06.21.44.21.68-.01.78.28.22.47.13z" style="fill:#2a3ae4"/><path d="M51.67 30.87c-.08.56-.55.84-1.09.97-.31.08-.31-.26-.32-.48-.02-.79.89-.5 1.17-.98.05-.07.25.21.24.49z" style="fill:#3435e4"/><path d="M51.15 21.17c-.11.2-.13.51-.4.49-.31-.02-.23-.33-.23-.54-.01-.19.03-.42.27-.41.25 0 .36.21.36.46z" style="fill:#3636e4"/><path class="st47" d="M81.19 17.67c.95.73 1.56 3.11 1.16 4.06-.09.22-.19.49-.48.33-.33-.18-.69-.36-.69-.86.02-1.13.01-2.27.01-3.53z"/><path d="M117.27 17.08c-.65 0-.82-1.18-1.67-.69-.06-.14-.14-.27-.18-.41-.32-1.25-.32-1.25-1.52-.51-.55-.68-.11-1.43-.15-2.15.87-.07 1.32-.88 2.07-1.19 1.07-.44 1.45-.26 1.46.88.02 1.35 0 2.71-.01 4.07z" style="fill:#2943e2"/><path class="st55" d="M88.25 20.56c-.94 0-1.88.01-2.82.01.15-.64.67-.45 1.04-.41.6.06 1.19.26 1.78.4z"/><path d="M20.73 9.03c.29.39.64.65.23 1.06-.12.12-.3.13-.42.01-.38-.35-.05-.62.19-1.07z" style="fill:#2dadca"/><path d="M18.97 21.41c.2.08.35.21.3.43-.04.2-.17.36-.41.31-.18-.04-.22-.2-.22-.36-.01-.22.08-.37.33-.38z" style="fill:#5bbcd3"/><path d="M62.06 22.34c0 .82.02 1.65-.01 2.47-.01.53-.3.95-.84.94-.58-.01-.57-.54-.57-.98v-4.82c0-.44.01-.96.6-.94.54.02.8.44.81.98.02.78.01 1.56.01 2.35z" style="fill:#314470"/><ellipse cx="61.24" cy="22.26" rx=".08" ry="2.35" style="fill:#697297"/></svg>