<svg xmlns="http://www.w3.org/2000/svg" baseProfile="basic" viewBox="0 0 120 40" xmlns:v="https://vecta.io/nano"><path d="M119.23 33.45l.01 5.35c.01.49-.09.67-.58.57-.15-.03-.3 0-.45 0l-116.05.02c-.85 0-1.05-.19-1.05-1.05l.02-26.28c.22-.08.38.05.46.21 1.33 2.55 3.6 4.36 5.28 6.64 2.33 3.17 5.04 6.02 7.44 9.13.81 1.02 1.4 2.19 2.07 3.3.07.58.41 1.02.71 1.49.88.62 1.22 1.88 2.45 2.07.87.5 1.32 1.42 2.02 2.09.39.45.8.9 1.28 1.26.91.7 1.6.59 2.28-.36.52-.72.7-1.57.91-2.4.11-.41.04-.95.67-1.03 1.28.34 1.57.35 2.77.09-2.27-.75-2.43-2.42-2.14-4.3.71-2.17 1.05-4.44 1.68-6.63.1-1.28.95-2.34 1.05-3.62 1.45-4.89 2.64-9.86 3.86-14.81.37-1.48.18-2.88-.93-4.05l85.22-.02c.85 0 1.1.19 1.05 1.05-.08 1.32-.02 2.65-.02 3.98-.14.07-.28.05-.4-.04-.69-.76-1.56-.97-2.56-.97-7.09.02-14.18-.05-21.26.05-1.49.02-2.95.07-4.45 0-5-.24-9.99.16-14.97.58-1.85.16-3.71.04-5.57.06-.87.01-1.74-.05-2.55.39-.45.24-.92.1-1.25-.26-.66-.7-1.48-.82-2.38-.82l-26.49.01c-1.93 0-2.4.5-2.41 2.44v24.45c0 1.89.53 2.42 2.45 2.42l26.72.01c.77 0 1.52-.06 2.17-.53.49-.36.97-.39 1.45.02.53.45 1.16.51 1.82.51l20.13-.05c3.95-.1 7.89.26 11.84.05 4.73-.25 9.46.09 14.19.02 1.19-.02 2.25-.18 3.14-1.02.1-.09.23-.09.37-.02z" fill="#fefefe"/><path d="M14.14 28.2L5.02 17.12c-1.4-1.62-2.83-3.19-3.88-5.06v-1.59c.26-1.03.97-1.56 1.95-1.85l6.93-1.79 4.9-1.46c.8-.18 1.59-.53 2.45-.29.52.36.36.79.08 1.18-2.2 3.08-2.69 6.69-3.24 10.3-.44 2.91-.36 5.81.03 8.7.04.22.03.45-.07.64-.41.84-.05 1.39.65 1.82.01.5-.29.56-.68.48z" fill="#0acaf7"/><path d="M17.24 5.2c-1.14.07-2.23.41-3.3.76-3.34 1.1-6.75 1.93-10.17 2.75-1.11.26-2.01.8-2.64 1.76l-.02-8.53c0-.69.15-.82.82-.82l29.47.02c.01.53-.44.59-.77.65-2.15.4-4.16 1.3-6.27 1.85-2.04.48-4.1.92-6.12 1.49-.34.09-.67-.03-1 .07z" fill="#fefefe"/><path d="M24.32 3.36c2.06-.61 4.04-1.49 6.18-1.85.31-.05.68-.05.9-.38h1.59c1.12.48 1.48 1.36 1.46 2.52-.03 1.58-.61 3.03-.98 4.52l-2.76 10.85c-.09.35-.08.76-.43 1-.72.02-.7-.54-.77-1.01l-.48-4.16c-.53-3.03-1.3-5.98-2.92-8.64-.34-.55-.77-1.02-1.2-1.5-.34-.36-.79-.72-.59-1.35z" fill="#0acaf7"/><path d="M119.23 33.45c-.07.01-.15.01-.22.02-.38-.35-.35-.81-.35-1.27V7.37c0-.45-.03-.92.36-1.26.07.02.14.03.21.04v27.3z" fill="#4d6185"/><path d="M119.03 6.11l-.01 27.36c-.26.95-1.02 1.32-1.86 1.33-3.68.03-7.35-.01-11.03-.04-4.24-.03-8.49.02-12.73.07-.52.01-1.08.15-1.46-.39-.09-.12-.26-.26-.37-.14-.94 1.02-2.15.48-3.21.49l-19.34.04c-.47 0-1.06.04-1.26-.32-.62-1.06-1.09-.62-1.69-.02-.37.36-.9.34-1.4.34l-27.99-.02c-1.4 0-2.03-.63-2.08-2.12-.05-1.33-.01-2.65-.01-3.98V7.66c0-.34-.02-.69.02-1.02.17-1.36.71-1.86 2.08-1.86l11.26-.01 16.38-.01c.85 0 1.56.12 2.05.91.3.48.7.71 1.15.09.28-.39.71-.36 1.13-.34 4.67.27 9.31-.2 13.96-.54 2.99-.22 6-.24 8.97-.06.93.06 1.8-.02 2.71-.02l22.87-.01c.88 0 1.59.38 1.86 1.32z" fill="#344a73"/><path d="M16.85 32.99c-.09-.59-1.04-.88-.59-1.67.38-.05.71-.16.84-.6.08-.29.26-.54.63-.52.13.2.41.46.51.18.13-.34.46-.75.11-1.19-.22-.28-.91-.63.01-.91.28.01.54-.02.43-.42-.13-.45.06-.79.35-1.09.21-.22.38-.46.53-.73.54-.25.3-.69.27-1.09.56-.4.93-.81.4-1.53-.51-.67.48-.99.45-1.57.14-.32.32-.64.37-1 .2-.69-.18-1.45.27-2.1-.33.41-.58.87-.93 1.25-.1.05-.2.06-.31.02-.59-.77-.74-1.56-.08-2.37l.23-1.06c.09-.39-.26-.21-.43-.28-.39-.07-.75-.18-1-.5-.62-1.56-.37-2.28 1.07-2.97.21-.1.39-.22.56-.37.33-.28.79-.52.12-.96-.2-.13-.38-.4-.1-.67.16-.09.51-.02.5-.15-.12-.78.65-1.36.44-2.15.29-.61.43-1.09-.29-1.62-.55-.4-.42-1.14-.14-1.76 1.2-.85 2.49-.63 3.74-.21.71.23.75.96.77 1.61-.03.49.16.98-.02 1.47-.05.73-.73.77-1.17 1.08-.26.42-.09.8.09 1.18.82 1.73 1.31 3.53 1.24 5.45-.04 1.1.94 1 1.56 1.33.44.21.85.45 1.08.9.15.44.07.84-.24 1.2-.36.29-.71.42-1.01-.08-.13-.49-.49-.54-.91-.48-.75-.12-.94.27-.84.92.2 1.34.53 2.65 1.06 3.91.43 1.26.73 2.56.92 3.88.25.99.32 2 .18 3.02 0 .53-.05 1.06.01 1.58.14 1.14.62 2.02 1.92 2.14.35.03.69.05.63.56-.05.45-.39.43-.67.39-.94-.13-1.98.37-2.8-.46-.21-.46-.15-1.06-.67-1.37-.41-.56-.22-1.16-.11-1.76.21-.99-.75-1.27-1.16-1.88-.13-.35-.05-.65.18-.93.25-.34.77-.24 1.02-.6-.23-.4-.68.02-.9-.3.09-.83.11-1.65-.43-2.37-.51-.44-.76-1-.79-1.71-.82 1.8-1.44 3.66-2.64 5.23-.45.78-1.15 1.37-1.64 2.13-.35.9-1.46 1.01-1.88 1.82-.21.24-.44.4-.74.18z" fill="#024654"/><path d="M25.24 6.83c.05-1.43-.23-1.8-1.67-1.85-.82-.03-1.74-.3-2.43.48-.67.42-1.41.67-2.11 1.01-.37-.01-.72 0-.66.53-.24 1.03-.87 1.8-1.64 2.47-.53.12-.75.4-.46.93-.05.94-.37 1.82-.64 2.71-.23.76-.36 1.52-.09 2.29-.57.33-.68.87-.66 1.47-.36 1.98-.24 3.96-.1 5.94.06.86.21 1.71.1 2.57-.18.3-.43.28-.69.13-.53-.5-.44-1.23-.47-1.8-.33-5.69.22-11.25 2.68-16.5.27-.57.75-.95 1.06-1.46.13-.22.01-.43-.2-.57 2.3-.82 4.69-1.31 7.08-1.83.38 1.12 1.48 1.67 2.05 2.67 1.99 3.47 2.88 7.22 3.25 11.17.09.94-.22 2.05.66 2.84-.13.85.01 1.78-.75 2.45-.36.32-.09.79-.24 1.17-.83-.12-.7-.79-.71-1.32-.04-1.63.05-3.25-.02-4.88-.14-3.56-1.05-6.93-2.81-10.04-.14-.23-.34-.4-.53-.58z" fill="#23cff7"/><path d="M26.13 31.41c-.02.6-.5 1.21.04 1.79 0 1.5-1.01 2.33-2.1 3.06-.8.54-1.76.65-2.68.82l-1.87-2.04c-.81-.65-1.78-1.21-1.37-2.53.6-.31 1 .12 1.41.42 1.56 1.16 2.69 1.14 4.34.06.77-.49 1.18-1.49 2.23-1.58z" fill="#2ad1f8"/><path d="M25.24 6.83c.65.03.85.55 1.1 1.01 1.73 3.29 2.56 6.81 2.56 10.52v4.2c0 .42-.05.85.41 1.09-.65 2.22-.87 4.56-1.77 6.71-.33-.99-.26-2.05-.45-3.06.44-2.33.93-4.66.8-7.06-.02-.38-.03-.76.11-1.12.26-.34.22-.74.2-1.13-.16-2.48-.58-4.91-1.38-7.28-.34-1.01-.78-1.95-1.49-2.75.21-.39-.14-.75-.09-1.13z" fill="#24d0f7"/><path d="M21.39 37.08c.04-.32.23-.43.53-.45 2.23-.14 3.45-1.53 4.25-3.43.9.22.54.84.44 1.39l-.69 2.35c-.32.89-.69 1.82-1.75 2.05-1.1.24-1.69-.62-2.33-1.28-.17-.18-.3-.42-.45-.63z" fill="#12ccf7"/><path d="M17.73 30.27c-.36.11-.36.41-.39.71-.09.92-.53.82-1.07.34-1.08-.79-1.23-2.21-2.12-3.12l.65-.39c.22-.57.35-1.17.69-1.69.65.18.74.79.94 1.28.34.83.55 1.7 1.39 2.22.27.16.51.52-.09.65z" fill="#28d0f7"/><path d="M18.24 32.54c-.24 1.18 1.02 1.59 1.28 2.5-.7.1-1.21-.02-1.47-.81-.18-.55-.94-.67-1.19-1.23l.73-.25c.17-.22.21-.84.65-.21z" fill="#115968"/><path d="M15.52 26.18c0 .65.03 1.31-.72 1.63-1.26-.35-1.45-1.08-.61-2.28l.61-.07c.39-.1.58.16.76.42.02.1.01.2-.04.3z" fill="#085464"/><path d="M7.78 10.11c.7.05 1.08-1.39 1.91-.41.3.35.29.96-.11 1.23-.96.66-1.13-.62-1.8-.82z" fill="#0e6071"/><path d="M41.65 31.86c-.12 1.5-.53 1.87-2.02 1.63-1.02-.16-1.99.21-3.03.03-1.02-.18-1.35-.57-1.34-1.54l-.04-18.65.04-5.87c0-.89.35-1.28 1.27-1.34 1.24-.09 2.47.1 3.72-.13.79-.14 1.41.42 1.4 1.39l.01 5.8c0 .33-.08.68.45 1.19v-3.16c0-1.46-.07-2.9.44-4.33.37-1.02 1.11-.98 1.92-.97l12.89.2 5.66-.22c1.73 0 3.01.57 3.72 2.21.12.26.21.69.55.65.42-.05.23-.48.27-.76.13-.97.83-1.63 1.8-1.63l8.76-.04c.83-.03 1.14 1.01 1.69.74.52-.26.86-.84 1.57-.95 1.28-.2 2.53-.21 3.83-.02 1.65.24 3.32-.05 4.98-.16.54-.04 1.22-.06 1.52.29.85.97 1.47.32 2.29-.02 1.4-.58 2.92-.31 4.38-.21 2.68.19 5.36.21 8.04 0 1.13-.09 2.27-.1 3.4-.03.96.06 1.48.62 1.46 1.65v5c0 .44-.11.91.45 1.39V8.51c0-2.01.08-2.02 2.04-2.44 1.27-.28 2.48-.06 3.71.09.66.08.79.65.83 1.19l.02 2.05v21.95c0 1.65-.22 1.8-1.77 2.16-1.19.28-2.33.09-3.48-.08s-1.31-1.13-1.33-2.06l-.03-5.46c0-.38.17-.84-.27-1.15-.3.24-.16.56-.16.83v5.35c.03 2.74-.15 2.41-2.72 2.7-.85.1-1.8.25-2.57-.19-.94-.54-1.64-.35-2.68-.11-3.18.72-6.48.26-9.73.3-.11 0-.24-.03-.32-.1-1.02-.82-2-.82-3.13-.11-.58.37-1.39.24-2.12.24-5.84-.01-11.68-.01-17.51 0-1.44 0-2.6-.37-3.07-2.03-1.61 1.88-3.56 2.21-5.86 1.87-1.78-.27-3.62.07-5.43.12-3.48.11-6.97.04-10.46.02-.75 0-1.5-.12-2.25-.22-.51-.06-.81-.38-.88-.89-.29-.36-.21-.79-.21-1.2L42.33 26c-.01-.35.22-.88-.44-.96h0c-.28 1.56-.04 3.13-.13 4.7-.05.7.1 1.42-.11 2.12z" fill="#171358"/><g fill="#293569"><path d="M41.87 25.04c.64-.1.67-.1.67.58v6.92c-.62-.12-.44-.62-.44-1l-.01-5.44c0-.36.13-.76-.22-1.06z"/><path d="M41.65 31.86l-.01-5.88c0-.33-.1-.69.23-.94l-.01 5.76c0 .36.12.76-.21 1.06z"/></g><path d="M21.66 8.66c-.11.48.4.14.49.36-.93.76-.93.76-.59 2.27-.42.18-.56-.29-.86-.38-.78.16-1.22.71-1.56 1.36-.19.36-.29.76-.63 1.02-.44.23-.35.63-.33 1.02-.2 1.36-.63 2.66-.89 4-.09.33-.07.67-.04 1.01-.16 1.45.24 2.85.35 4.27.01.42.03.83.14 1.23.12.81.36 1.58.64 2.34.13.36.38.75.01 1.13-.47.13-.79-.06-1.05-.44-.43-.63-.73-1.3-.88-2.06-.49-2.56-.79-5.13-.53-7.74.04-.45.1-.9-.01-1.35-.05-.31-.05-.62-.05-.93.23-2.43 1.25-4.56 2.55-6.57.34-.53.68-1.25 1.57-.98.4.46.92.3 1.41.27.1.04.19.09.26.17z" fill="#4ed8f7"/><path d="M19.95 8.42c-.77-.24-.98.46-1.24.86-1.29 1.97-2.3 4.07-2.57 6.46-.32.07-.55-.01-.67-.34-.56-.29-.53-.8-.41-1.28l1.09-3.9c.07-.33.28-.59.43-.89.64-.77 1.38-1.47 1.62-2.51.17-.31.43-.45.78-.46.62-.54 1.29-.97 2.17-.91.18.56-.45 1.65.93 1.43-.04.61.26 1.3-.42 1.76l-.3-.02c-.58-1.03-.58-1.03-1.41-.2z" fill="#35d3f8"/><path d="M18.24 32.54c-.33-.29-.42.2-.66.2-.1-.38.02-.72.39-.77.67-.1.91-.67 1.35-1.03.39-.29.71-.02 1.04.13 1.48.65 2.54.42 3.61-.78.25-.27.42-.63.83-.71.73.4 1.54.75 1.33 1.83-1.15.93-2.08 2.15-3.64 2.56-1.15.31-2.08.09-2.92-.65-.4-.35-.78-.71-1.33-.78z" fill="#3ed5f8"/><path d="M17.32 23.72l-.45-2.97c-.11-.58.08-1.11.19-1.65.2-.23.16-.46 0-.7.08-1.47.63-2.84.91-4.27.21-.3.39-.61.46-.97.42-.76.55-1.69 1.41-2.18.3-.17.54-.44.86-.07-.23.19-.02.35.08.46.6.7.38 1.44-.54 1.8-1.54.6-1.69.92-1.17 2.54-.24 1.03-.88 2.03-.32 3.14-.28.65-.11 1.31-.02 1.97-.51.84.1 1.78-.23 2.63-.35.29-.74.38-1.18.27z" fill="#5edaf7"/><path d="M16.13 16.55c.52.71.13 1.48.06 2.18-.23 2.59.2 5.12.72 7.62.15.73.45 1.71 1.52 1.87.06.09.05.18-.01.27-.15 0-.43-.14-.29.22.17.42 1.5.52.36 1.3.64.65-.3.44-.39.7-.03.09-.2.28-.31.02-.05-.14-.04-.3-.06-.45l.16-.26c-1.66-.74-1.45-2.63-2.37-3.83l-.04-.23c-.32-.44.07-.82.11-1.23.04-.6-.51-.98-.58-1.54-.27-1.98-.39-3.96.04-5.94.2-.49.54-.76 1.08-.7z" fill="#41d5f7"/><path d="M24.8 29.58c-.35.49-.61 1.05-1.1 1.42-1.17.9-2.25.97-3.54.26-.26-.14-.56-.22-.84-.32.26-.89 1.08-1.35 1.58-2.05 2.14-.31 3.24-1.75 3.9-3.65.48.8.88 1.6.25 2.5.24.31.16.63.01.95-.17.27-.31.55-.26.89z" fill="#54d9f7"/><path d="M27.3 17.33c-1.86-.41-1.8-.41-1.86-2.2-.06-1.66-.5-3.25-1.22-4.76-.22-.45-.74-.97-.09-1.49.65-.24 1 .21 1.27.64 1.32 2.16 1.99 4.53 2.24 7.04.02.31-.01.61-.34.77z" fill="#4ad7f7"/><path d="M27.3 17.33c.03-2.84-.82-5.44-2.26-7.85-.18-.31-.47-.6-.9-.6.44-.25 1.18-.1 1.19-.91.82.02 1.01.73 1.24 1.28.83 1.97 1.46 4.01 1.64 6.16.07.86.63 1.73-.01 2.59l-.9-.67z" fill="#33d3f8"/><path d="M27.99 19.12c.43 1.71.26 3.41-.03 5.12l-.42 2.53c-.04.29-.13.51-.46.53l-.92-3.86c.21-1.39-.01-2.81.27-4.19.19-.32.45-.46.82-.32.09.7.47.24.74.19z" fill="#3ed3f5"/><path d="M24.81 25.24c-.06 2.31-1.53 3.68-3.9 3.65l1.87-3.65c.33-.72.16-1.8 1.29-2.13.17.74-.24 1.7.74 2.13z" fill="#6ddcf6"/><path d="M18.41 23.48l-.21-1.79c-.04-.44.05-.83.52-1.02.09-.06.19-.07.29-.06.1.04.17.11.21.21.3.51.43 1.33 1.33.7.23-.01.44.02.4.33-.05.36.62.98-.41.99-.29 0-.07.36.04.52.66.88.61 1.48-.61 1.67-.16.38.06.81-.17 1.18.02.32-.14.53-.41.68-1.05-.38-.82-1.38-1.04-2.16.02-.42-.09-.84.06-1.25z" fill="#76dcf2"/><path d="M18.7 18.91c-.77-.81-.62-2.07.37-3.2l.94.45c.63.38.13 1.1.48 1.56-.99.68-.38 1.51-.21 2.29-.05.89-.24 1-1.17.69h0c.08-.64.32-1.32-.41-1.79z" fill="#76dcf3"/><path d="M26.63 19.11c-.18 1.44.4 2.97-.46 4.34-.66-1.25-.9-2.62-1.13-3.98-.21-1.25.07-1.43 1.33-.99.23.14.4.32.26.63z" fill="#60daf6"/><path d="M18.64 24.54c.04.85.26 1.64.76 2.34-.27.34-.88.59-.24 1.15.19.16.15.44-.07.58-.23.14-.5.17-.67-.13l.01-.27c-.3-1.13-1-2.15-.91-3.38.31-.35.69-.41 1.12-.29z" fill="#54d7f5"/><path d="M19.12 20.71c.61.15 1.03-.04 1.17-.69a.74.74 0 0 1 .21 0l.13.15c.22.52.21 1.03-.13 1.5-.06.72-.38.93-.84.31-.25-.36-.92-.62-.54-1.27z" fill="#186474"/><path d="M20.49 20.01c.01-.76.6-1.13 1.09-1.61-.2.85.19 1.71-.19 2.53-.43.36-.78.52-.79-.29 0-.22.04-.44-.1-.64l-.01.01z" fill="#91dced"/><path d="M20.48 14.6c.02.42-.13.8-.58.81-.47 0-.57-.4-.57-.81 0-.42.16-.78.61-.8.5-.01.56.4.54.8z" fill="#63d1ea"/><path d="M25.06 28.69l-.01-.95c.2.03.36-.04.51-.18.29-.28.47-.04.64.17.27.34-.01.55-.21.77-.26.29-.67-.14-.93.19z" fill="#248ca4"/><path d="M22.67 12.34c-.06-.57-.71.21-.7-.37 0-.17.19-.36.41-.3.33.09.68.22.74.6.05.35-.23.54-.51.66-.17.07-.42.08-.5-.12-.23-.59.63-.06.56-.47z" fill="#42abc3"/><path d="M20.49 17.73c-.36-.46-.27-1.06-.48-1.56.26-.1.54-.4.8-.08.24.28-.08.45-.22.66-.2.29-.08.64-.1.98z" fill="#1b697a"/><path d="M20.5 20c.41.2-.28 1.45.89.93.02.38-.03.73-.43.92-.13-.14-.25-.27-.47-.19L20.5 20z" fill="#1a6878"/><path d="M19.81 26.2c.01-.4-.16-.83.17-1.18.3.24.24.75-.11 1.09l-.06.09z" fill="#67d4ed"/><path d="M26.63 19.11l-.26-.64c.57-.38.93-.34.89.46l-.63.18z" fill="#1f8aa3"/><path d="M15.25 17.04c-.25 2.14-.11 4.29 0 6.43.06.53.44.89.67 1.33l-.45 1.14-.69-.49c-.47-2.05-.49-4.14-.44-6.23.02-.88-.26-1.81.37-2.61.29.02.57.03.54.43z" fill="#25d0f7"/><path d="M15.25 17.04l-.53-.43c-.26-.72-.19-1.24.75-1.21l.67.34-.01.82-.88.48z" fill="#106477"/><path d="M16.58 9.34c.08.4.2.83-.43.89-.3-.02-.5-.14-.43-.47.12-.48.48-.49.86-.42z" fill="#198199"/><path d="M18.98 6.37c-.17.3-.43.45-.78.46-.19-.18-.28-.36 0-.54s.55-.25.78.08z" fill="#126c7f"/><path d="M14.6 27.23c-.35-.08-.5-.32-.48-.66.01-.29.12-.55.45-.55.37-.01.55.27.56.59a.56.56 0 0 1-.53.62z" fill="#1ab8dc"/><path d="M8.91 10.17c.01-.06-.05-.3.21-.31s.39.17.38.42c-.01.21-.15.36-.34.37-.24.02-.28-.17-.25-.48z" fill="#0eb8df"/><path d="M47.54 31.84h-1.57c-.3-.35-.66-.62-1.1-.76-.09-.06-.15-.14-.2-.24-.02-.74-.13-1.44-.74-1.96-.2-1.32-.11-2.63-.03-3.95.38-.61 1.02-1.06 1.2-2-.6.43-.35 1.2-.89 1.46-.33-.21-.49.29-.79.18-.03-.07-.04-.15-.06-.22-.15-.53.36-1.23-.44-1.59-.84-.38-1.48.07-2.14.48l-.06 1.79c-1.3.6-.44 1.2 0 1.8l-.01.69c-.81.22-.87.86-1.06 1.56-.28 1.04-.68 2.1-1.68 2.74l-.83.02c-.15-.23-.19-.49-.19-.76l-.1-9.26.08-5.98c-.01-.82-.34-1.64.04-2.45.35-.37.41-1.3 1.07-1.02.74.32.11.96-.03 1.46 0 .1-.01.17.02.25 1.84.45 2.09.86 1.57 2.53-.1.12.17.15.03.08-.02-.01 0-.03.02-.08.24-.47.61-.64 1.11-.5h0c.36.29.09 1.12.88 1.04 2.06.14 2.06.14 2.2-1.95.02-.33.02-.67.27-.94 1.14-.23 1.88.61 2.74 1.08 1.1.59.77 1.68.81 2.63-.01.43-.5.2-.7.57.27 0 .75-.41.7.22v4.33c-.11.65-.75 1.05-.76 1.81-.01.46-.62.07-.96.21.44.31.83.34 1.24-.01.18-.15.42-.23.49.14-.07.82.15 1.65-.14 2.46-.73.29-.8.92-.83 1.58-.22.27-.32.58-.29.84 0-.23.05-.53.25-.8.3-.22-.01-1.09.81-.74.04 1.08.29 2.17.07 3.26z" fill="#235de3"/><path d="M65.37 8.67c.22.81 1.34 1.04 1.3 2.02.29.64-.05.88-.62.97-.45.06-.88 0-1.29-.19-.28-.11-.5-.56-.85-.19-.19.2-.18.48.12.65.54.06 1.01-.3 1.56-.18.95.19 1.16.69.66 1.48-.44.7-.49 1.58-1.02 2.26.33-.7 1.03-1.14 1.26-1.89.07-.22.26-.43.5-.4.31.04.28.35.23.55-.34 1.33.21 2.68-.1 4-.15 1.36.53 2.73.01 4.09-.3.28-.64.3-1.02.21-.75-.35-1.48-.78-2.34-.81-.7-.86-.23-1.89-.38-2.83-.01-.07-.01-.15-.04-.22-.01.02-.02.03-.03.06v4.29c-.01.43.08.93-.45 1.17-.53-.37-.4-.94-.4-1.44l-.02-5.31c-.02-1.17-1.25-1.87-2.31-1.36-.34.16-.36.45-.38.76l-.07 2.15c-.01.61-.06 1.21-.53 1.68-.64.43-1.06-.35-1.63-.31-.24-.03-.47-.07-.69-.18-.16-.1-.28-.23-.37-.41-.07-.77-.47-1.41-.79-2.09-.15-2.46-.04-4.91-.06-7.37 0-.68.25-1.24 1.01-1.25 2.93-.05 5.84-.24 8.74.09z" fill="#1b41a6"/><path d="M78.72 9.13l.02 4.75c.01.67-.2.95-.9.93-1.24-.04-2.49.02-3.73-.01-.64-.02-.82.21-.84.85-.07 2.34-.1 2.34 2.29 2.34l1.13.03c.19.22.46.42.18.75-.56.32-1.18.13-1.75.23.94.23 1.99-.25 2.91.34 0 .49.05.98-.01 1.45s-.42 1.01-.88.77c-.93-.48-1.83 0-2.73-.15-.55-.72-.85-.34-1.11.25l-.04.44c-1 .55-2.04.38-3.07.15-.53-.12-.82-.51-.86-1.06-.03-.38-.04-.75-.02-1.13l-.01-9.58c-.05-.86.24-1.46 1.17-1.48h7.94c.11.01.21.08.31.13zm25.04 5.42c-1.73.55-3.51.06-5.26.24-.92.1-1.41.74-1.29 1.77.13 1.1.61 1.36 1.57 1.47 1.37.15 2.81-.38 4.13.38-.4.5-.96.49-1.52.5l-2.77.12c-.65.52-1.37.83-2.22.71-1.06-.72-1.12-.7-1.59.5-.25.34-.06.82-.37 1.15-.46.03-.5-.37-.68-.64-.2-3.32-.12-6.65-.05-9.98.03-1.33.86-2.15 2.14-2.2l7.94.02a.98.98 0 0 1 .63.23l.02 2.12c-.28.45.16 1.17-.62 1.45-.33.12-.07.36.1.5.71.62.47 1.15-.16 1.66z" fill="#1c3fa6"/><path d="M94.43 21.38c.24-.35-.62-.92.23-1.14.25-.88.84-.97 1.6-.68.71-.2 1.62.07 2.02-.87.61.49 1.43.2 2.08.56.53.58-.16 1.6.66 1.95-.49-.55-.68-1.24-.14-1.99.39-.18.78-.18 1.17-.03.64.48.1 1.11.28 1.59.38-.39.07-1.17.63-1.57.3-.13.58-.07.84.12.81.66.67 1.59.67 2.47l-.07 1.89c-.44.32-.66.07-.87-.38.01.33.28.58.08.85-.27.24-.56.47-.94.49-.03-.02-.06-.03-.09-.06-.03-.02-.05-.05-.08-.08-.11.49-.25.98-.18 1.54.54-.04.47-.56.72-.79.35-.12.46.15.61.36.05.1.11.29.15.28.16-.03.06-.16.03-.24-.05-.14-.13-.27-.15-.42 0-.11.05-.21.13-.28.22-.1.43-.09.6.1.02 1.91.35 3.84-.39 5.69-.68.13-.88-.28-.88-.84-.01-.53-.04-1.06-.15-1.58-.05-.24-.2-.41-.47-.41-.29.01-.38.23-.36.47a2.01 2.01 0 0 1-.31 1.19c-.31.51-.31.91.37 1.14.71.24.59.67.19 1.13h-1.57c-.38-.93-.74-1.87-.17-2.86a1.53 1.53 0 0 0-.23 1.63c.12.31.3.72-.08 1.04-.36.13-.72.28-1.12.18-.53-.64-.11-1.4-.26-2.13.11.8-.11 1.33-.98 1.24-.73-.08-.93.49-1.27.91l-2.75-.02c-.38-.37-.51-.85-.45-1.34.14-1.05.06-2.1.08-3.15.02-.88.58-1.55 1.43-1.6.89-.05 1.81-.15 2.67.23.34.22.71.44.93.78.17.26.33.38.62.3.45-.14.03-.42.1-.63.04-.11.06-.21.13-.3.72-.32 1.14-.82 1.09-1.62-.18.76-.79.85-1.44.87-1.39.03-2.79-.01-4.18.02-1.26.02-1.51.28-1.54 1.55l-.01 3.05c-.01.44.06.92-.36 1.25-.43-1.95-.1-3.91-.13-5.87-.01-.58.49-.58.92-.58h4.77c.63-.01 1.34.08 1.49-.83.31-1.82.28-1.93-1.01-2.31-1.55-.47-3.12-.1-4.66-.27z" fill="#2459e4"/><path d="M56.66 19.33l.24.24c.22.43.45.44.69.02.62-.13.9.41 1.33.68.83.76.58 1.79.68 2.73.06.59-.42 1.38.48 1.63.79.22 1.65.3 2.27-.5.14-.18.27-.36.5-.44.42-1.09.09-2.23.2-3.34.09-.93-.16-1.88.15-2.79.4.2.3.58.29.9l.02 5.09c-.11 1.42-.46 1.86-1.88 2.04-.25.03-.53-.02-.73.21 1.03.74 2.06.44 2.41-.69.19-.62.17-1.27.24-1.9.18-.37.46-.3.56-.01.3.87.81 1.35 1.78 1.3.21-.01.45.24.71.26.21.04.42.1.57.28l.01 2.51c-.09.54-.54 1.02-.21 1.62-.39.94-.73 1.93-1.85 2.28-.54-.66-.28-1.51-.58-2.26-.19.57-.25 1.14-.17 1.73.05.33.09.67-.19.94h-2.49c-.24-.24-.51-.46-.83-.57-.54-.17-.82-.49-.74-1.09.03-.2.13-.47-.17-.57-.11-.04-.22.05-.29.14-.19.24-.23.49.01.7.31.28.59.59.74.98.06.15.02.29-.11.4-1.35-.11-2.72.22-4.05-.17-.72-.57-.59-1.33-.45-2.09.82-.56.85-1.14.1-2.05-.1-.2-.1-.41-.04-.62.51-.7.32-1.35-.11-2-.11-1.73-.21-3.46.06-5.19.17-.37.45-.51.85-.4z" fill="#235de4"/><path d="M84.63 31.65c-.3.07-.56.3-.89.18-.55-.67-.09-1.46-.25-2.15-.04 1.21-.11 1.32-1.28 1.23-.46-.03-.96.28-1.38-.14-.3-1.37-.15-2.76-.11-4.13.03-.88.65-.98 1.36-.87.38.05.5.43.77.61.27.19.28.7.67.66.55-.05.15-.67.45-.91.61-.46 1.34-.48 2.05-.5 1.5-.05 1.51-.05 1.59-1.53.01-.19.01-.38.09-.56.22-.29.38-.13.55.06.5.45.23 1.28.96 1.75-.76-.75-.43-1.37 0-1.99.07-.12-.05-.07-.06-.04-.11.45-.36.64-.82.38-.23-.1-.3-1.13-.71-.11-.07 1.53-.28 1.75-1.82 1.78l-3.53.01c-1.59.01-1.61.03-1.61 1.56v3.53c0 .49.06 1-.4 1.36-.49-2.18-.47-4.38-.16-6.59.07-.48.44-.44.78-.45l5.1-.16c.95.02 1.31-.27 1.19-1.2-.05-.37-.02-.76-.03-1.13-.25-.58.24-.7.56-.93.37-.18.76-.27 1.17-.23.63.06 1.22.3 1.85.34.46.02.69.38.87.76.23 1.01-.19 2-.1 3.01-.78.47-.97 1.5-1.83 1.92-.23.11-.12.47.2.59.59-.48.31-1.84 1.61-1.59l.01.67c-.35.46-.27.92 0 1.38v.89c-1.08.44-.64 1.49-.91 2.26-.83.87-1.78.55-2.72.25-.33-.3-.29-.68-.21-1.05.15-.69-.04-1.34-.11-2.01-.04-.36-.16-.67-.59-.69-.49-.01-.52.33-.5.69.01.31-.08.59-.23.86-.32.55-.5.95.42 1.19.78.21.4.78.06 1.21h-1.57c-.38-.93-.74-1.87-.17-2.86a1.53 1.53 0 0 0-.23 1.63c.12.34.3.75-.09 1.06z" fill="#245ae4"/><path d="M91.45 8.82v5.31c-.01.62-.48.67-.97.67l-5.6.02c-.99-.42-1.04-.54-.5-1.65-.76.51-1.57.33-2.3.56-.43-.16-.7-.51-1-.83-.22-.55-.22-1.12.06-1.62.34-.62.29-1.29.37-1.95.29-.6.86-.73 1.42-.75l7.79-.01a.99.99 0 0 1 .73.25z" fill="#1b3ca6"/><path d="M110.13 14.33l.27 1.57c-.03.26.04.52-.05.77-.08.21-.14.46-.44.39-.22-.05-.36-.22-.34-.34.19.34.07.79-.13 1.23-.19.38-.15.78-.11 1.18-.3 1.19-.3 1.19.88 1.03.37.1.55.33.47.72-.06.27-.54.39-.34.73.19.32.43-.16.67-.03.48.4.63.85.25 1.4-.94.19-1.08.79-1.03 1.67l.15 6.6c.01.51-.27.64-.72.62l-1.35-.04c-.69-.57-1.58-.97-1.62-2.05-.26-.58-.29-1.2-.28-1.82v-.59c.27-3.09-.16-6.18-.01-9.27v-5.78l.01-2.14c.01-.41-.03-.84.38-1.12.58.2.45.72.47 1.14l.02 3.39c.03 1.17.18 1.26 1.26.9.52-.17 1.02-.57 1.59-.16z" fill="#2457e4"/><path d="M109.22 17.97c.05-.44.31-.83.21-1.31-.05-.22-.63-.46-.13-.65.43-.16.3.38.41.61.04.09.12.17.23.33.34-.3.01-.87.46-1.06 1.58.64 2.19.37 2.67-1.17.53 1.2.36 1.62-.78 1.96-.22.07-.6.01-.55.38.03.22.37.19.56.3.52.4.44 1.25 1.14 1.55.25-.38-.14-1.02.5-1.23.35-.09.26.81.78.35.47.1.89.16 1.27-.33.26-.33.74-.58 1.14-.03.16.99.19 1.99.17 2.99-.36.47-.78.93-.04 1.43.04.16.04.31-.02.46-.41.39-.84.06-1.61 0 .94.73 1.64 1.36 1.67 2.36-.11 1.99.13 3.98-.11 5.96-.04.34 0 .68-.25.96-.47.09-.93.04-1.35-.2-1.4-.09-.8-1.15-.91-1.82.05-.2-.16-.1-.01-.1-.06.6-.19 1.13-.99.95-.39-.78-.11-1.52.09-2.27.04-.11.11-.2.14-.31.14-.58 1.08-.61.98-1.17-.09-.54-.21-1.08-.16-1.7-.49.43.02 1.5-1.08 1.33-.44-.73.15-1.7-.57-2.36-.16-.24-.09-.51-.1-.77-.02-.47.17-.65.62-.41.23.12.45.54.71.06.14-.27.23-.61-.11-.8-.31-.18-.65-.16-.94.11-.22.21-.15.72-.66.64l-.65-.02c-.18-.17-.34-.42-.24-.6.48-.98-.45-1.73-.38-2.64.02-.24-.15-.43-.41-.47-.27-.04-.42.13-.49.37-.07.22-.12.44-.3.6-.29.65-1.11.4-1.22.27-.41-.48-.01-.96.31-1.39a1.46 1.46 0 0 0 0-1.16z" fill="#2363e4"/><path d="M69.58 10.4l.03 10.26c-.02 1.07.44 1.41 1.38 1.42l2.27.01c-.14 2.95-.14 2.92 2.79 2.99.8.02 1.64-.3 2.42.17-.54.5-1.21.25-1.82.31-.6.06-1.23-.12-1.79.26.8.21 1.6.29 2.41.34.41.02.84-.01 1.04.48-.04.39.33.71.16 1.12-.83.84-.61 1.93-.67 2.94-.03.4.15.82-.2 1.16l-.45-.02c-.63-.62-1.77-.91-1.3-2.23-.78.42-.78.44-.42.93.29.39.9.65.56 1.31-1.26-.4-2.61.58-3.85-.22-.43-.42-.21-.92-.16-1.39.06-.57-.1-1.12-.16-1.68-.03-.3-.11-.64-.52-.6-.37.03-.27.37-.34.61-.33 1.15-.62 2.32-1.32 3.32h-.23c-.18-.22-.22-.47-.22-.74V11.72c0-.48-.23-1.04.39-1.32z" fill="#245be4"/><path d="M81.66 9.5c.19.5.28 1.04-.04 1.47-.47.63-.4 1.31-.35 2 .3.38.32.9.64 1.28.06-.21.03-.45.24-.6.04-.41.27-.5.64-.37.47.17.87-.14 1.32-.17.26-.02.28-.71.66-.29.23.25-.09.48-.27.66-.68.7.08.95.41 1.34-.13.31-.29.61-.38.94-.43 1.5.12 2.16 1.67 2.26 1.16.08 2.41-.44 3.49.41-.07.61-.57.5-.94.53-.75.06-1.5.02-2.25.05 1.21-.05 2.41.25 3.63.09.31-.04.59.06.85.24.7.47.47 1.2.53 1.85-.82.28-1.7-.2-2.5.23-.4-.03-.79.01-1.15.19-.81-.18-.93-.82-.79-1.69-.72.53-.15 1.95-1.48 1.51-1.03-.16-2.07.01-3.11-.05-.7-.04-1.19-.18-1.66-.63-.27-3.24-.09-6.49-.1-9.74-.03-.68.18-1.3.94-1.51z" fill="#1c44a6"/><path d="M53.51 30.71c-.07.58-.05 1.23-.94 1.12-.55-.66-.1-1.44-.24-2.1-.05 1.01-1.17 1.71-2.44 1.5-.3-1.38-.16-2.77-.1-4.16a1.22 1.22 0 0 1 .24-.5c.58-.29.77-.9 1.1-1.39l.93-2.26c.09-.27.13-.67-.32-.68-.39 0-.31.36-.28.61.06.64.03 1.28-.08 1.91-.26.35-.52.93-.85.06-.13-.35-.71-.1-.7-.58-.13-2.35-.12-4.7-.01-7.05.12-.31.28-.58.61-.23.37.39.86.38 1.32.5 1.06.17 1.61.81 1.7 1.87l.05 9.1c.34.77-.45 1.53.01 2.28z" fill="#2362e4"/><path d="M51.66 17.73c-.54-.23-1.46.21-1.51-.87-.65-.5-.31-1.22-.42-1.84v-4.33c.06-2.17 1.63-2.9 3.95-1.84l-.01 7.08c-.17.18-.17.4-.2.63-.08.63.01 1.46-1.03.59-.62-.51-.45.47-.78.58z" fill="#1c3ea6"/><path d="M47.54 23.43l-.01-4.99c-.06-.05-.08-.1-.06-.16.02-.05.04-.08.06-.08.35-2.47-.66-2.58-3.36-3.88-.36-.3-.35-.73-.36-1.14l-.04-3.5c-.04-.54.17-.94.67-1.02 1.11-.17 2.23-.37 3.31.18l.03 22.31c0 .26.05.54-.24.7-.03-1.13-.34-2.25-.23-3.39-.2-.23-.16-.46.01-.69.45-.87.15-1.81.22-2.71-.41-.55-.36-1.09 0-1.63z" fill="#1c41a5"/><path d="M56.02 26.85v.69c.38.61.41 1.22-.05 1.81-.1.8-.05 1.57.27 2.32-1.07.66-.94-.21-.94-.78l.01-11.13.01-10.45c0-1.39.06-1.44 1.49-1.44l7.27-.01c.63-.01 1.12.13 1.3.81-.33.39-.78.22-1.17.22-2.42.02-4.85.04-7.27-.01-.82-.02-1.01.24-.98 1.04l.07 7.6c.31.68.45 1.36 0 2.03v5.69c.26.54.25 1.07-.01 1.61z" fill="#e8edf9"/><path d="M37.26 13.23c-.25 1.73.1 3.46.07 5.19-.08 3.8-.02 7.6-.04 11.4 0 .68-.09 1.36-.13 2.03-.92.06-.68-.64-.68-1.1l-.01-12.95-.02-8.86c-.01-.78.21-1.1 1.01-1.06.87.04 1.74-.04 2.61-.02.92.02 1.08.41.43 1.09-.63.38-1.32.22-1.99.23-.77.01-1.15.28-.95 1.1-.04.98-.11 1.97-.3 2.95z" fill="#c5ccf0"/><path d="M110.13 14.33c-.75 0-1.36.41-2.01.69-.88.38-1.19.1-1.19-.78l-.01-5.09c-.06-.28.12-.45.34-.49.98-.15 1.98-.44 2.88.26.12 1.81.48 3.61-.01 5.41z" fill="#1f42aa"/><path d="M69.58 10.4c-.24.42-.15.89-.15 1.33.09 5.92-.15 11.85.13 17.77.04.78-.1 1.58-.16 2.37-.56.08-.48-.33-.48-.66l-.01-21.69c0-.84.38-1.12 1.18-1.11l7.49.03c.47 0 1.16-.2 1.12.69-2.18.36-4.37.07-6.56.16-.53.02-1.06.05-1.59-.01-.88-.11-1.09.34-.97 1.12z" fill="#dae0f3"/><path d="M81.66 9.5c-.5.53-.64 1.16-.64 1.87v8.3c0 .35.16.77-.23 1.05-.3-.29-.48-.63-.49-1.07l.02-9.41c.35-.32.1-.86.42-1.19.56-.83 1.27-1.23 2.33-1.2l7.45.01c.71-.01 1.09.17.91.96-2.7.22-5.41.04-8.11.09-.6.01-1.26-.08-1.66.59z" fill="#edeff8"/><path d="M104.41 8.81c-2.69.27-5.38.02-8.07.08-1.68.04-2.39.68-2.4 2.41l.01 8.61c0 .28.14.61-.19.83l-.22-.27c-.32-.43-.33-.94-.34-1.44l.01-8.9c0-.3.1-.57.26-.82.6-.91 1.31-1.47 2.55-1.42l7.5.01c.72-.02.99.22.89.91z" fill="#e6e9f5"/><path d="M97.82 26.09l-2.5-.11c-.88-.07-1.47.49-1.41 1.37.09 1.49-.18 2.98.04 4.46-.5.08-1 .17-.92-.61l.04-4.86c-.01-.95.43-1.36 1.36-1.35l4.52.01c1 .04 1.53-.21 1.34-1.31-.02-.12.07-.26.12-.44.88 1.59.5 2.69-1 3.08-.67.85-1.07-.1-1.59-.24z" fill="#dfe4f8"/><path d="M106.29 31.81c-.63.03-.49-.46-.49-.79l-.01-22.35c0-.52.13-.8.7-.71.27.32.27.66.2 1.06-.19 1.09-.04 2.19-.08 3.28.03 4.08-.24 8.15-.09 12.22.07 1.81-.15 3.62.05 5.43.06.62.17 1.3-.28 1.86z" fill="#7f8dd6"/><path d="M116.94 31.83c.33-2.4.17-4.82.23-7.24-.24-.7-.49-1.4 0-2.1v-.4c-.28-.4-.3-.79 0-1.19.15-1.14-.16-2.26-.2-3.39-.25-.74-.03-1.5-.09-2.25l-.01-3.49c-.03-1.15-.37-1.32-1.38-.75-.26.15-.49.34-.75.5-.37.23-.74.41-1.1-.01-.62-2.99-.21-3.01 2.22-2.98.51.01 1.05-.07 1.5.29l.05 19.26v2.72c-.01.41.07.87-.47 1.03z" fill="#1c3ca8"/><path d="M87.86 23.44l-.02.23c.03 2.24.03 2.22-2.21 2.31-.57.02-1.14.24-1.71.36-.72.87-1.05-.15-1.56-.32-.18.03-.4.15-.53.09-.71-.32-.85-.01-.83.64l.05 4.19c.24.32.18.62-.05.91-.25 0-.5-.01-.75-.01v-5.78c-.02-.78.19-1.06 1-1.03l4.65.01c1.02.05 1.6-.17 1.44-1.33-.03-.22.04-.45.25-.6.21.03.31.13.27.33z" fill="#dfe3f7"/><path d="M117.35 8.82l-2.95.06c-.63-.02-.8.26-.76.82l.13 1.92c.48.67.07 1.5.4 2.2-.2.85-.13 1.7-.13 2.56 0 1.17-.56 1.52-1.63 1.13-.19-.02-.38-.03-.55-.08-.26-.07-.75.33-.74-.31 0-.44.3-.74.72-.68 1.53.21 1.39-.74 1.25-1.72l.02-5.44c.02-1.3.26-1.49 1.55-1.41.6.04 1.21.05 1.81-.03.8-.09 1 .27.88.98z" fill="#e4e7f7"/><path d="M47.75 8.83l-2.94.07c-.48 0-.78.06-.76.68l.12 4.74c-.2.77.02 1.56-.07 2.34-.08.68-.16 1.31-1.14.84-.45-.21-1.05.13-1.49-.29-.32-.49-.07-.8.38-.9 1.6-.37 1.6-.35 1.61-1.94l.01-.56.02-4.63c-.01-.93.3-1.42 1.33-1.32.67.07 1.36.05 2.03.01.74-.06 1.07.2.9.96z" fill="#e6e8f8"/><path d="M50.04 10.69l-.01 4.35c-.32 3.64-.29 7.28-.04 10.92.02.3 0 .6.05.89l.06 4.54c.1.25-.13.33-.24.48-.62-.02-.45-.51-.45-.84l.01-22.21c0-.31-.23-.82.42-.84.41.43.15.91.12 1.38-.03.44-.11.89.08 1.33z" fill="#c0c9e9"/><path d="M37.26 13.23c-.43-1.01.03-2 .08-3 1.32-.03 1.93.41 2.21 1.61.08 1.04.19 2.06 1.16 2.72l.05 1.56c-.69.23-1.23.59-.94 1.56-.66-.55-.44-1.08-.32-1.61.26-1.16-.15-1.63-1.38-1.5-.24.03-.33 0-.43-.18-.17-.29-.14-.54.06-.83.4-.6.38-.61.21-1.13-.29.23-.27.72-.7.8z" fill="#2842e2"/><path d="M69.64 31.86c.24-.89.29-1.84.88-2.61.21-.27.25-.52.13-.83-.2-.52-.15-.89.54-.89.53 0 .9.01.97.74.11 1.12.11 2.23-.02 3.34-.79.53-1.67.16-2.5.25z" fill="#283ce4"/><path d="M64.63 11.15c.74.12 1.63.89 2.05-.46 1 2.3.76 4.67.45 7.06-.13-.65.39-1.49-.63-1.88-.13-.05-.15-.59.09-.71.88-.43.39-1.15.4-1.8-.03 1.02-1.3 1.35-1.24 2.4.01.19-.07.4-.27.45-.27.06-.45-.16-.5-.36-.12-.48-.42-1.06.36-1.29.36-.1.37-.28.27-.58-.14-.44-.08-.83.44-1 .24-.08.41-.2.35-.48-.06-.24-.26-.33-.48-.43-.78-.33-1.45.33-2.2.21-.12-.71.38-.93.91-1.13z" fill="#1f30a3"/><path d="M39.38 11.81c-.17-1.18-1.24-1.2-2.03-1.58-.37-1.23-.3-1.35.9-1.33l2.27.04c.25 1.03.26 2.07.2 3.12-.53.37-.97.23-1.34-.25z" fill="#1c3aa8"/><path d="M86.68 31.84l.13-.98c-.4-.2-.97.43-1.2-.22-.17-.47-.1-.97.32-1.34.24-.22.34-.48.21-.81-.22-.55-.22-.96.55-.97.63-.01 1.1-.05 1.17.89.08 1.08.05 2.14-.03 3.21-.32.36-.74.26-1.15.22z" fill="#2737e4"/><path d="M37.99 31.83c.04-.38-.68-1.33.6-.81.05.02.24-.12.23-.18-.09-.83.82-1.53.66-2.12-.36-1.41.46-1.19 1.24-1.19l.04 3.39c.04.74-.22 1.04-.97.97-.59-.06-1.2-.04-1.8-.06z" fill="#263de4"/><path d="M102.38 31.84c.03-.45.25-.86-.6-.95-.91-.09-.59-.87-.3-1.38.2-.36.55-.6.33-1.1-.19-.43-.2-.84.46-.87.55-.02 1.13-.07 1.02.77-.07.59.33 1.14.06 1.78-.16.39.37.48.65.66-.37.6-.85 1.05-1.62 1.09z" fill="#273ae4"/><path d="M114 28.21c-.04.84-.4 1.65-.2 2.5.32.39.27.77-.05 1.13-.76.18-.67-.36-.67-.8v-6.67c-.1-.11-.08-.19.07-.23.61-.05.63.37.64.8l.06 1.67c.31.51.29 1.05.15 1.6z" fill="#95a2f1"/><path d="M110.13 20.25c.02-.67-.25-1.55.97-1.35.11.02.23.04.32.1.6.44-.03 1.17.25 1.51.32.39 1.1.42.45 1.18-.32.37-.12.86-.16 1.3-.23 0-.46 0-.69-.01.01-.51-.01-1.01-.46-1.37-.52-.08-.4-.37-.23-.68.01-.32-.15-.55-.45-.68z" fill="#2940e4"/><path d="M74.98 23.47c.39-.52.73-.42 1.11-.35 2.03.39 2.86-.32 2.87-2.41 0-1.05 0-2.1.22-3.16l.01 2.41c.05.92.23 1.81 1.07 2.37.68.45.37.67-.16.85-1.62.54-3.3.12-5.12.29z" fill="#2f406e"/><path d="M78.3 26.64c-.97-.44-2.02-.17-3.02-.32-.43-.06-1.03.12-1.06-.48-.04-.75.64-.56 1.09-.57l3.16-.03c.43.52.34.98-.17 1.4z" fill="#dbe3f8"/><path d="M106.29 31.81c.02-6.51-.07-13.01.19-19.52.07-.1.14-.11.22-.01v5.93c-.21 2.36-.12 4.72-.01 7.08.03.75-.26 1.49.01 2.23V28c-.21.59-.06 1.18.02 1.77.09.7.26 1.42-.22 2.06l-.11.03-.1-.05z" fill="#c8d1ee"/><path d="M44.16 24.57c.06 1.52-.17 3.03.03 4.55.31.41.28.9.27 1.37-.02.47.05.97-.34 1.34h-.5c-.55-1.73-.25-3.51-.21-5.25.01-.65-.29-1.34.08-1.97.17-.2.21-.75.65-.25.05.04.07.09.06.14s-.02.07-.04.07z" fill="#c3d1f5"/><path d="M77.59 31.85c-.22-1.1-.03-2.19-.02-3.29.01-.69.3-.86.89-.81l.27 3.2c.03.74-.21 1.29-1.14.9z" fill="#293ee3"/><path d="M106.7 12.28l-.22.01V7.96l3.18-.08c.88-.01 1 .38.49 1.05-1.07.07-2.18-.3-3.22.23-.36 1.02-.06 2.09-.23 3.12z" fill="#e9ecf8"/><path d="M81.01 31.84l.05-.91c.35-.46.89-.42 1.3-.31.9.25.94-.22.94-.87 0-.38-.17-.81.45-1.17v3.25l-2.74.01z" fill="#273ce4"/><path d="M43.48 24.61l.14 7.23c-.46-.26-.35-.71-.35-1.11v-6.57c0-.64.14-1.25-.95-1.04-.47.09-1.03.11-1.55.13.11-1.02 1.11-.93 1.65-1.02.55-.09 1.07.59 1.03 1.36-.01.34.03.68.03 1.02z" fill="#3927da"/><path d="M50.04 10.69c-.44-.88-.1-1.81-.21-2.71l2.95-.11c.76-.05 1.05.25.9.99l-1.81.04c-1.73.02-1.73.02-1.83 1.79z" fill="#e4e8f6"/><path d="M90.96 19.32c-1.51.33-3.02-.02-4.52.02-.45.01-.89.02-1.1-.57 1.46-.41 2.95.24 4.33-.35.54.14 1.12.21 1.29.9z" fill="#ced1eb"/><path d="M96.7 31.84c-.1-.98.26-1.45 1.3-1.18.55.14.75-.11.76-.65.01-.47-.16-.97.29-1.66.27 1.3.1 2.4.16 3.48-.83 0-1.67.01-2.51.01z" fill="#273be4"/><path d="M100.36 19.38c-.72-.16-1.63.25-2.08-.69 1.54-.11 3.1.04 4.63-.28.35.25.88.32.88.9l-.94.07c-.22.16-.45.16-.67 0-.46 0-.92 0-1.39-.01-.15.11-.29.11-.43.01z" fill="#f1f5fb"/><path d="M49.86 31.87l.24-.48c.25-.4.4-1 1.05-.78 1 .33.97-.28.96-.94-.01-.36-.08-.74.28-1.4.29 1.38.11 2.48.18 3.56l-2.71.04z" fill="#2839e4"/><path d="M67.16 25.02l-.71.01c-.62-.62-.62-.62-.3-1.46.06-.16-.11-.18-.17-.28-.29-.49-.4-.98.04-1.45l1.13-.01c-.07 1.07.21 2.12.01 3.19z" fill="#302ce0"/><path d="M113.14 24.14c-.02.08-.05.15-.07.23-.32-.4 0-1.01-.47-1.36.47-.24-.03-1.09.67-1.14.5-.04 1.15-.29 1.45.25.25.45.04 1.08-.28 1.46-.73.86-.75-.35-1.15-.51-.33.34-.16.72-.15 1.07z" fill="#2936e4"/><path d="M51.66 17.73c0-.15-.02-.31 0-.45.04-.28-.16-.68.23-.78.29-.07.56.15.78.38.15.15.14.45.45.46.41-.38-.28-1.19.55-1.4-.18 1.13.2 2.3-.23 3.41-.43-.73-.75-1.57-1.78-1.62z" fill="#2820b2"/><path d="M60.28 31.84c-.06-.48-.35-.81-.72-1.09-.56-.41-.53-1.09.04-1.47.25-.16.51-.21.74-.05.22.14.22.42.12.62-.35.76-.11 1.11.7 1.22.39.05.53.38.5.77h-1.38z" fill="#2b30e4"/><path d="M93.49 19.11l.04 1.36c-.67-.26-.64-.87-.65-1.41l-.01-8.73c0-.45-.06-.95.6-1.03l.01.71c-.2.26-.19.56-.19.87v7.37c0 .3 0 .61.2.86z" fill="#7073a6"/><path d="M64.17 31.84c-.27-1.03-.13-2.05.01-3.08.03-.23.05-.49.34-.49s.33.25.33.49c-.02.9.37 1.76.26 2.66-.11.62-.55.46-.94.42z" fill="#322be4"/><path d="M39.38 11.81c.44.13.87.31 1.34.25v2.48c-.75.18-1.04-.14-1-.88.01-.19.17-.55-.08-.6-1.15-.21-.42-.78-.26-1.25z" fill="#2467e2"/><path d="M75.99 31.83c-.07-.47-.35-.81-.72-1.08-.58-.43-.53-1.2.11-1.52.21-.11.44-.14.65-.02.23.13.25.39.16.6-.3.69-.22 1.12.64 1.26.33.05.32.46.32.77l-1.16-.01z" fill="#293ee3"/><path d="M91.45 26.18c-.78.13-1 .72-1.11 1.37-.05.3 0 .67-.34.77-.39.12-.42-.35-.64-.52-.29-.21-.4-.63-.11-.75.81-.36 1.06-1.22 1.68-1.71.13-.1.36-.06.55-.08l-.03.92z" fill="#2f35e4"/><path d="M85.56 21.4c.63 0 .87-.28.72-.92-.11-.51.05-.93.67-.88.58.04.53.59.37.85-.42.7.57.68.51 1.15-.27.21-.7.24-.71.71-.44-.44-.94-.77-1.56-.91z" fill="#2420a8"/><path d="M43.47 13.8c.26.53.21 1.09.14 1.63-.1.74-.47 1.3-1.34 1.07-.69-.18-.75.22-.81.7-.11.21-.13.75-.48.19-.24-.37-.31-.82-.22-1.28l.89.04c1.41.01 1.54-.11 1.62-1.5.02-.29-.02-.6.2-.85z" fill="#3d35e4"/><path d="M78.03 19.33h-3.91c.77-1.02 1.85-.51 2.78-.71.39-.31.76-.2 1.12.06l.01.65z" fill="#bec6e0"/><path d="M113.74 31.84l.05-1.13c.98-.42.5-1.44.87-2.16.35.64.25 1.3.23 1.94-.02.57.14.95.69 1.14-.57.45-1.24.04-1.84.21z" fill="#2d3de4"/><path d="M103.76 14.55c.36-.65.81-1.28-.37-1.62-.43-.12-.38-.76-.09-.76.95.01.85-.76 1.14-1.25l.02 2.9c0 .51-.14.81-.7.73z" fill="#251ea5"/><path d="M84.63 31.65c0-.37.15-.82-.11-1.1-.78-.87.3-1.5.25-2.27-.01-.1.19-.26.36-.18.26.12.27.44.17.58-.68 1.02-.33 2.09-.19 3.15-.19.04-.37.02-.48-.18z" fill="#2b35e4"/><path d="M100.33 31.65c0-.37.14-.82-.11-1.1-.78-.87.3-1.5.25-2.27-.01-.1.19-.25.36-.18.26.12.27.44.17.58-.68 1.02-.33 2.09-.19 3.15-.2.04-.37.02-.48-.18z" fill="#273ae4"/><path d="M90.56 31.38c-.44-1.66-.26-2.11.91-2.26.07.9.02 1.76-.91 2.26z" fill="#2933df"/><path d="M88.98 21.4c.76-.83 1.64-.51 2.5-.23l.1 1.08c-.72-.73-1.78-.42-2.6-.85z" fill="#2928de"/><path d="M106.97 29.81c.27.48.17 1.23 1.04 1.27.29.02.3.45.3.75l-1.58.02c-.12-.71-.41-1.43.24-2.04z" fill="#3541e5"/><path d="M104.4 25.04l-.62-.03c-.29-.24-.4-.53-.24-.89-.02-.11-.01-.23-.07-.32-.21-.37-.71-.89-.19-1.13.65-.31.37.48.53.77.13.24.36.22.58.24.11.45.09.9.01 1.36z" fill="#292ce3"/><path d="M40.73 26.84c-.36.02-.33-.52-.88-.48-.49.03-.28-.69-.05-1.02.2-.28.58-.33.93-.3v1.8z" fill="#3729e4"/><path d="M104.76 18.14c-.47-.47-.92-.85-.63-1.51.1-.21.38-.32.59-.16.58.45.35 1 .04 1.67z" fill="#2f406e"/><path d="M92.15 17.29c-.04.21.08.63-.3.57-.48-.09-.7-.55-.76-1.01-.04-.31.24-.47.53-.43.5.06.54.45.53.87z" fill="#2f416e"/><path d="M53.51 30.71c-.52-.4-.75-.85-.22-1.41.24-.25.15-.57.19-.86.32.76.34 1.51.03 2.27z" fill="#2b28e0"/><path d="M106.97 29.81c-.45.64-.1 1.36-.24 2.04-.08 0-.16-.01-.24-.01.12-1.28-.23-2.57.2-3.83l.28 1.8z" fill="#e7ebf8"/><path d="M44.82 30.94c.64-.04 1.2.03 1.15.89h-1.15c-.23-.29-.26-.59 0-.89z" fill="#2c2ce4"/><path d="M66.95 29.14c-.82-.66-.49-1.16.21-1.62.33.59.07 1.11-.21 1.62z" fill="#2e33de"/><path d="M73.3 21.64c-.07-.56.13-1.05.7-1.1.6-.05.33.53.41.85-.39.01-.78 0-1.11.25z" fill="#291fa6"/><path d="M44.82 30.94v.89h-.7l.07-1.35c.4-.11.45.28.63.46h0z" fill="#2367e4"/><path d="M78.03 18.68l-1.12-.06-.23-.61c.61-.11 1.1.03 1.35.67z" fill="#231ea1"/><path d="M92.67 22.18c.33.19.72.24.72.65 0 .08-.33.27-.45.22-.43-.14-.32-.5-.27-.87z" fill="#30436f"/><path d="M91.47 28.22c-.51-.46-.83-.91 0-1.38v1.38z" fill="#3429d8"/><path d="M80.75 9.05c-.06.43.31 1-.42 1.19.03-.44-.36-1.02.42-1.19z" fill="#c8cee7"/><path d="M18.64 24.54c-.32.32-.72.31-1.12.29-.39-.31-.19-.73-.2-1.11.31-.31.69-.36 1.09-.25.2.34.29.69.23 1.07z" fill="#1a6c7e"/><path d="M19.95 8.42c-.01-.54.17-1.07.77-1.01.67.06.7.67.64 1.22-.52.29-1.05.6-1.41-.21z" fill="#126578"/><path d="M18.43 13.16c.51.64.12.85-.46.97-.3-.54-.36-.96.46-.97z" fill="#278398"/><path d="M17.07 18.4c.25.08.7-.08.65.41-.04.37-.41.24-.65.29-.3-.23-.3-.47 0-.7z" fill="#36a1b9"/><path d="M18.7 18.91c1.1.41 1.21.85.41 1.8l-.39-.04c-.75-.58-.69-1.16-.02-1.76z" fill="#1e6e7f"/><path d="M15.93 24.81c-.51-.3-.87-.67-.67-1.33.34.38.75.73.67 1.33z" fill="#106577"/><path d="M15.4 15.74c.22.05.3.19.28.4s-.13.36-.35.33c-.2-.03-.3-.19-.29-.41.02-.21.14-.33.36-.32z" fill="#28b7d7"/><path d="M47.54 23.43v1.61c-.41.62-.92.88-1.6.43-.22-.14-.67-.17-.43-.62.2-.38.47-.28.75-.08.12.08.25.14.52.3-.13-.81-.3-1.59.76-1.64z" fill="#2435e4"/><path d="M44.86 19.3c-.26.28.35 1.17-.56 1.12-.6-.03-.33-.65-.38-1.02-.05-.41.03-.76.57-.74.4.01.59.15.37.64z" fill="#2e35e4"/><path d="M39.81 23.45c-.58.08-1.17-.22-1.89.12.24-.46-.28-1.16.47-1.12.54.03 1.63-.3 1.43.98l-.01.02z" fill="#362de4"/><path d="M44.16 24.57c-.03-.07-.04-.14-.02-.21.31-.41.16-.95.36-1.39.17-.37.45-.55.8-.35.31.18.3.62.06.77-.48.32-.36 1.24-1.2 1.18z" fill="#2b32e4"/><path d="M38.09 30.57c-.26-.24-.38-.31-.46-.43-.13-.2.43-1.93.65-2.01.09-.03.24-.02.29.04.18.23.19.57.05.74-.35.45-.38 1.01-.53 1.66z" fill="#2a35e4"/><path d="M39.79 21.97c-.27-.81-.26-1.37-.07-1.9.07-.2-.02-.73.5-.5.36.15.39.54.21.76-.36.42-.31.96-.64 1.64z" fill="#3327e4"/><path d="M44.83 30.95l-.64-.46.01-1.37c.55.02.96.12.71.85-.12.3-.06.65-.08.98z" fill="#3131e4"/><path d="M47.32 27.75l-.01.69c-.32.23-.2.79-.67.91l.01.01c-.01-.64-.9-1.64.67-1.61z" fill="#3232e4"/><path d="M43 18.85c0 .32-.15.48-.48.47-.35-.01-.43-.24-.42-.53 0-.26.01-.56.38-.54.35.01.5.26.52.6z" fill="#3c28e4"/><path d="M45.51 17.75c-.03-.02-.07-.03-.1-.05-.51-.34-.38-.84-.29-1.3.03-.17.23-.19.36-.08.45.38.19.81.06 1.22-.02.06-.02.14-.03.21h0z" fill="#2a2ae4"/><path d="M41.56 20.67c-.39-.04-.36-.33-.36-.59 0-.24.05-.47.35-.46.31 0 .51.19.46.49-.05.24-.13.52-.45.56z" fill="#322ee4"/><path d="M47.53 18.2v.23c-.28.21-.33.67-.76.75-.21-1.23-.2-1.24.76-.98z" fill="#3526e4"/><path d="M39.36 21.43c-.02.24-.07.5-.35.48-.26-.02-.32-.28-.31-.53 0-.2.06-.39.29-.41.31-.01.36.22.37.46z" fill="#3525e4"/><path d="M45.49 20.73c-.25-.41-.28-.84-.03-1.35.43.49.27.92.03 1.35z" fill="#322ce4"/><path d="M46.63 21.93c.3.08.23.34.24.55 0 .19-.02.42-.27.4s-.38-.23-.37-.48c0-.24.12-.42.4-.47z" fill="#2632e4"/><path d="M39.83 23.43c.75.28.4.77.3 1.44-.43-.56-.25-1.02-.31-1.43z" fill="#362de4"/><path d="M45.51 17.75c.36 0 .71.01.67.52-.02.21-.14.39-.36.33-.48-.13-.26-.55-.31-.85z" fill="#3e24e4"/><path d="M38 17.31c-.29-.48-.24-.83-.11-1.31.44.44.41.79.11 1.31z" fill="#2630e4"/><path d="M46.64 29.35c-.07.41.2.9-.35 1.25-.15-.52-.2-.96.35-1.25z" fill="#382be4"/><path d="M62.83 23.68c-.46 1.22-2.36 1.86-3.4 1.14-.43-.3-.38-.78-.27-1.13.37-1.19-.09-2.29-.26-3.43.83-1.27.44-2.71.49-4.06.03-.98.41-1.16 1.22-1.05 2.18.29 2.18.28 2.18 2.54l.04 5.99z" fill="#18165b"/><path d="M63.76 22.99c-.11.82.06 1.66-.22 2.47-.16.46-.46 1.02-.84.96-.81-.14-1.75.47-2.43-.32-.41-.46.06-.7.39-.81.31-.09.67-.01 1.01 0 .98.04 1.51-.46 1.52-1.41l-.01-6.35c.49-.35.51.04.52.36l.02 2.12c.01.39-.14.83.24 1.15.41.67.16 1.26-.2 1.83z" fill="#e1e8f9"/><path d="M63.76 22.99c-.26-.65.34-1.2.2-1.83.91-.46 1.43.25 2.05.68.05.53-.23 1.13.34 1.54.05.04.07.11.11.16-1.4.48.33.99-.01 1.48-.52 0-.98-.9-1.59-.09-.08.11-.35-.18-.44-.4l-.66-1.54z" fill="#2748e2"/><path d="M64.63 11.15c-.06.58-.88.54-.91 1.14-.35-.51-.41-1.06.09-1.47.31-.25.72-.22.82.33z" fill="#2625a6"/><path d="M56.01 19.56c-.07-.68-.13-1.36 0-2.03.79.39.64 1.12.64 1.8l-.64.23z" fill="#1f25ae"/><path d="M57.57 12.67c-.03.28-.06.51-.39.42-.3-.09-.54-.25-.5-.62.03-.27.19-.38.45-.37.43-.01.43.3.44.57z" fill="#2d1da5"/><path d="M64.06 9.13c.27.04.47.13.41.42-.06.25-.15.53-.44.58-.34.06-.3-.24-.31-.44-.01-.26.01-.52.34-.56z" fill="#2a20a5"/><path d="M57.58 19.59l-.01.44c-.02.24.05.59-.3.61-.46.03-.35-.36-.38-.63-.02-.15 0-.29 0-.44l.69.02z" fill="#3229e2"/><path d="M73.04 12.63c-.01.23 0 .48-.35.39-.29-.08-.73.03-.75-.47-.02-.41.25-.48.59-.48.37 0 .52.2.51.56z" fill="#2c1fa5"/><path d="M96.26 19.56c-.58.11-1.25.01-1.6.68-.05-.61.06-1.15.75-1.31.48-.12.79.11.85.63z" fill="#2820a6"/><path d="M102.11 13.35c-.08.35-.37.3-.63.3-.27 0-.58-.09-.57-.4.02-.38.39-.25.62-.26.27-.02.56-.03.58.36z" fill="#2d1ca4"/><path d="M96.25 30.21c0 .56.02.99-.55.94-.48-.04-.7-.43-.56-.8.26-.68-.02-2.02.5-1.96.88.1.02 1.41.61 1.82z" fill="#362be4"/><path d="M103.09 25.26l-.01.68c-.01.6-.57.39-.84.47-.29.09-.31-.35-.28-.6l.32-1.97c.45.1.3.47.37.73.19.2.55.29.44.69z" fill="#3d26e4"/><path d="M97.82 26.09c.61-.44.95.88 1.59.25.21.34.77.58.3 1.11-.27-.49-1.18.68-1.24-.5-.01-.29-.74-.31-.65-.86z" fill="#2e3ee5"/><path d="M102.17 19.39h.67c.18.9-.35 1.6-.7 2.62-.3-1.07-.06-1.85.03-2.62z" fill="#322ce4"/><path d="M100.36 19.38h.43c.09.63-.33 1.45.75 1.69.28.06.24.55 0 .77-.3.28-.47-.05-.61-.24-.47-.67-.68-1.4-.57-2.22z" fill="#2e25e4"/><path d="M103.09 25.26c-.14-.24-.52-.31-.45-.68.24-.27.47-.54.89-.46l.24.89-.01.26c.14.26.14.45-.23.44l-.44-.45z" fill="#2373e4"/><path d="M102.15 23.02c-.02.36-.27.41-.55.42-.37.01-.59-.15-.54-.54.05-.35.33-.36.6-.36.32 0 .5.14.49.48z" fill="#3f24e4"/><path d="M103.54 25.72l.23-.44c.12.09.28.16.34.28.15.32.23.79-.16.87-.48.1-.39-.4-.41-.71z" fill="#342ae4"/><path d="M95.07 27.68c-.2-.06-.33-.19-.37-.39-.05-.29.12-.43.36-.49.28-.07.28.17.28.35-.01.22.04.48-.27.53z" fill="#2c27e4"/><path d="M57.58 27.34c.03-.41.19-.66.48-.67.64-.03 1.22-.06 1.18-.95-.01-.18.23-.17.36-.09.17.11.26.3.15.49-.28.47-.3 1-.43 1.51-.08.3-.31.88-.58.67-.42-.29-1.06-.43-1.16-.96z" fill="#2e35e4"/><path d="M57.11 23.67c.6-.2.6-.2.96-1.02.19 1.09-.75 2.26.43 3.23-.81.2-.56-.52-.97-.5-.37.2-.01.67-.41.92l-.01-2.63h0z" fill="#2f2de4"/><path d="M55.96 29.35c-.11-.61-.07-1.21.05-1.81.49-.04.67.19.65.66-.02.48-.04.96.21 1.4-.41.09-.63-.16-.91-.25z" fill="#292ee4"/><path d="M60.41 26.89c.42.1.36.45.31.72-.05.31-.09.78-.53.71-.4-.06-.37-.51-.35-.85.04-.33.21-.55.57-.58z" fill="#2e37e4"/><path d="M56.02 26.85v-1.6c.59.31.59.96 0 1.6z" fill="#2d2fe4"/><path d="M57.12 23.66c-.42-.03-.7-.21-.64-.69.03-.19.21-.41.35-.35.52.21.18.7.29 1.04z" fill="#312ee4"/><path d="M63.9 26.79c.28-.01.26.2.26.38 0 .22.03.51-.29.5-.19 0-.32-.19-.35-.39-.04-.3.15-.41.38-.49z" fill="#2c28e4"/><path d="M60.9 29.58c.08-.41-.04-.77.27-.97.07-.04.39.13.42.26.14.45-.25.52-.69.71z" fill="#342be4"/><path d="M63.27 29.46c-.26-.04-.23-.26-.23-.43s-.04-.38.21-.46c.26.04.22.26.23.43 0 .17.04.38-.21.46z" fill="#2a2de4"/><path d="M88.29 23.67c.43.01.79-.05.6-.63-.08-.25-.09-.48.25-.46.29.02.28.3.29.53.01.28-.13.49-.26.73-.24.45-.42.9.21 1.23.39.21.37.64.09.85-.41.3-.38-.23-.56-.41-.51-.52-.71-1.13-.62-1.84h0z" fill="#302fe4"/><path d="M82.37 26.02c.58-.19.92.79 1.56.32.19.48.63.93-.42 1.09-.43.06-.47.17-.46-.25.02-.54-.77-.59-.68-1.16z" fill="#313be5"/><path d="M87.86 23.44l-.26-.33c.03-.21-.02-.49.28-.53.29-.04.38.17.39.42l.01.67c-.13-.08-.28-.15-.42-.23z" fill="#3732e5"/><path d="M82.14 13.66c-.04.32.09.65-.14 1.03-.61-.43-.83-.99-.73-1.7.59-.17.6.42.87.67z" fill="#2b20a5"/><path d="M85.78 12.97c.25.03.59-.05.62.31.03.38-.3.36-.55.36-.28.01-.59-.05-.62-.35-.05-.4.33-.27.55-.32z" fill="#2e1ca4"/><path d="M106.69 27.52c-.31-.32-.19-.72-.19-1.08v-7.15c0-.36-.12-.76.19-1.08v9.31z" fill="#e7ebf8"/><path d="M109.51 25.04c-.45-.46-.68-.84-.35-1.29.12-.16.44-.35.58-.17.38.48-.05.89-.23 1.46z" fill="#2530e4"/><path d="M110.59 20.94c.01.25-.04.52.23.68-.04.23.1.62-.32.59-.26-.02-.48-.28-.54-.54-.11-.49.17-.7.63-.73z" fill="#3f25e4"/><path d="M107.86 17.75c-.6-.31-.49-.83-.38-1.34.01-.03.2-.07.28-.03.65.32.03.77.1 1.16.01.06 0 .14 0 .21h0z" fill="#2a29e4"/><path d="M109.22 17.97c.73.39.73.77 0 1.16-.34-.38-.34-.77 0-1.16z" fill="#3527e4"/><path d="M107.25 27.9c-.25-.02-.3-.19-.3-.39 0-.26-.04-.57.32-.61.22-.02.32.15.33.36.02.3-.06.52-.35.64z" fill="#3d2be4"/><path d="M107.42 24.02c-.3-.61-.33-.98-.11-1.35.02-.04.24-.03.29.03.41.4.01.71-.18 1.32z" fill="#2d2de4"/><path d="M107.85 17.75c.36 0 .71.01.66.52-.02.21-.14.39-.36.33-.46-.13-.24-.55-.3-.85z" fill="#3d26e4"/><path d="M107.84 20.65c-.32-.49-.21-.84-.08-1.28.51.47.31.81.08 1.28z" fill="#342ae4"/><path d="M109.86 28.45c.37.39.31.69.1 1.07-.37-.31-.33-.62-.1-1.07z" fill="#2b2be4"/><path d="M112.4 17.52c1.15.12 1.51-.5 1.3-1.49-.17-.82.08-1.56.21-2.33.76-.98 1.17-.95 1.72.07.35.65 1.27.74 1.53 1.49-.02.76.17 1.54-.21 2.27-.77.06-1.16.51-1.25 1.26-.46-.09-.57-.67-1.05-.59-.34-.34-.05-.76-.17-1.24-.28.24-.23.65-.5.8-.36.35-.23.75-.1 1.15.08.25.02.45-.21.56-.2.1-.38-.01-.47-.18-.32-.57-.98-.99-.8-1.77z" fill="#2459e4"/><path d="M114 28.21c-.35-.5-.25-1.05-.16-1.6.37-.39.39-.87.4-1.37.01-.32.13-.64.52-.57.29.05.43.34.32.62-.22.57-.2 1.05.2 1.57.15.19.37.9-.51.62-.32-.1-.36.64-.77.73z" fill="#283ce4"/><path d="M117.16 22.5v2.1c-.29-.16-.4-.41-.47-.72-.04-.17-.2-.47-.26-.46-1.75.35-.14-1.13-.8-1.39.53.22.93.67 1.53.47z" fill="#322ddd"/><path d="M113.99 17.75l.01-.57c.02-.41.11-.83.62-.73.46.1.29.55.25.86-.03.3-.13.58-.2.88-.53.31-.49-.23-.68-.44z" fill="#3330e4"/><path d="M117.16 20.91v1.19c-.61-.09-.74-.61-1.01-1.11l1.01-.08z" fill="#3624e4"/><path d="M116.1 19.39c.2.38.27.69-.12 1.07-.19-.43-.27-.73.12-1.07z" fill="#252fe4"/><path d="M75.08 27.37c-.13.41-.19 1.06-.77 1-.49-.05-.89-.6-.92-1.1-.03-.43.42-.64.89-.65s.78.17.8.75z" fill="#2c3ae4"/><path d="M71.27 24.01c.13.89.98 1.61.57 2.6-1.23-.58-1.23-.58-.57-2.6z" fill="#3928e4"/><path d="M76.45 27.55c-.07.3-.07.75-.47.77-.46.02-.43-.42-.43-.76 0-.38.15-.69.58-.66.37.04.3.37.32.65z" fill="#2e37e4"/><path d="M70.5 22.54c.31 0 .49.13.48.46-.01.34-.23.43-.52.43-.26 0-.56 0-.55-.37.01-.36.26-.5.59-.52z" fill="#3e25e4"/><path d="M72.58 23.08c-.03.21.03.52-.31.47-.24-.03-.35-.26-.34-.51.01-.21.13-.38.32-.41.36-.05.31.24.33.45z" fill="#332ce4"/><path d="M83.21 18.32c-.43-.4-.39-.85-.38-1.3.01-.32.05-.62.46-.6.5.02.48.42.42.73-.07.38-.13.8-.5 1.17z" fill="#2527a6"/><path d="M50.05 26.84c-.41-.5-.42-1.1-.42-1.71l.01-7.47c.01-.89.08-1.78.4-2.63l.12 1.83-.04 7.7c.39.66.66 1.33.18 2.06l-.25.22z" fill="#d4daf2"/><path d="M51.19 24.8c-.06-.78.11-1.57-.13-2.35-.18-.58.23-.62.64-.6.43.01.85.02.75.67-.16 1.04-.65 1.91-1.25 2.74-.13-.16-.13-.31-.01-.46z" fill="#2c34e4"/><path d="M51.91 27.62c.36-.86-.16-1.61-.04-2.38.04-.25-.03-.57.33-.61.31-.03.51.17.55.45.1.68.25 1.38.21 2.06-.03.65-.75.05-1.05.48z" fill="#2a34e4"/><path d="M51.19 24.8v.46c-.22.51-.05 1.28-.91 1.37l-.18-2.06c.23-.12.11-.6.43-.54.33.06.2.43.2.66 0 .74.28.19.46.11z" fill="#2a3ae4"/><path d="M50.63 29.27c-.35.01-.33-.25-.34-.47-.05-.74.77-.5 1.07-.91.14-.19.31.21.28.42-.09.57-.56.77-1.01.96z" fill="#3435e4"/><path d="M51.15 19.21c-.11.15-.22.44-.36.46-.3.04-.27-.27-.27-.47 0-.21-.01-.48.32-.44.2.03.27.21.31.45z" fill="#3636e4"/><path d="M93.49 19.11c-.48-.08-.42-.46-.42-.8V10.8c0-.33-.07-.71.42-.8v9.11z" fill="#7478a8"/><path d="M117.17 15.25c-.63 0-.79-1.14-1.61-.67-.06-.13-.14-.26-.17-.4-.31-1.21-.31-1.21-1.46-.49-.53-.66-.11-1.38-.14-2.07.84-.07 1.27-.85 1.99-1.15 1.03-.42 1.4-.25 1.41.85l-.02 3.93z" fill="#2943e2"/><path d="M20.96 8.22c-.03.22-.11.39-.33.36a.33.33 0 0 1-.29-.39c.02-.2.15-.34.35-.34.23.01.26.2.27.37z" fill="#2fb2d0"/><path d="M19.27 19.79c-.02.22-.15.36-.35.36-.24-.01-.29-.21-.27-.41.01-.15.08-.31.26-.3.22 0 .34.14.36.35z" fill="#5bbcd3"/><path d="M60.52 20.26v-2.27c0-.44.05-.87.61-.91.54-.04.93.28.95.77v4.76c-.01.5-.39.82-.93.79-.56-.02-.64-.43-.64-.88l.01-2.26z" fill="#314470"/><path d="M61.04 18.65c.22.99.19 1.98 0 2.97v-2.97z" fill="#697297"/></svg>